<svg xmlns="http://www.w3.org/2000/svg" viewBox="0 0 178.09 295.76"><defs><style>.cls-1{fill:#878787;}</style></defs><title>profile</title><g id="Capa_2" data-name="Capa 2"><g id="Capa_1-2" data-name="Capa 1"><path class="cls-1" d="M75.42,120.32a5.08,5.08,0,0,1,1.71.08c1.83.79,1.8.83,3.51-.54.2-.16.64-.31.78-.21,3.45,2.57,7.38.73,11,1.28,2.41.37,3.76-.29,4.75-2.3l.87.81c-1.82,1.6.55,2.58,1,2.93,1.22,1.06.83-1.1,1.7-1.33.63-.18,1.4-.37,1.67-1.35-1.88.37-2.81-3.39-5.16-1l-7.35,1c1.17-3.14,1.16-3.13,3.3-1.61.24.16.75.33.83.24,1.74-2,4.33-1.2,6.38-2,1-.39,1.94-.74,2.54-.12s1.3,1.53.72,2.48a3,3,0,0,0,0,3.19,1.79,1.79,0,0,1-.53,2.5c-1,.5-2.19.75-3-.28-.38-.47-.68-.94-1.11-.41a3.29,3.29,0,0,0-.71,1.9c0,.31.68.7,1.12.92.15.08.49-.32.76-.36,1.39-.18,3.05-.9,3.62,1.16s-1,2.4-2.69,2.71c.71,1.36,3,.82,2.77,2.9-.15,1.22-.77,1.76-2,2.08,1.72,1.43,2.3,2.78,1.65,5-.44,1.51.86,2.94,2.88,1.92.81-.41,1.16,0,1.56.47a.88.88,0,0,1-.41,1.5c-2.06.74-1,1.62-.11,2.31,2.87,2.2,1,5.17,1.22,7.74.08,1.16-1.63,1.21-2.58.8-1.35-.57-1.21-1.81-.71-2.93.37-.83,1.36-.65,2.5-.92-2.23-1.39-4.18-2.55-2.28-5.29.35-.5-.44-1.76-1.75-1.09-.83.43-2.29.72-2.39-.17-.31-2.75-2.21-5.35-1.13-8.22.69-1.82-.42-2-1.6-1.94-2.46.19-3.78-.34-2.25-3,.44-.76.81-1.39-.44-1.46s-.58-3-2.62-1.35c-.81.65-1.89,1.14-2.88-.21-.56-.76-1.43-.08-2.22.24-1.1.44-2.08,1.52-3.56.76-.73-.38-1.77.66-1.56,1.05,1.14,2.08-.32,3.82-.42,5.69-.2,4-1,4.79-4.66,3.29A1.5,1.5,0,0,0,77,139a1.15,1.15,0,0,1-1.44-1.19A1.18,1.18,0,0,1,77,136.64c2.79.45,3.14-.53,3.06-3.36-.07-2.46-1-5.12.25-7.65.44-.87-.38-1.84-1-2.39-1.17-1-.55.75-1.2,1a2.81,2.81,0,0,1-2.61.08c-1-.59-.76-1.6-.59-2.54.1-.53,1.22-.66.59-1.48Z"/><path class="cls-1" d="M104.07,259.2c1.12-1.89,2-3.36,4.47-2,1.09.61,2.27-.49,3.39-1.42-1.7-.62-2.37-1.72-1.69-3.28a1.8,1.8,0,0,1,2.47-.76c1.65.69,1.39,2.32.87,3.5-.39.9-.26,1.3.33,1.83s.92.13,1.33-.22c.62-.54.31-.94,0-1.58-1-2.42.23-4.19,2.68-3.53,2.66.72,3,.18,2.22-2.32-.55-1.8.39-3.35,2.46-2.7,1.52.48,3.14.58,4-.27,1.64-1.64,2.37,2,3.67.35,1-1.35-.86-2.72-.06-4s1.64-2.85,3.29-1.2c1.16,1.17,1.81,0,2.76-.16-.3-1.26-2.62-1.79-1.4-3.56,1.07-1.55,2.41-1.67,4-.74a1.9,1.9,0,0,0,1.78-.19c1.27-1.24,2.34-.49,3,.4a1.78,1.78,0,0,1-.48,2.73c-1.23.63-2.43.5-3-1-.11-.28-.19-.63-.93-.41-.32,1.27-3.21,2.22-.38,4.29.49.36.24,1.95-.87,2.33-1.61.54-2.82,0-3.4-2-.39,1.66-2.34,2.55-.82,4.65a1.6,1.6,0,0,1-2,2.36c-2.11-1-3.22.14-4.65,1.11,1.69.59,2.36,1.84,1.42,3.3-.79,1.24-2.14,1.14-3.2,0-.65-.67-1.23-.74-1.8,0a2.85,2.85,0,0,1-2.63,1c-4-2.57-2.33.46-2.13,2.07.2,1.77-.56,3.36-2.34,2.51-2.06-1-3,.26-4.39,1.08a2.34,2.34,0,0,1,1.68,2.8c-.25,1.16-1.14,1.37-2.15,1.3a1.68,1.68,0,0,1-1.54-2.47c.77-1.83,0-3-1.08-4.19-.33,1.24-1.05,2.38-.33,3.87a1.88,1.88,0,0,1-.92,2.67c-.74.28-1.9.46-2.25-.41s-1.74-1.74-.13-2.86c.61-.43.29-1.35-.33-1.9a1.23,1.23,0,0,0-1.7-.17,1.91,1.91,0,0,1-3.29-.42,1.93,1.93,0,0,1,1-2.87C102.84,256.34,103.91,257.14,104.07,259.2Z"/><path class="cls-1" d="M166.75,120.6c1.41.23,2.63.59,2.47,2.34a1.62,1.62,0,0,1-1.21,1.62,2.09,2.09,0,0,1-2.81-1.7c-2.19,2-.64,5.2-2.29,7.35-.34.44,1.28,1.15-.16,1.22-.82,0-.19-1.11-.91-1.6-.2.87-.53,2.07.15,2.17,2.7.37,1.35,1.3.43,2.19-.68.66-1.11,1.19-.21,2.05.55.52,1.65.92,1.19,1.94s-1.93,1.27-2.85,1.22c-1.91-.12-2.61.1-1.37,2,.39.59-.8,7.67-1.39,8a3.59,3.59,0,0,1-2,.35c-.43-.08-.88-.48-.59-1.38.66-2.1.71-4.41,1.51-6.44.51-1.27,1.67-2.14-.13-3.2-.43-.26-.81-.76-.34-1.3a1.94,1.94,0,0,1,1.5-.72c1.6-.12,5,.61,2.18-3a1.56,1.56,0,0,1-.1-1.21A17.73,17.73,0,0,0,160,122.3c-.46-1.69,1.83-2,3.25-1.41.8.33,1.36.83,2.21.25,1-.69.2-1.36.1-2.11-.13-1.08-.47-2.26.29-3.32.24-.33,1-.46.53-1.16a1.32,1.32,0,0,0-1.63-.58,6.48,6.48,0,0,1-2.33.61c-1.28.08-1.8-.82-2.5-1.55,1-.69,1.27-2.67,2.88-2.18a5.08,5.08,0,0,0,4.08,0c1.22-.59,2,.45,2.11,1.44.2,1.66-.56,3.18.69,5C170.61,118.75,167.69,119.18,166.75,120.6Z"/><path class="cls-1" d="M124.31,113.16c1.31-1.38,2.29-4.59,4.63-1a2.34,2.34,0,0,1,.15.27c1.79-2.5,4.23-.45,6.2-1,1.37-.36,2.39-1.07,3.54.13q.85.89,1.56,0c1-1.28,2-2.16,3.36-.33.34.44,1.22.28,1.67-.29.94-1.21,1.87-.44,3-.26a31.17,31.17,0,0,0,8.54.59c2.78-.32,2.59,1.14,1.85,2.49-.55,1-.71,1.43.11,2.2s1.22,1.19,2.19.17a1.83,1.83,0,0,1,2.54.11c.87.75.63,1.8.45,2.64-.3,1.38-1.63.74-2.35.63a10,10,0,0,0-4.39,0,1.73,1.73,0,0,1-1.73-2.82c.54-.66,1.45-.84.44-1.7-.55-.47-.8-1.26-2-.77-2.61,1-5.3-1-8.13-.16a8.05,8.05,0,0,1-2.6.1c-2.49-.48-4.86.25-7.16,0-1.2-.1-2.16-1.49-3.22.27a.6.6,0,0,1-.58.08c-2.23-2-4.82.82-7.14-.55-.67-.39-1.57.23-2.36.4s-2.41,1-2.69-.85c-.17-1.1-.3-2.44,1.3-2.72,1.42-.25,2.49.16,2.48,1.9C123.93,112.83,124.13,113,124.31,113.16Z"/><path class="cls-1" d="M81.49,141.32c-2.15,1.82-3.77,3.54-3.65,6.42,0,1.18-1.07,2.34-2.89,1.88s-2.36.21-1.46,1.54,0,1.79-.45,2.55a2.06,2.06,0,0,1-2.67,1c-2.29-1.16-2.47.12-2.46,1.84,0,.93.16,2-.86,2.48s-1.36-.67-2-1.11c-.25-.18-.48-.4-.72-.6-1.44,2.64-4.18.36-6.09,1.63-1.66,1.12-3.71,0-5.54,0a64.73,64.73,0,0,0-8.25,0c-2.67.36-5.12-2.34-7.9,0-1,.84-1.16-1.69-2-2.71,3,1.1,6.12-1.41,9,.71.61.45,1,.26,1.09-.35s.66-.77.9-.58c2.47,2,5.48-1.32,7.91.86.6.54,1.06.45,1.35-.4a1.1,1.1,0,0,1,1.59-.46c2.4,1.53,5-1.2,7.43.4.81.52,1.59-.24,1.45-1.53-.23-2.07-.13-3.59,2.93-2.84a3.36,3.36,0,0,0,4.14-2.76c.11-.63.57-.63.93-.91,1.59-1.28,3.25-2.6,2.44-5.12-.61-1.9,1.51-1.5,2.16-2.36C78.8,142.06,80,140.81,81.49,141.32Z"/><path class="cls-1" d="M124.8,118.33c.29-1.66,1.1-3.35,3.09-2.35,1.3.66,2.19,2.14.65,3.7-.47.48-.17.94.25,1.33s.81.64,1.33.15a1.21,1.21,0,0,0,.44-1.57c-.58-1.55-1.34-3.25,1.66-3.22,1.73,0,1.77.77,1.76,2.08,0,3-1.31,6.06-.06,9.13a1.49,1.49,0,0,1-.77,1.88c-.9.5-1.54,0-2.19-.58s-1.46-2.2-2.3,0c-.48,1.24-1.39.15-2-.09-1.13-.44-2.2-3.25-3.28.11-.08.24-1.39.3-2-.26-.37-.34-.93-.73-.48-1.28s.91-1.52,1.88-1.46c.47,0,.91.45,1.39.55.73.16,1.19-.4,1.49-.92.13-.23-.12-.77-.34-1.07-.44-.6-.89-.41-1.58-.15-2.55.93-3.26.34-3-2.28.13-1.22.74-2.34-.48-3.56a1.66,1.66,0,0,1,.85-2.58c1.09-.36,2.35-.39,2.73,1.18C124,117.57,123.77,118.19,124.8,118.33Zm-.49,5.1c.8-.85,2.3-1.71,2.33-2a1.84,1.84,0,0,0-2.67-2C122.21,120.47,124.51,121.92,124.31,123.43Zm5.5.08c-.55.57-1.53.9-1.44,1.82.06.56.62,1.08,1,1.61.62-.62,1.55-1,1.49-2.14A1.44,1.44,0,0,0,129.81,123.51Z"/><path class="cls-1" d="M124.63,21.93c.85-.72,1.16-2.1,2.82-1.81s1.25,1.68,1.78,2.51c1.33.12.76-1,1-1.5a2,2,0,0,1,2.71-.84c1.11.38,1.11,1.45.93,2.39a1.46,1.46,0,0,1-2.11,1.19c-1.91-1.34-3.15.55-5.61.43,1.67.91,2.62,2.12,3.6,1.38,2.39-1.83,3.57-.6,4.75,1.84.91-1.81,2.07-3.24,3.8-1.92,1.54,1.17.43,2.56-.35,3.76l0,0c-2.72-1.08-6,.63-8.46-1.57-1.11-1-.72.43-.89.59a2.27,2.27,0,0,1-2.86.34c-1-.54-.57-1.82-1.13-2.63,2.14-1.4-.11-2.81,0-4.22Z"/><path class="cls-1" d="M99.29,23.18c.71-2.61,1.89-3.55,3.4-2.91s1.25,2.08.56,3.45a2.3,2.3,0,0,0,.15,2.09c.67,1.25.74,2.54-.81,3.09-1,.35-2.33.23-2.53-1.09s-.65-3.1,1.68-3.27c.18,0,.35-.18.52-.27-2-1.39-4-.43-6.07.11.13,1.56,3.09-.06,2.62,2.41-.29,1.54-.68,2.32-2.29,2.17A1.69,1.69,0,0,1,95,26.45c1.26-3.15.59-3.88-2.46-2.31a2.22,2.22,0,0,1-2.38-.5c-.6-.6-.45-1.78-.06-2.66a1.52,1.52,0,0,1,1.86-.8c1.35.36,2.47.88,3.94-.31C96.5,19.4,98.73,20.34,99.29,23.18Z"/><path class="cls-1" d="M20.38,130.38c.57.52,1.14,1.12,1.78,1.63,1.06.86.08,1.84-.27,2.1-1.3.95-1.11,1.5,0,2.44.53.45,1.11,1.48.65,2.24-.8,1.33-.31,2.19.53,3.22a2.61,2.61,0,0,1,.09,1.83c-.51,2.55-.2,3.08,2.65,2.93,1-.05,1.76.55,1.62.81-1.12,2,.18,3.19,1.23,4.51-1.26.27,1,2-.94,2.14s-3.5-1.43-3.07-2.51c1.52-3.86-1.52-2.59-2.85-2.67s-2.11-.81-1.57-1.46c2.46-2.94-.9-5.25-.64-8,.12-1.14-1.67-2.3.31-3.53.59-.37-.12-1.67-.37-2.57S19,131.24,20.38,130.38Z"/><path class="cls-1" d="M124.71,21.84c-1.13,1.37-3,2.41-.74,4.62.76.74.23,2.64-1.94,2.57-1.42,0-1.82-1.26-2.88-1.78-.61,1.48-1.69,2.29-3.25,1.5a1.83,1.83,0,0,1-.58-2.73c.83-1.29,2-1.11,3.19-.22C120,26.91,120.69,25,122,25a10.57,10.57,0,0,1-2.5-3.34c-1.16.24-.33,1.43-1.11,1.9a2.83,2.83,0,0,1-2.36.3c-.77-.23-1-1-1-1.77a1.71,1.71,0,0,1,1-1.78c1.14-.54,7.66.72,8.58,1.65Z"/><path class="cls-1" d="M110.16,148.55a5.68,5.68,0,0,0,6.19,3.12,3.12,3.12,0,0,1,2.48,1c.8.77,1.23.79,1.92,0,1.49-1.84,2.25-.7,2.69.81s0,3.12-.23,4.66c-.09.57-.64,1.24-1.32,1s-1-.65-1.1-1.57c-.14-1.48,1.13-4.67-3-2.51-1.42.74-4.45-.45-6.81-.5-1.23,0-1.57-2.3-1-2.89C110.92,150.56,110.2,149.66,110.16,148.55Z"/><path class="cls-1" d="M109.88,113.45c.1-1.82.63-3,2.39-2.65a13.87,13.87,0,0,0,4.68,0c.87-.09,2-.34,1.91,1.23-.1,1.17.46,2.63-1.27,3.12-1.22.35-1.83-.34-2.37-1.33-.28-.52.24-1.24-.67-1.66-.86,1.68-1.82,3.26-4.13,1.81-.88-.55-1.7.49-2.62.62s-1.92,1.15-2.52-.66,1-2.18,1.74-2.82c1.11-.92,1.49.33,1.85,1.2C109,112.57,109.27,112.77,109.88,113.45Z"/><path class="cls-1" d="M64.17,116.86c-.8,1.42-.9,3.12-3,2.73-1.37-.26-1.44-1.18-1.51-2.29-.09-1.3.61-1.91,1.61-1.45,2.39,1.12,5.15-1.17,7.41,1,.77.74,1.15-.45,1.73-.74,1-.51,2.07-.62,2.79.37a1.92,1.92,0,0,1-.11,2.56,1.86,1.86,0,0,1-2.76.11c-1-.93-1.25-1.15-2.57,0C66,120.74,64.75,119.05,64.17,116.86Z"/><path class="cls-1" d="M56.6,124.62c-.8-.14-1.85.46-2-1.18-.11-1.39-1-.19-1.51-.19-1,0-1.09,1.56-1.41,1.27-2-1.82-3.73-.25-5.63,0-1.32.18-1.56-1.11-1.43-2.23a1.53,1.53,0,0,1,2.25-1.38c1.45.79,2.68.08,3.91.15a35.43,35.43,0,0,0,6.43-.12c1.25-.16,1.19,1.35,1.26,2.41C58.58,125,57.45,124.54,56.6,124.62Z"/><path class="cls-1" d="M149.75,152.69c-1.07,1.78-2.13,3-4.2,1.6-1-.68-1.86.56-2.9.63-.74.05-1.41.86-2.1-.12a1.31,1.31,0,0,1-.07-1.71c.57-.59,1-1.89,2.16-1.17,1.31.83,2.34.15,3.46-.26,2.17-.79,4.7.81,6.78-1.15.43-.4.8,1,1.06,1.54a1.81,1.81,0,0,1-.58,2.49,2,2,0,0,1-2.56-.23A10.14,10.14,0,0,1,149.75,152.69Z"/><path class="cls-1" d="M23.82,118.35c1.67-3.27,2.51-3.42,5-.95A4.59,4.59,0,0,1,24.71,119c-1.69-.1-2.58.78-2.34,2.42.29,1.91-.66,2.91-2.13,3.69a1.83,1.83,0,0,1-.79-1.88c.24-1.86,2.47-3.64.05-5.63-.48-.4.21-1.44,1-1.65a2.12,2.12,0,0,1,2.53.62C23.41,117.07,22.88,118.05,23.82,118.35Z"/><path class="cls-1" d="M142.17,25.53c2.55-.07,2.26,1.53,1.41,2.85-.69,1.07-1.11,1.36.32,2.2,1.21.72.19,2.33-.24,3.18-.3.59-2.06.68-2.79-.17s-1.79-2.24-.46-3c1.48-.89,1.06-1.27.23-2.18a2,2,0,0,1,0-2.58C141,25.24,141.55,24.94,142.17,25.53Z"/><path class="cls-1" d="M147.18,25.5c.61.28,2-.32,1.75.78-.63,2.36-.29,4.63-.13,6.95,0,.11-.23,1.5-.9,1-.84-.6-2.05.45-2.69-.94a1.73,1.73,0,0,1,.25-2.11c1.25-1,1-1.62.24-2.85C144.58,26.56,145.35,25.35,147.18,25.5Z"/><path class="cls-1" d="M97.1,265.49c-1.21.16-1.84-.27-2.06-1a2.31,2.31,0,0,1,.2-2.08,1.7,1.7,0,0,1,2.21-.57c1.46,1.37,2.67.62,3.9-.14.79-.48,1.23-.16,1.8.36a2.19,2.19,0,0,1,.55,2.29c-.15.74-.76,1.41-1.56,1.15C100.31,264.91,98.53,264.39,97.1,265.49Z"/><path class="cls-1" d="M109.76,117.26c-.91.19-.8,1.13-1.27,1.63-1.06,1.15-2.09.62-3.32.14-1.48-.58,0-1.13-.07-1.62-.1-1.58,1.2-1.83,2.36-1.55s2.15.92,3.47.15c.77-.45,2.16-1.25,2.71.53.35,1.15.53,2.47-.85,2.91s-2.77.26-2.76-1.77C110,117.53,109.84,117.39,109.76,117.26Z"/><path class="cls-1" d="M81.73,9c.71.78,1.49,1.31,1.75,2s.57,2-.21,2.6a2.59,2.59,0,0,1-2.67,0,1.63,1.63,0,0,1-.7-2.18c.69-1.39,1-2.52,0-4a1.58,1.58,0,0,1,.95-2.3c1-.31,2.27-.3,2.64.93S83.64,8.77,81.73,9Z"/><path class="cls-1" d="M52.24,119.07c-1.39-.6-3.64-.44-2-3.06.37-.6.76-1.24-.12-2.07a1.79,1.79,0,0,1,.35-2.94,1.87,1.87,0,0,1,2.55.32c.81,1.05.81,2.42-.37,3-1.86.84.12.94.17,1.36C52.93,116.82,54.45,118.16,52.24,119.07Z"/><path class="cls-1" d="M83.07,23.34c-.06.9-.79,1.7.29,2.68a1.79,1.79,0,0,1-.49,2.71,1.92,1.92,0,0,1-2.56-.28c-.85-1-.86-2.37.28-3,1.73-.89.6-1.16-.12-1.65L80,23.32c-.12-1.23-.55-2.69,1.16-3.09,1.33-.32,2.52.05,2.59,1.8C82.91,22.19,82,22.3,83.07,23.34Z"/><path class="cls-1" d="M46.49,119c-.47-.75-2.34-.5-1.76-1.6.91-1.71.45-3-.08-4.6a1.48,1.48,0,0,1,1.06-2,2,2,0,0,1,2.29.49,2.45,2.45,0,0,1,.09,2.62c-.32.79-2.08,1.63,0,2.54a1.46,1.46,0,0,1,.24,1.39A7.25,7.25,0,0,1,46.49,119Z"/><path class="cls-1" d="M163.21,106.77c.73-.37,1.69.28,2.33-.73.18-.28,1.1-1.33,2-.39a3.45,3.45,0,0,1,.71,3.45c-.26.85-1.46.48-2.12.34-1-.2-1.78-.93-2.86-.13a1.5,1.5,0,0,1-2-.09,2.42,2.42,0,0,1,0-2A1.18,1.18,0,0,1,163.21,106.77Z"/><path class="cls-1" d="M11.27,120a1.11,1.11,0,0,1-1.2-.87,2.44,2.44,0,0,1,.94-2.74c.52-.4.89-.76,1.58-.22s-.1,2.21,1.5,1.45c.64-.31,2-.58.55-1.65,1-.59,1.7.51,2.6.47,1.23,0,.9.86.94,1.52A1.55,1.55,0,0,1,17,119.54a.92.92,0,0,1-.61,0C14.55,118.73,12.75,118.07,11.27,120Z"/><path class="cls-1" d="M135.72,156.34a2.54,2.54,0,0,0-.29-1.75c-.38-1.05.41-1.9,1.08-2.61s1.31.07,1.74.54c.57.63,2,1.15.47,2.31a1.5,1.5,0,0,0-.29,1.41c.71,1.61-.18,2.8-1.43,2.8C135.92,159.05,135.23,157.69,135.72,156.34Z"/><path class="cls-1" d="M16.19,133.44c-.09-.11-1.34,1-1.77-.35-.5-1.62,1-1.12,1.65-1.49,1.65-.92.77-1.75-.06-2.57s-1.7-1.56-1-2.72c.49-.82,1.58-.63,2.26-.27,1.23.66,1.18,1.82.62,3a2.66,2.66,0,0,0,.22,2.87C19,133.19,19.6,134.7,16.19,133.44Z"/><path class="cls-1" d="M125.72,155.72c-.57-1.39-.79-3.8,1.43-3.81,1.9,0,1.2,2.49,1.29,4.15s-.07,2.95-1.36,3C125.63,159.09,125.35,157.53,125.72,155.72Z"/><path class="cls-1" d="M130.8,156c-.44-1.46-.94-4,1.24-4.06s1.29,2.6,1.45,4.3-.21,2.83-1.55,2.82C130.9,159,130.14,157.67,130.8,156Z"/><path class="cls-1" d="M17.57,112.89a5.75,5.75,0,0,1-1,1c-1.75,1.1-3.6.35-5.28-.09-.64-.17-2-.93-1.56-2.35,1.05,1.2,2.4-1.56,3.45.29.62,1.08,1.07.66,1.51-.27.25-.53.83-1,1.5-.42C16.72,111.53,17.43,111.88,17.57,112.89Z"/><path class="cls-1" d="M83.07,23.34c-1-1-.16-1.15.63-1.31a9.81,9.81,0,0,1,2.13-1.72,1.89,1.89,0,0,1,2.52.53,2.11,2.11,0,0,1-.12,2.58c-.62.79-1.29,1.27-2.22.5A3.88,3.88,0,0,0,83.07,23.34Z"/><path class="cls-1" d="M28.64,152.54c3.93-1,3.76-1,3.76,2.76,0,.63-.63,1.55.12,2.37.53.59-.31,1.06-.78,1.41s-.75,0-1.07-.28c-.52-.48-.81-1-.13-1.53,1.59-1.18.16-1.47-.36-2.35C29.81,154.31,30,153.24,28.64,152.54Z"/><path class="cls-1" d="M58.47,117.47c.06,1.37-.47,2.16-2,2.11-1.32,0-2-.71-1.78-2,.19-1.09.13-2.54,2-2.47C58.26,115.22,58.54,116.18,58.47,117.47Z"/><path class="cls-1" d="M84.87,258.79c-.07-1.39.51-2.11,2-2.05,1.31,0,1.82.66,1.81,1.94A2.15,2.15,0,0,1,86.55,261C84.8,261.23,84.88,260,84.87,258.79Z"/><path class="cls-1" d="M77.05,20.19c1.32-.26,1.48.41,1.59,1.55.19,1.88-1.23,2.46-2.37,2.71-1.34.28-1.43-1.05-1.47-2.14C74.76,20.7,75.46,20,77.05,20.19Z"/><path class="cls-1" d="M82.2,15.15c1.86-.68,1.7,1.33,1.69,2,0,1.38-1.21,1.78-2.59,1.82s-1.48-.54-1.48-1.65C79.82,15.7,80.48,15,82.2,15.15Z"/><path class="cls-1" d="M23.52,47.18a2.07,2.07,0,0,1-2.3,1.94c-1.32,0-1.75-.72-1.79-2-.08-1.86,1.44-1.92,2.49-2A1.58,1.58,0,0,1,23.52,47.18Z"/><path class="cls-1" d="M139.6,122a6.49,6.49,0,0,1,1.69-1.09c1-.29,2.16-.31,2.61.92a1.91,1.91,0,0,1-.35,2.28,2,2,0,0,1-2.76,0,13,13,0,0,1-1.19-1.37Z"/><path class="cls-1" d="M91.73,256.71c1.26,0,2,.52,2,1.83a2.27,2.27,0,0,1-2.15,2.52c-1.46.09-1.46-1.39-1.6-2.41C89.77,257.38,90.5,256.76,91.73,256.71Z"/><path class="cls-1" d="M27.14,38.89a5,5,0,0,1,1.15,3.36c-.08,1.1-.49,1.76-1.64,1.83-.89.06-1.77-.07-2-1s-.38-2.31.87-2.62c1-.26,1.67-.53,1.75-1.64Z"/><path class="cls-1" d="M135.2,233.51c0-1.45.74-2,2-1.94,1.48,0,1.94.86,1.83,2.21s-.85,2-2.36,1.78S135.42,234.25,135.2,233.51Z"/><path class="cls-1" d="M75.42,120.32l.1,0a4.18,4.18,0,0,1-.71-2.9c.15-1.11.78-1.84,1.85-1.53.83.24,2.12.34,1.94,1.85-.1.87.31,2.07-1.25,1.84C76.49,119.43,76.08,120.12,75.42,120.32Z"/><path class="cls-1" d="M88.67,12c-.08,1-.37,2.37-1.49,2.29A2.22,2.22,0,0,1,84.86,12c.08-1.26.56-1.9,1.86-1.91S88.66,10.6,88.67,12Z"/><path class="cls-1" d="M147.4,226.56c1.24-.21,1.7.21,1.69,1.47,0,1.51-.45,2.42-2.09,2.27-.86-.09-1.95-.15-1.88-1.36S145.52,226.2,147.4,226.56Z"/><path class="cls-1" d="M149.06,223.83c0,.88,0,1.95-1.25,1.69s-2.77-.31-2.55-2.33c.15-1.35.89-1.72,2.08-1.69C148.94,221.54,149.15,222.57,149.06,223.83Z"/><path class="cls-1" d="M73.56,26.81c.06,1.42-.44,2.12-1.77,2.18s-2.36-.67-2.33-1.72c0-.71.41-2.33,1.59-2.27S73.72,25.1,73.56,26.81Z"/><path class="cls-1" d="M104,16.16c-.25,1.5-.31,2.81-2.08,2.77-1.27,0-1.91-.55-1.93-1.85s.63-2.29,1.78-2.23A2.64,2.64,0,0,1,104,16.16Z"/><path class="cls-1" d="M79.08,16.63c-.6,1.26-.89,2.45-2.43,2.3-1.22-.13-2.19-.66-2.05-1.91a2,2,0,0,1,2.32-1.91C78.15,15.2,78.45,16.14,79.08,16.63Z"/><path class="cls-1" d="M99.27,16.65c-.82,1.14-.84,2.76-2.47,2.49a2,2,0,0,1-1.87-2.35c.15-1.34.92-1.68,2.12-1.67S98.57,16.13,99.27,16.65Z"/><path class="cls-1" d="M83.82,259.72a9.71,9.71,0,0,1-1.93.77c-1.46.31-2.12-.8-2.31-1.9s.74-1.69,1.81-1.84C83.25,256.47,83.66,257.68,83.82,259.72Z"/><path class="cls-1" d="M74.71,259.36c.2-1.61.11-2.84,1.51-2.77,1.2.05,2.47.3,2.39,2.08-.06,1.53-.91,1.82-2.21,1.88S74.49,260.08,74.71,259.36Z"/><path class="cls-1" d="M138,29.36c.33.51.88,1,.94,1.51.11,1.16.53,2.64-1.13,3.08-1,.27-2.23.19-2.52-1.09-.33-1.46,0-2.67,1.94-2.7.27,0,.54-.54.81-.83Z"/><path class="cls-1" d="M91.73,261.75c1.36,0,2.4.83,2.29,1.67-.13,1-.71,2.36-2.43,2.15-1.34-.17-1.71-.88-1.68-2.07A1.58,1.58,0,0,1,91.73,261.75Z"/><path class="cls-1" d="M157.54,226.93c1-.22,2.25-.18,2,1.22a2.25,2.25,0,0,1-2.43,2.2c-1.52-.15-1.93-1-1.77-2.27S156.1,226.25,157.54,226.93Z"/><path class="cls-1" d="M63.51,17.11c.24,1.36-.95,2-2,2.06-1.18.1-1.82-.87-1.83-2.14s.53-1.89,1.84-1.9S63.49,15.63,63.51,17.11Z"/><path class="cls-1" d="M142.23,231.57c1.23,0,1.81.62,1.8,1.92,0,1.58-.93,1.83-2.25,1.89s-1.59-.43-1.56-1.62C140.26,232.4,140.61,231.51,142.23,231.57Z"/><path class="cls-1" d="M89.17,264c-.67.9-1.34,1.78-2.71,1.6s-1.64-1-1.57-2.16c.08-1.36.91-1.63,2.09-1.65C88.55,261.71,88.47,263.21,89.17,264Z"/><path class="cls-1" d="M46.18,24.83A11.51,11.51,0,0,1,45,23.37c-.65-1.09-.81-2.27.44-3a1.84,1.84,0,0,1,2.72.62,2,2,0,0,1-.85,2.89,9.25,9.25,0,0,0-1.21.87S46.18,24.83,46.18,24.83Z"/><path class="cls-1" d="M116.9,10.1c1.29,0,1.94.52,2,1.81a1.68,1.68,0,0,1-1.76,2c-2,.17-2.19-1.37-2.22-2.56C114.86,10.53,116,10.05,116.9,10.1Z"/><path class="cls-1" d="M56.49,241.61a1.71,1.71,0,0,1,2,1.82,2,2,0,0,1-2,2.24c-1.17.11-1.8-.87-1.82-2.14A1.66,1.66,0,0,1,56.49,241.61Z"/><path class="cls-1" d="M126.63,110c-.52-.55-1.47-.87-1.48-2.11s.24-2,1.6-2.12,2.13.36,2.2,1.87S127.89,109.41,126.63,110Z"/><path class="cls-1" d="M28.59,33a2.94,2.94,0,0,1-2.19,1c-1.27,0-1.89-.53-1.92-1.82,0-1.46.67-2,2.07-2C28.39,30.21,28.1,31.76,28.59,33Z"/><path class="cls-1" d="M113.82,12.1c.15,1.16-1,2.29-1.57,2.18-1-.18-2.42-.65-2.23-2.39.14-1.3.73-1.81,2-1.8S113.86,10.75,113.82,12.1Z"/><path class="cls-1" d="M92.87,14.06c-2-.14-3.17-.54-3-2.38.16-1.34,1-1.64,2.15-1.57,1.35.08,1.69.9,1.63,2.07A2.35,2.35,0,0,1,92.87,14.06Z"/><path class="cls-1" d="M103.94,8.05a8.29,8.29,0,0,1-1.89.75A1.55,1.55,0,0,1,100,7.2c-.07-1.17.24-2,1.58-2.14C103.43,4.84,103.8,6,103.94,8.05Z"/><path class="cls-1" d="M113.83,17.24c.19,1.48-1.3,2-2.1,2-1,0-1.78-1.11-1.69-2.43s.82-1.74,2-1.69S113.88,15.91,113.83,17.24Z"/><path class="cls-1" d="M98.73,7A1.59,1.59,0,0,1,97,8.86c-1.31.06-2.38-.63-2.34-1.73A2,2,0,0,1,96.79,5C98.05,5.11,98.71,5.58,98.73,7Z"/><path class="cls-1" d="M139.6,122v.75c-.94,2-2.59,1.8-4,.89-.91-.59-.55-1.82.23-2.56C137.51,119.51,138.47,121.2,139.6,122Z"/><path class="cls-1" d="M51.37,34c-1,0-1.71-.45-1.73-1.77,0-1,.31-2.31,1.13-2.27,1.08.07,2.79.13,2.68,2.15C53.38,33.37,52.88,34,51.37,34Z"/><path class="cls-1" d="M107,29c-1.56.06-2-.8-2-2.17,0-1.16.24-1.7,1.54-1.64s2.26.29,2.27,1.86C108.81,28.33,108.26,29,107,29Z"/><path class="cls-1" d="M31.6,25.18c1.74-.28,1.76,1.44,1.91,2.59.1.76-1,1.12-1.8,1.19-1.33.13-2.18-.3-2.2-1.82C29.49,25.89,30,25.22,31.6,25.18Z"/><path class="cls-1" d="M73.57,258.55c0,1.53-.78,2-2,2-1.62,0-1.7-1.08-1.79-2.34-.09-1.41.64-1.46,1.71-1.46C72.88,256.72,73.65,257.24,73.57,258.55Z"/><path class="cls-1" d="M97.17,260.51c-1.53.08-2.28-.49-2.23-2s.78-1.8,2-1.78c1.62,0,1.7,1.08,1.78,2.34S98.14,260.66,97.17,260.51Z"/><path class="cls-1" d="M78.6,2.08c0,1.33-.81,1.78-2,1.73s-1.78-.81-1.74-2S75.63,0,76.86,0,78.65.85,78.6,2.08Z"/><path class="cls-1" d="M142.07,260.52c-1.15,0-1.82-.53-1.83-1.85s.53-1.93,1.85-1.94,1.92.53,1.94,1.84S143.49,260.52,142.07,260.52Z"/><path class="cls-1" d="M103.79,1.69c-.08,1.72-.83,2.17-2.07,2.12S99.94,3,100,1.77,100.79,0,102,0,103.79.87,103.79,1.69Z"/><path class="cls-1" d="M149.06,258.46c.06,1.23-.38,2-1.74,2.05s-2-.38-2-1.74.38-2,1.74-2S149,257.14,149.06,258.46Z"/><path class="cls-1" d="M81.67,261.75c1.28,0,2,.53,2,1.86s-.53,1.92-1.85,1.94-1.92-.53-1.94-1.84A1.68,1.68,0,0,1,81.67,261.75Z"/><path class="cls-1" d="M116.91,261.75c1.27,0,1.94.54,2,1.86s-.53,1.92-1.84,1.94-1.93-.53-1.94-1.84A1.68,1.68,0,0,1,116.91,261.75Z"/><path class="cls-1" d="M123.9,263.72c0,1.15-.53,1.82-1.85,1.83s-1.93-.53-1.94-1.85.53-1.92,1.84-1.94S123.9,262.3,123.9,263.72Z"/><path class="cls-1" d="M128.93,263.73c0,1.14-.52,1.81-1.84,1.82s-1.93-.53-2-1.85.53-1.92,1.85-1.94S128.93,262.3,128.93,263.73Z"/><path class="cls-1" d="M132.79,265.55c-2.07,0-2.63-.66-2.61-1.94s.66-1.86,1.94-1.85,1.85.67,1.84,1.95S133.25,265.54,132.79,265.55Z"/><path class="cls-1" d="M137,265.55c-1.15,0-1.82-.52-1.83-1.84s.53-1.93,1.84-1.95,1.93.53,1.95,1.85S138.46,265.55,137,265.55Z"/><path class="cls-1" d="M68.53,6.24c0,2.08-.67,2.63-2,2.61s-1.85-.68-1.84-1.95.68-1.84,2-1.84S68.52,5.79,68.53,6.24Z"/><path class="cls-1" d="M73.56,6.19c0,2.11-.66,2.68-1.94,2.66s-1.86-.67-1.84-1.94.66-1.85,1.94-1.85S73.55,5.78,73.56,6.19Z"/><path class="cls-1" d="M78.6,7c0,1.15-.53,1.82-1.85,1.83S74.82,8.32,74.81,7s.52-1.92,1.84-1.94S78.6,5.6,78.6,7Z"/><path class="cls-1" d="M86.93,5.06c1.32.05,1.78.81,1.73,2.05s-.81,1.78-2,1.74-1.77-.82-1.73-2S85.7,5,86.93,5.06Z"/><path class="cls-1" d="M89.91,7.61c0-2,.67-2.57,2-2.55s1.85.68,1.84,2-.68,1.84-2,1.84S89.92,8.12,89.91,7.61Z"/><path class="cls-1" d="M106.74,8.85c-1.32,0-1.78-.81-1.73-2s.82-1.78,2-1.74,1.77.82,1.73,2.05S108,8.91,106.74,8.85Z"/><path class="cls-1" d="M113.83,6.19c0,2.12-.66,2.68-1.94,2.66S110,8.18,110,6.91s.67-1.85,1.95-1.85S113.82,5.78,113.83,6.19Z"/><path class="cls-1" d="M116.35,5.06c2,0,2.53.67,2.51,2s-.67,1.85-2,1.84-1.84-.68-1.84-1.95S115.8,5.07,116.35,5.06Z"/><path class="cls-1" d="M144,262.63c.11,2.1-.33,2.87-1.69,2.92s-2-.39-2-1.74.38-2,1.73-2.05S143.93,262.24,144,262.63Z"/><path class="cls-1" d="M51.7,13.88c-1.24.06-2-.38-2.05-1.74s.38-2,1.73-2,2,.38,2,1.74S53,13.83,51.7,13.88Z"/><path class="cls-1" d="M56.5,13.88c-1.14,0-1.81-.52-1.82-1.84s.53-1.93,1.84-1.94,1.93.52,1.94,1.84S57.92,13.89,56.5,13.88Z"/><path class="cls-1" d="M63.52,11.83c-.07,1.64-.83,2.1-2.07,2.05s-1.78-.81-1.74-2.05.81-1.78,2-1.73A1.58,1.58,0,0,1,63.52,11.83Z"/><path class="cls-1" d="M66.55,10.09c1.44,0,2,.67,2,1.95s-.68,1.86-2,1.84-1.85-.67-1.84-2S65.43,10.06,66.55,10.09Z"/><path class="cls-1" d="M73.56,11.83c.06,1.23-.38,2-1.74,2.05s-2-.38-2-1.74.38-2,1.74-2S73.52,10.51,73.56,11.83Z"/><path class="cls-1" d="M76.79,10.09c1.12,0,1.79.52,1.81,1.84s-.52,1.94-1.84,2-1.93-.51-2-1.83S75.34,10.1,76.79,10.09Z"/><path class="cls-1" d="M98.73,11.93c0,1.41-.66,2-1.94,2s-1.86-.66-1.85-1.94.67-1.85,2-1.84S98.76,10.77,98.73,11.93Z"/><path class="cls-1" d="M101.16,10.09c2.06,0,2.62.67,2.6,1.95s-.66,1.86-1.94,1.84S100,13.22,100,11.94,100.69,10.11,101.16,10.09Z"/><path class="cls-1" d="M106.82,10.09c1.44,0,2,.67,2,1.95s-.68,1.86-2,1.84-1.85-.67-1.84-2S105.7,10.06,106.82,10.09Z"/><path class="cls-1" d="M121.93,13.89c-1.14,0-1.81-.53-1.82-1.85s.53-1.93,1.84-1.94,1.93.52,2,1.84S123.36,13.89,121.93,13.89Z"/><path class="cls-1" d="M127,10.09c1.42,0,2,.67,2,1.95s-.67,1.86-1.94,1.84-1.86-.66-1.85-1.94S125.82,10.06,127,10.09Z"/><path class="cls-1" d="M88.66,268.53c.06,1.23-.38,2-1.74,2.05s-2-.38-2-1.74.38-2,1.74-2S88.61,267.21,88.66,268.53Z"/><path class="cls-1" d="M41.31,15.13c1.23-.06,2,.38,2,1.74s-.38,2-1.74,2-2-.38-2-1.73S40,15.18,41.31,15.13Z"/><path class="cls-1" d="M48.35,16c.11,2.09-.34,2.86-1.69,2.9s-2-.38-2-1.73.39-2,1.74-2S48.29,15.61,48.35,16Z"/><path class="cls-1" d="M53.43,17.09c0,1.15-.52,1.81-1.84,1.82s-1.93-.52-2-1.84.53-1.92,1.85-1.94S53.43,15.67,53.43,17.09Z"/><path class="cls-1" d="M86.61,18.92c-1.32-.05-1.78-.81-1.73-2.05s.81-1.78,2-1.74,1.78.81,1.74,2S87.84,19,86.61,18.92Z"/><path class="cls-1" d="M93.71,17c0,1.28-.54,1.94-1.86,1.95s-1.93-.52-1.94-1.84.53-1.92,1.84-1.94A1.68,1.68,0,0,1,93.71,17Z"/><path class="cls-1" d="M106.8,18.92c-1.1,0-1.78-.52-1.79-1.84s.52-1.94,1.84-1.95,1.93.52,2,1.84S108.26,18.91,106.8,18.92Z"/><path class="cls-1" d="M118.86,17c0,1.4-.66,2-1.94,2s-1.86-.67-1.84-2,.66-1.85,1.94-1.84S118.9,15.81,118.86,17Z"/><path class="cls-1" d="M123.9,16.86c.06,1.24-.39,2-1.74,2.05s-2-.38-2-1.73.39-2,1.74-2S123.85,15.54,123.9,16.86Z"/><path class="cls-1" d="M127.69,18.92c-2,0-2.56-.66-2.55-2s.67-1.86,2-1.84,1.84.67,1.84,1.94S128.21,18.91,127.69,18.92Z"/><path class="cls-1" d="M134,17c0,1.28-.53,1.95-1.85,2s-1.94-.52-1.95-1.84.51-1.93,1.83-1.95A1.69,1.69,0,0,1,134,17Z"/><path class="cls-1" d="M91.88,266.79c1.14,0,1.8.53,1.82,1.85s-.53,1.93-1.85,1.94-1.92-.52-1.94-1.84S90.45,266.79,91.88,266.79Z"/><path class="cls-1" d="M98.73,268.75c0,1.15-.52,1.82-1.84,1.83s-1.93-.53-2-1.84.53-1.93,1.85-1.94S98.73,267.34,98.73,268.75Z"/><path class="cls-1" d="M103.76,268.53c.06,1.23-.38,2-1.74,2.05s-2-.38-2-1.74.38-2,1.74-2S103.72,267.21,103.76,268.53Z"/><path class="cls-1" d="M31.46,24c-1.41,0-2-.66-1.95-1.94s.67-1.86,1.94-1.85,1.86.67,1.85,1.95S32.62,24,31.46,24Z"/><path class="cls-1" d="M38.33,22.14c0,1.12-.51,1.79-1.84,1.81s-1.93-.52-2-1.84.52-1.93,1.84-1.95S38.33,20.69,38.33,22.14Z"/><path class="cls-1" d="M41.71,24c-1.72-.07-2.18-.83-2.13-2.07s.81-1.78,2.05-1.73,1.77.81,1.73,2S42.52,24,41.71,24Z"/><path class="cls-1" d="M108.8,22.15c0,1.11-.52,1.79-1.84,1.8S105,23.43,105,22.11s.52-1.93,1.84-1.95S108.79,20.7,108.8,22.15Z"/><path class="cls-1" d="M113.83,22.22c0,1.32-.81,1.78-2,1.73s-1.78-.82-1.73-2.05.81-1.78,2-1.74S113.89,21,113.83,22.22Z"/><path class="cls-1" d="M139,21.89c.06,1.24-.39,2-1.74,2.06s-2-.39-2-1.74.39-2,1.74-2.05S139,20.57,139,21.89Z"/><path class="cls-1" d="M144,22c0,1.43-.67,2-1.95,2s-1.85-.68-1.84-1.95.68-1.85,1.95-1.84S144.06,20.85,144,22Z"/><path class="cls-1" d="M108.8,268.78c0,1.11-.52,1.79-1.84,1.8s-1.93-.52-1.95-1.84.52-1.93,1.84-1.95S108.8,267.33,108.8,268.78Z"/><path class="cls-1" d="M154.1,218.19c.05,1.24-.39,2-1.74,2.06s-2-.39-2.05-1.74.38-2,1.74-2S154.05,216.87,154.1,218.19Z"/><path class="cls-1" d="M147.1,216.46c1.42,0,2,.66,2,1.94s-.66,1.86-1.94,1.85-1.85-.67-1.84-1.94S146,216.43,147.1,216.46Z"/><path class="cls-1" d="M142.3,216.46c1.32,0,1.78.81,1.73,2s-.82,1.78-2.05,1.74-1.78-.82-1.73-2.05S141.07,216.41,142.3,216.46Z"/><path class="cls-1" d="M28.26,26.93c.06,1.23-.38,2-1.74,2.05s-2-.38-2-1.74.38-2,1.74-2S28.21,25.61,28.26,26.93Z"/><path class="cls-1" d="M78.6,27.25c0,1.32-.81,1.78-2,1.73s-1.78-.81-1.74-2.05.82-1.77,2-1.73S78.65,26,78.6,27.25Z"/><path class="cls-1" d="M88.68,27c0,1.28-.54,1.95-1.86,2s-1.93-.53-1.94-1.84.53-1.93,1.84-1.94A1.68,1.68,0,0,1,88.68,27Z"/><path class="cls-1" d="M91.74,25.19c1.41,0,2,.66,2,1.95S93,29,91.75,29,89.9,28.32,89.91,27,90.59,25.16,91.74,25.19Z"/><path class="cls-1" d="M111.76,25.17c1.66.08,2.12.83,2.07,2.07S113,29,111.78,29s-1.78-.81-1.73-2.05A1.58,1.58,0,0,1,111.76,25.17Z"/><path class="cls-1" d="M113.83,268.64c0,1.4-.66,2-1.94,1.94s-1.86-.66-1.85-1.94.67-1.85,1.95-1.84S113.86,267.47,113.83,268.64Z"/><path class="cls-1" d="M128.93,268.85c-.05,1.32-.81,1.78-2.05,1.73s-1.78-.81-1.73-2.05.81-1.77,2-1.73S129,267.62,128.93,268.85Z"/><path class="cls-1" d="M132.23,270.58c-1.23.06-2-.38-2-1.74s.38-2,1.74-2,2,.38,2,1.74S133.55,270.53,132.23,270.58Z"/><path class="cls-1" d="M46.58,30.23c1.14,0,1.8.52,1.82,1.84s-.53,1.93-1.85,2-1.92-.53-1.94-1.85S45.15,30.23,46.58,30.23Z"/><path class="cls-1" d="M63.45,31.12c.11,2.08-.34,2.85-1.69,2.89s-2-.38-2-1.73.39-2,1.74-2.05S63.39,30.71,63.45,31.12Z"/><path class="cls-1" d="M139,268.61c0,1.44-.67,2-1.95,2s-1.85-.67-1.84-1.95.68-1.85,1.95-1.83S139,267.48,139,268.61Z"/><path class="cls-1" d="M71.51,30.23c1.23-.06,2,.38,2,1.74s-.38,2-1.74,2-2-.38-2-1.73S70.19,30.28,71.51,30.23Z"/><path class="cls-1" d="M144,267.67c.11,2.09-.33,2.86-1.69,2.91s-2-.38-2-1.74.38-2,1.73-2S143.93,267.27,144,267.67Z"/><path class="cls-1" d="M118.86,274.25c0,1-.81,1.42-2,1.37s-1.78-.82-1.73-2.05.79-1.78,2-1.74S118.89,272.68,118.86,274.25Z"/><path class="cls-1" d="M123.9,273.64c0,1.44-.67,2-2,2s-1.86-.68-1.84-1.95.68-1.86,2-1.84S123.93,272.52,123.9,273.64Z"/><path class="cls-1" d="M154.1,213.41c0,1.12-.52,1.79-1.84,1.8s-1.93-.51-1.95-1.83.52-1.93,1.84-1.95S154.1,212,154.1,213.41Z"/><path class="cls-1" d="M147.33,211.43c1.32,0,1.78.8,1.73,2s-.81,1.78-2.05,1.74-1.77-.82-1.73-2.05S146.1,211.37,147.33,211.43Z"/><path class="cls-1" d="M128.88,272.72c.11,2.08-.33,2.85-1.69,2.89s-2-.38-2-1.74.38-2,1.73-2S128.82,272.31,128.88,272.72Z"/><path class="cls-1" d="M134,273.67c0,1.4-.66,2-1.94,1.95s-1.86-.67-1.84-1.95.66-1.85,1.94-1.84S134,272.51,134,273.67Z"/><path class="cls-1" d="M111.87,34c-1.15,0-1.82-.53-1.83-1.85s.53-1.93,1.85-1.94,1.92.53,1.94,1.84S113.29,34,111.87,34Z"/><path class="cls-1" d="M118.86,32.19c0,1.15-.52,1.81-1.84,1.82s-1.93-.52-1.94-1.84.52-1.93,1.84-1.94S118.86,30.77,118.86,32.19Z"/><path class="cls-1" d="M137.18,271.83c1.14,0,1.8.52,1.82,1.84s-.53,1.93-1.85,1.95-1.92-.53-1.94-1.85S135.75,271.83,137.18,271.83Z"/><path class="cls-1" d="M122.08,276.86c1.14,0,1.8.53,1.82,1.85s-.53,1.93-1.85,1.94-1.92-.53-1.94-1.85S120.65,276.86,122.08,276.86Z"/><path class="cls-1" d="M130.17,32.77c0-2,.68-2.56,2-2.54s1.85.68,1.83,1.95S133.29,34,132,34,130.19,33.29,130.17,32.77Z"/><path class="cls-1" d="M152,30.23c1.24-.06,2,.38,2.05,1.74s-.38,2-1.73,2-2-.38-2.05-1.73S150.72,30.28,152,30.23Z"/><path class="cls-1" d="M126.94,276.86c1.45,0,2,.67,2,1.95s-.68,1.86-2,1.84-1.85-.68-1.84-1.95S125.83,276.83,126.94,276.86Z"/><path class="cls-1" d="M23.23,37c.06,1.24-.38,2-1.74,2.06s-2-.39-2-1.74.38-2,1.73-2.05S23.18,35.67,23.23,37Z"/><path class="cls-1" d="M38.34,37.08c0,1.28-.52,2-1.85,2s-1.93-.52-2-1.84.52-1.93,1.84-2A1.68,1.68,0,0,1,38.34,37.08Z"/><path class="cls-1" d="M134,278.59c.06,1.24-.38,2-1.74,2.06s-2-.39-2-1.74.38-2,1.74-2.05S133.91,277.27,134,278.59Z"/><path class="cls-1" d="M126.94,281.89c1.45,0,2,.67,2,1.95s-.68,1.86-2,1.84-1.85-.67-1.84-1.95S125.83,281.86,126.94,281.89Z"/><path class="cls-1" d="M152.36,206.39c1.33.06,1.78.81,1.73,2.05s-.81,1.78-2,1.74-1.78-.81-1.74-2S151.13,206.34,152.36,206.39Z"/><path class="cls-1" d="M147.33,210.18c-1.23.06-2-.38-2.05-1.74s.38-2,1.74-2,2,.38,2,1.74S148.65,210.13,147.33,210.18Z"/><path class="cls-1" d="M144,37.1c0,1.41-.66,2-1.94,1.95s-1.86-.67-1.85-1.94.67-1.86,1.95-1.85S144.06,35.94,144,37.1Z"/><path class="cls-1" d="M147.1,35.26c1.42,0,2,.66,2,2s-.66,1.85-1.94,1.84-1.85-.67-1.84-1.94S146,35.23,147.1,35.26Z"/><path class="cls-1" d="M152.14,35.26c1.41,0,2,.66,2,2s-.67,1.85-1.95,1.84-1.85-.67-1.84-1.94S151,35.23,152.14,35.26Z"/><path class="cls-1" d="M23.51,41.38c-.41,1.24-.22,2.76-2.08,2.71-1.27,0-1.92-.48-2-1.82-.08-1.65,1.21-1.7,2.21-1.92S23,40.9,23.51,41.38Z"/><path class="cls-1" d="M113.83,208.36c0,1.14-.52,1.81-1.84,1.82s-1.93-.53-1.95-1.84.53-1.93,1.85-2S113.83,206.94,113.83,208.36Z"/><path class="cls-1" d="M150.31,42.26c0-1.43.67-2,1.95-2s1.85.67,1.84,2-.68,1.84-1.95,1.83S150.28,43.4,150.31,42.26Z"/><path class="cls-1" d="M157.31,40.29c1.14,0,1.81.53,1.82,1.85s-.53,1.93-1.85,1.94-1.92-.52-1.94-1.84S155.88,40.29,157.31,40.29Z"/><path class="cls-1" d="M26.31,49.15c-1.59,0-1.79-1-1.86-2.31s.49-1.57,1.64-1.53,2.24.22,2.11,1.61C28.11,47.94,27.84,49.18,26.31,49.15Z"/><path class="cls-1" d="M152.26,49.12c-1.41,0-2-.66-1.95-1.95s.67-1.85,1.94-1.84,1.86.67,1.85,1.94S153.42,49.15,152.26,49.12Z"/><path class="cls-1" d="M157.29,49.12c-1.4,0-2-.66-1.95-1.95s.67-1.85,1.95-1.84,1.85.67,1.84,1.94S158.45,49.15,157.29,49.12Z"/><path class="cls-1" d="M157.08,201.36c1.23-.06,2,.39,2,1.74s-.39,2-1.74,2.05-2-.38-2-1.74S155.75,201.41,157.08,201.36Z"/><path class="cls-1" d="M16.38,54.16c-1.28,0-2-.52-2-1.85s.52-1.93,1.84-2,1.93.52,1.95,1.84A1.68,1.68,0,0,1,16.38,54.16Z"/><path class="cls-1" d="M23.23,52.19c0,1.42-.66,2-1.94,2s-1.86-.67-1.85-1.94.67-1.86,1.94-1.85S23.26,51,23.23,52.19Z"/><path class="cls-1" d="M157.32,50.36c1.12,0,1.8.52,1.81,1.84s-.52,1.93-1.84,1.95-1.93-.52-1.95-1.84S155.88,50.37,157.32,50.36Z"/><path class="cls-1" d="M18.2,56.55c0,2.09-.66,2.65-1.95,2.63s-1.85-.66-1.84-1.94.67-1.85,1.94-1.85S18.19,56.11,18.2,56.55Z"/><path class="cls-1" d="M41.38,124.62c-1.12,0-1.79-.52-1.8-1.84s.52-1.94,1.83-2,1.93.52,2,1.84S42.83,124.61,41.38,124.62Z"/><path class="cls-1" d="M157.47,59.21c-1.72-.08-2.17-.83-2.13-2.08s.82-1.78,2-1.73,1.78.81,1.74,2S158.28,59.21,157.47,59.21Z"/><path class="cls-1" d="M18.2,62.26c0,1.41-.66,2-1.95,2s-1.85-.67-1.84-1.95.67-1.85,1.94-1.84S18.23,61.11,18.2,62.26Z"/><path class="cls-1" d="M156.62,60.42c2,0,2.53.68,2.51,2s-.68,1.85-1.95,1.83-1.84-.67-1.84-1.94S156.07,60.44,156.62,60.42Z"/><path class="cls-1" d="M163.42,65c-.17,1.51,2.1,3.22-.53,4.17a1.74,1.74,0,0,1-2.47-1.14C159.79,65.67,161.74,65.52,163.42,65Z"/><path class="cls-1" d="M16.39,65.46c1.12,0,1.79.52,1.81,1.84s-.52,1.93-1.84,2-1.93-.52-1.95-1.84S14.94,65.47,16.39,65.46Z"/><path class="cls-1" d="M15.56,70.49c2.09,0,2.65.66,2.64,2s-.67,1.85-1.95,1.84-1.84-.66-1.84-1.94S15.13,70.51,15.56,70.49Z"/><path class="cls-1" d="M162.2,74.29c-1.15,0-1.81-.53-1.82-1.85s.52-1.93,1.84-2,1.93.53,1.94,1.85S163.62,74.29,162.2,74.29Z"/><path class="cls-1" d="M157.06,191.27c1.66.08,2.12.83,2.07,2.07s-.82,1.78-2,1.74-1.78-.81-1.73-2.05A1.58,1.58,0,0,1,157.06,191.27Z"/><path class="cls-1" d="M18.2,77.26c.06,1.24-.39,2-1.74,2s-2-.38-2.05-1.73.39-2,1.74-2S18.15,75.94,18.2,77.26Z"/><path class="cls-1" d="M164.17,77.51c0,1.12-.52,1.79-1.84,1.8s-1.94-.51-2-1.83.51-1.93,1.83-2S164.16,76.06,164.17,77.51Z"/><path class="cls-1" d="M16.46,84.35c-1.23.06-2-.38-2.05-1.74s.39-2,1.74-2,2,.39,2.05,1.74S17.79,84.3,16.46,84.35Z"/><path class="cls-1" d="M159.13,188.07c0,1.45-.67,2-1.95,2s-1.85-.68-1.84-2,.68-1.85,1.95-1.84S159.16,187,159.13,188.07Z"/><path class="cls-1" d="M16.36,89.38c-1.41,0-2-.66-1.95-1.94s.67-1.86,1.94-1.84,1.86.66,1.85,1.94S17.52,89.41,16.36,89.38Z"/><path class="cls-1" d="M139,102.75c-.05,1.32-.81,1.78-2.05,1.73s-1.78-.81-1.74-2,.82-1.77,2-1.73S139.05,101.52,139,102.75Z"/><path class="cls-1" d="M162.18,171.16c1.45,0,2,.67,2,2s-.67,1.86-1.95,1.84-1.85-.68-1.83-1.95S161.06,171.13,162.18,171.16Z"/><path class="cls-1" d="M121.84,105.73c1.24-.06,2,.38,2,1.74s-.38,2-1.73,2-2-.38-2-1.73S120.52,105.78,121.84,105.73Z"/><path class="cls-1" d="M134,107.55c0,1.28-.53,2-1.85,2s-1.94-.51-1.95-1.83.51-1.93,1.83-2A1.69,1.69,0,0,1,134,107.55Z"/><path class="cls-1" d="M139,107.46c.05,1.24-.39,2-1.74,2.05s-2-.38-2-1.74.38-2,1.74-2S139,106.14,139,107.46Z"/><path class="cls-1" d="M145.27,233.53c0-1.43.67-2,2-2s1.85.68,1.83,1.95-.67,1.85-1.95,1.84S145.24,234.66,145.27,233.53Z"/><path class="cls-1" d="M43.36,112.82c0,1.32-.8,1.78-2,1.73s-1.78-.82-1.74-2,.81-1.78,2-1.74S43.42,111.58,43.36,112.82Z"/><path class="cls-1" d="M41.39,118.94c-.78,0-2.13.36-1.77-1.38.2-1,.11-2.35,1.74-2.39s1.75,1.35,2,2.48C43.63,119.18,42.49,119,41.39,118.94Z"/><path class="cls-1" d="M117,119.6c-1.29,0-2-.54-2-1.86s.53-1.93,1.84-1.95,1.93.53,1.94,1.85A1.68,1.68,0,0,1,117,119.6Z"/><path class="cls-1" d="M139,116.69c.1,2.07-.34,2.85-1.69,2.89s-2-.38-2-1.74.38-2,1.74-2S138.89,116.27,139,116.69Z"/><path class="cls-1" d="M144,116.94c0,2.1-.66,2.66-1.94,2.64s-1.86-.66-1.85-1.94.67-1.85,1.95-1.85S144,116.51,144,116.94Z"/><path class="cls-1" d="M154.1,117.53c.06,1.23-.39,2-1.74,2s-2-.38-2.05-1.74.39-2,1.74-2S154.05,116.21,154.1,117.53Z"/><path class="cls-1" d="M17.32,124.57c-2.09.1-2.86-.34-2.91-1.69s.39-2,1.74-2,2,.39,2.05,1.74S17.72,124.51,17.32,124.57Z"/><path class="cls-1" d="M66.48,120.82c1.23,0,2,.39,2,1.75s-.39,2-1.74,2-2-.38-2.05-1.73S65.16,120.88,66.48,120.82Z"/><path class="cls-1" d="M73.58,122.65c0,1.28-.53,1.95-1.85,2s-1.94-.52-2-1.84.51-1.93,1.83-2A1.68,1.68,0,0,1,73.58,122.65Z"/><path class="cls-1" d="M107,124.62c-1.46,0-2-.67-2-2s.68-1.86,1.95-1.84,1.85.67,1.84,2S108.11,124.65,107,124.62Z"/><path class="cls-1" d="M112,120.83c1.14,0,1.81.52,1.82,1.84s-.53,1.93-1.85,1.94-1.92-.52-1.94-1.84S110.59,120.83,112,120.83Z"/><path class="cls-1" d="M154.1,122.79c0,1.15-.52,1.81-1.85,1.83s-1.93-.53-1.94-1.85.53-1.92,1.84-1.94S154.1,121.37,154.1,122.79Z"/><path class="cls-1" d="M159.13,122.88c0,1.33-.81,1.78-2,1.73s-1.78-.81-1.73-2,.81-1.78,2-1.74S159.19,121.65,159.13,122.88Z"/><path class="cls-1" d="M53.45,127.58c-.07,1.66-.83,2.11-2.07,2.07s-1.78-.82-1.73-2.05.81-1.78,2-1.74A1.58,1.58,0,0,1,53.45,127.58Z"/><path class="cls-1" d="M58.35,127.62c-.33.58-.06,2.14-1.91,2-1.31-.07-1.8-.77-1.77-2,0-1.6,1.06-1.77,2.32-1.78C58,125.85,58.68,126,58.35,127.62Z"/><path class="cls-1" d="M144,222.39c.11,2.07-.33,2.84-1.69,2.89s-2-.38-2-1.74.38-2,1.73-2S143.92,222,144,222.39Z"/><path class="cls-1" d="M132.8,230.32c-2.08,0-2.64-.66-2.62-1.95s.66-1.85,1.94-1.84,1.85.67,1.84,1.94S133.25,230.31,132.8,230.32Z"/><path class="cls-1" d="M139,228.26c.05,1.23-.39,2-1.74,2.05s-2-.38-2-1.74.38-2,1.74-2S139,226.94,139,228.26Z"/><path class="cls-1" d="M142,226.51c1.66.07,2.12.82,2.07,2.07s-.82,1.78-2.05,1.73-1.78-.81-1.73-2A1.57,1.57,0,0,1,142,226.51Z"/><path class="cls-1" d="M152,226.53c1.23-.06,2,.38,2.05,1.74s-.38,2-1.73,2-2-.38-2.05-1.73S150.72,226.58,152,226.53Z"/><path class="cls-1" d="M47.2,235.35c-2.05,0-2.61-.66-2.59-1.94s.67-1.86,1.94-1.85,1.85.67,1.85,1.95S47.68,235.34,47.2,235.35Z"/><path class="cls-1" d="M128,235.3c-2.06.11-2.83-.33-2.87-1.69s.38-2,1.73-2.05,2,.39,2.05,1.74S128.45,235.25,128,235.3Z"/><path class="cls-1" d="M130.17,233.53c0-1.43.68-2,2-2s1.85.68,1.83,1.95-.67,1.85-2,1.84S130.14,234.66,130.17,233.53Z"/><path class="cls-1" d="M153.22,235.3c-2.09.11-2.86-.33-2.91-1.69s.39-2,1.74-2,2,.38,2,1.73S153.62,235.25,153.22,235.3Z"/><path class="cls-1" d="M157.14,235.35c-1.11,0-1.78-.51-1.8-1.84s.52-1.93,1.84-1.95,1.93.52,1.95,1.84S158.6,235.35,157.14,235.35Z"/><path class="cls-1" d="M51.6,240.4c-1.28,0-2-.54-2-1.86s.53-1.93,1.85-1.94,1.92.52,1.94,1.84A1.68,1.68,0,0,1,51.6,240.4Z"/><path class="cls-1" d="M123.9,237.77c0,2.08-.67,2.63-2,2.61s-1.85-.67-1.84-1.95.68-1.84,2-1.84S123.89,237.32,123.9,237.77Z"/><path class="cls-1" d="M128.93,238.43c0,1.41-.66,2-1.94,1.95s-1.86-.66-1.85-1.94.67-1.86,2-1.85S129,237.27,128.93,238.43Z"/><path class="cls-1" d="M131.91,236.59c1.23-.05,2,.39,2.05,1.75s-.38,2-1.74,2-2-.38-2-1.74S130.59,236.65,131.91,236.59Z"/><path class="cls-1" d="M149.06,238.65c-.05,1.32-.8,1.78-2,1.73s-1.78-.81-1.74-2,.81-1.78,2-1.73S149.12,237.42,149.06,238.65Z"/><path class="cls-1" d="M152.14,240.38c-1.15,0-1.82-.52-1.83-1.84s.53-1.93,1.84-1.94,1.93.52,1.95,1.84S153.56,240.39,152.14,240.38Z"/><path class="cls-1" d="M155.34,239.12c0-2,.67-2.54,1.95-2.53s1.85.68,1.84,2-.68,1.84-1.95,1.84S155.35,239.65,155.34,239.12Z"/><path class="cls-1" d="M51.38,241.63c1.23-.06,2,.38,2,1.74s-.39,2-1.74,2-2-.38-2-1.73S50.05,241.68,51.38,241.63Z"/><path class="cls-1" d="M117.13,245.42c-1.23.05-2-.39-2-1.74s.38-2,1.74-2.05,2,.39,2,1.74S118.45,245.37,117.13,245.42Z"/><path class="cls-1" d="M122.72,245.42c-2.07,0-2.63-.66-2.61-1.95s.67-1.85,1.94-1.84,1.85.67,1.85,1.94S123.18,245.41,122.72,245.42Z"/><path class="cls-1" d="M128.93,243.6c0,1.14-.52,1.8-1.84,1.82s-1.93-.53-2-1.85.53-1.93,1.85-1.94S128.93,242.17,128.93,243.6Z"/><path class="cls-1" d="M144,243.61c0,1.12-.51,1.79-1.84,1.81s-1.93-.52-1.95-1.84.52-1.93,1.84-2S144,242.16,144,243.61Z"/><path class="cls-1" d="M149.07,243.59c0,1.15-.53,1.82-1.85,1.83s-1.93-.53-1.94-1.85.53-1.93,1.84-1.94S149.07,242.17,149.07,243.59Z"/><path class="cls-1" d="M154.1,243.36c.06,1.24-.39,2-1.74,2s-2-.38-2.05-1.73.39-2,1.74-2.05S154.05,242,154.1,243.36Z"/><path class="cls-1" d="M61.44,246.66c1.24,0,2,.39,2.05,1.74s-.38,2-1.73,2-2-.38-2-1.74S60.12,246.71,61.44,246.66Z"/><path class="cls-1" d="M117,250.45c-1.4,0-2-.66-1.94-1.94s.66-1.86,1.94-1.85,1.85.67,1.84,1.94S118.19,250.48,117,250.45Z"/><path class="cls-1" d="M135.21,248.63c0-1.43.67-2,1.95-2s1.85.68,1.84,2-.68,1.85-1.95,1.84S135.18,249.76,135.21,248.63Z"/><path class="cls-1" d="M144,247.84c0,2.08-.67,2.63-1.95,2.61s-1.85-.68-1.84-1.95.68-1.84,1.95-1.84S144,247.39,144,247.84Z"/><path class="cls-1" d="M147.33,246.66c1.32.05,1.78.81,1.73,2.05s-.81,1.78-2.05,1.74-1.77-.82-1.73-2S146.1,246.61,147.33,246.66Z"/><path class="cls-1" d="M152.45,250.47c-1.73-.07-2.19-.83-2.14-2.07s.82-1.78,2.05-1.73,1.78.81,1.73,2S153.25,250.48,152.45,250.47Z"/><path class="cls-1" d="M66.7,255.5c-1.28,0-2-.54-2-1.86s.53-1.93,1.85-1.94,1.92.52,1.94,1.84A1.68,1.68,0,0,1,66.7,255.5Z"/><path class="cls-1" d="M71.72,255.48c-1.4,0-2-.66-1.94-1.94s.66-1.86,1.94-1.84,1.85.66,1.84,1.94S72.89,255.51,71.72,255.48Z"/><path class="cls-1" d="M78.6,253.65c0,1.15-.53,1.82-1.85,1.83s-1.93-.53-1.94-1.84.53-1.93,1.84-1.94S78.6,252.24,78.6,253.65Z"/><path class="cls-1" d="M108.8,253.43c0,1.23-.39,2-1.74,2s-2-.38-2-1.74.38-2,1.74-2.05S108.75,252.11,108.8,253.43Z"/><path class="cls-1" d="M134,253.75c-.05,1.32-.8,1.78-2,1.73s-1.78-.81-1.74-2,.81-1.77,2-1.73S134,252.52,134,253.75Z"/><path class="cls-1" d="M137.19,251.69c1.12,0,1.79.52,1.81,1.84s-.52,1.94-1.84,1.95-1.93-.51-1.95-1.83S135.74,251.7,137.19,251.69Z"/><path class="cls-1" d="M141.42,251.69c2.07,0,2.63.66,2.61,1.95s-.67,1.86-1.94,1.84-1.85-.66-1.85-1.94S141,251.71,141.42,251.69Z"/><path class="cls-1" d="M149.06,253.75c-.05,1.32-.8,1.78-2,1.73s-1.78-.81-1.74-2,.81-1.77,2-1.73S149.12,252.52,149.06,253.75Z"/><path class="cls-1" d="M122.09,256.73c1.12,0,1.79.51,1.81,1.84s-.52,1.93-1.84,1.94-1.93-.51-2-1.83S120.64,256.73,122.09,256.73Z"/><path class="cls-1" d="M127,256.71c1.28,0,2,.53,2,1.86s-.52,1.93-1.84,1.95-1.93-.52-2-1.84A1.69,1.69,0,0,1,127,256.71Z"/><path class="cls-1" d="M134,258.46c.06,1.24-.38,2-1.74,2.05s-2-.38-2-1.73.38-2,1.74-2S133.92,257.14,134,258.46Z"/><path class="cls-1" d="M136.94,256.73c1.24-.06,2,.38,2.05,1.74s-.38,2-1.73,2-2-.38-2-1.73S135.62,256.78,136.94,256.73Z"/><path class="cls-1" d="M98.78,2c-.19,1.37-.8,1.85-1.93,1.85S95,3.25,94.94,2,95.49.11,96.78,0C98.52-.13,98.07,1.5,98.78,2Z"/><path class="cls-1" d="M16.32,99.46c-1.36,0-1.94-.64-1.92-1.94s.64-1.86,1.92-1.86c1.12,0,1.95.48,1.82,1.59S17.83,99.54,16.32,99.46Z"/><path class="cls-1" d="M164.15,177.62c.09,1.51-.33,2.32-1.68,2.37-1.18,0-2.06-.3-2.09-1.68,0-1.12.16-2.32,1.6-1.91C162.73,176.61,164.61,175.81,164.15,177.62Z"/><path class="cls-1" d="M149.08,107.55c0,1-.33,2-1.5,1.89s-2.32-.15-2.3-1.79c0-1.27.53-1.91,1.84-1.92S149.06,106.27,149.08,107.55Z"/><path class="cls-1" d="M43.38,37.19c.2,1.42-1.14,1.59-2.12,1.79s-1.65-.58-1.69-1.69.41-2,1.75-2S43.3,35.67,43.38,37.19Z"/><path class="cls-1" d="M139,223.09c-.06,1.74-.78,2.23-2,2.19s-1.91-.6-1.7-1.68.34-2.27,2-2.12C138.59,221.6,139.08,222.28,139,223.09Z"/><path class="cls-1" d="M63.51,243.5c-.07,1.51-.82,2-2.06,1.92s-1.79-.79-1.75-2,.57-1.91,1.69-1.69S63.72,242.07,63.51,243.5Z"/><path class="cls-1" d="M61.75,5.05a1.67,1.67,0,0,1,1.76,1.89c0,1.28-.57,1.9-1.87,1.91S59.77,8.31,59.7,7C59.63,5.36,61,5.54,61.75,5.05Z"/><path class="cls-1" d="M16.64,94.4c-1.42.09-2.19-.37-2.23-1.71s.35-2,1.71-2c1.13,0,2.27.14,1.9,1.62C17.81,93.08,18.29,94.69,16.64,94.4Z"/><path class="cls-1" d="M167,129.37c-1.14.28-1.63-.41-1.55-1.8s.83-1.77,2.06-1.71,1.8.79,1.73,2S168.63,129.79,167,129.37Z"/><path class="cls-1" d="M162.22,84.38c-1.41.21-1.59-1.16-1.78-2.12s.56-1.66,1.7-1.7,2,.41,2,1.75S163.75,84.29,162.22,84.38Z"/><path class="cls-1" d="M158.75,198.49c.51,1.61-.64,1.67-1.83,1.61-1.39-.07-1.65-1-1.57-2.18.1-1.38,1-1.7,2.18-1.57S159.46,197,158.75,198.49Z"/><path class="cls-1" d="M38.32,223.38c-.5,1-.68,2.2-2.26,1.91-1.35-.24-1.6-1.1-1.49-2.25.12-1.4,1.07-1.61,2.21-1.53S38.35,222.32,38.32,223.38Z"/><path class="cls-1" d="M34.66,116.8c-.86-1.41,1.19-1.45,1.92-1.53,1.76-.19,1.55,1.44,1.72,2.57.12.74-.32,1.73-1,1.41C36.5,118.84,34.71,119.23,34.66,116.8Z"/><path class="cls-1" d="M58.5,238.51c0,1.33-.69,1.89-2,1.88s-1.86-.64-1.86-1.92c0-1.11.46-1.94,1.59-1.82S58.49,237,58.5,238.51Z"/><path class="cls-1" d="M121.77,204.94c-1.15.27-1.57-.4-1.65-1.48-.11-1.42.51-2.14,2-2.11s1.77.7,1.84,2C124,205,122.84,204.81,121.77,204.94Z"/><path class="cls-1" d="M144,127.67c0,1.42-.64,2-1.91,2s-1.79-.61-1.91-1.89c-.18-2,1.4-1.6,2.32-1.77C143.69,125.79,144.07,126.73,144,127.67Z"/><path class="cls-1" d="M66.78,34c-.72-.49-2.13-.31-2-2,.07-1.3.66-1.85,1.94-1.83s1.87.64,1.86,1.92A1.65,1.65,0,0,1,66.78,34Z"/><path class="cls-1" d="M143.77,107.23c.39,2-.5,2.24-1.66,2.28-1.31,0-1.86-.64-1.87-1.9s.59-1.89,1.88-1.89S144.3,106.16,143.77,107.23Z"/><path class="cls-1" d="M36.77,126.12c1.08-.28,1.49.4,1.55,1.47.1,1.45-.58,2.11-2,2.07s-1.74-.76-1.78-2C34.46,126,35.51,126,36.77,126.12Z"/><path class="cls-1" d="M121.83,235.36c-1,0-1.67-.52-1.72-1.83-.07-1.6,1.18-1.76,2.2-1.9s1.58.69,1.6,1.79C123.93,234.7,123.34,235.34,121.83,235.36Z"/><path class="cls-1" d="M34.76,112.1c-.23-.95.49-1.4,1.85-1.34s1.76.84,1.72,2-.81,1.78-2,1.74S34.47,113.91,34.76,112.1Z"/><path class="cls-1" d="M137.14,130.86a1.68,1.68,0,0,1,1.86,2c0,1.3-.64,1.85-1.92,1.85-1.12,0-1.94-.49-1.81-1.59S135.64,130.84,137.14,130.86Z"/><path class="cls-1" d="M164.16,167.38c0,1.76-.43,2.53-1.78,2.53-1,0-2.25-.4-1.82-1.39.33-.76-.27-2.53,1.64-2.41C163.46,166.19,164.15,166.63,164.16,167.38Z"/><path class="cls-1" d="M58.42,247.62c.1,2-.36,2.65-1.68,2.86-1.93.3-1.5-1.44-1.85-2.2-.51-1.11.5-1.53,1.56-1.6C57.74,246.58,58.39,247.14,58.42,247.62Z"/><path class="cls-1" d="M66.33,250.46c-.89,0-1.58-.52-1.58-1.82,0-1.15.21-2.08,1.73-1.83,1.2.19,2,.77,2,2.05S67.76,250.43,66.33,250.46Z"/><path class="cls-1" d="M113.82,247.91c0,1.86-.52,2.41-1.82,2.57-1.94.23-1.44-1.54-1.78-2.29-.46-1,.62-1.48,1.69-1.52C113.23,246.63,113.8,247.26,113.82,247.91Z"/><path class="cls-1" d="M157,181.23c1.78-.09,2,1.2,2.09,2.2s-.67,1.61-1.78,1.58-2.14-.27-1.76-1.74C155.75,182.38,155.36,180.86,157,181.23Z"/><path class="cls-1" d="M164.2,182.72c-1.07.46,0,2.47-1.9,2.32-1.26-.1-1.92-.55-1.92-1.86s.46-1.93,1.81-2A1.76,1.76,0,0,1,164.2,182.72Z"/><path class="cls-1" d="M139,17c0,1.3-.59,1.89-1.87,1.91s-1.8-.56-1.94-1.85c-.23-1.93,1.56-1.44,2.3-1.78C138.45,14.85,139,15.94,139,17Z"/><path class="cls-1" d="M62.58,255.13c-1.49-.35-2.88-.23-2.84-1.87s1.56-1.71,2.61-2c.28-.09,1.4,1.1,1.36,1.65A6.13,6.13,0,0,1,62.58,255.13Z"/><path class="cls-1" d="M16.7,45.33c1.21.19,1.51,1,1.5,2,0,1.35-.76,1.79-2,1.78s-1.73-.7-1.82-2C14.27,45.24,16.29,46.37,16.7,45.33Z"/><path class="cls-1" d="M169.18,162.46c.07,1.76-.51,2.39-1.8,2.42s-1.94-.46-2-1.78c0-1,.3-2.07,1.4-1.92A6.84,6.84,0,0,1,169.18,162.46Z"/><path class="cls-1" d="M149.06,122.53c0,1.53-.63,2.11-1.91,2.08s-1.91-.57-1.88-1.89c0-1.08.58-2.21,1.5-1.73C147.51,121.38,149.52,120.71,149.06,122.53Z"/><path class="cls-1" d="M21.19,30.23c1.2-.05,2,.36,2,1.7.09,1.58-1.4,1.66-2.19,2-1,.39-1.56-.59-1.6-1.68S19.89,30.28,21.19,30.23Z"/><path class="cls-1" d="M76.9,261.76c1.06,0,1.74.57,1.7,1.9,0,1.08-.54,2.18-1.51,1.73-.75-.35-2.53.17-2.31-1.77C74.93,262.32,75.46,261.75,76.9,261.76Z"/><path class="cls-1" d="M157.54,39.05c-1.72,0-2.21-.73-2.2-2s.69-1.76,1.95-1.84c1.88-.12,1.36,1.63,1.67,2.39C159.36,38.64,158.19,39.08,157.54,39.05Z"/><path class="cls-1" d="M157,69.25c-1.42.11-1.55-1.34-1.51-2s.43-2,1.94-1.77a1.75,1.75,0,0,1,1.7,2.09C159.09,68.86,158.32,69.3,157,69.25Z"/><path class="cls-1" d="M142.34,211.4a1.69,1.69,0,0,1,1.7,1.91c0,1.5-.81,2-2.16,1.89-1-.09-1.75-.45-1.5-1.74A2.29,2.29,0,0,1,142.34,211.4Z"/><path class="cls-1" d="M152,196.31a2.53,2.53,0,0,1,2,2.31c0,1.17-.84,1.5-1.92,1.49-1.33,0-1.86-.66-1.84-1.93A1.67,1.67,0,0,1,152,196.31Z"/><path class="cls-1" d="M118.83,268.38c-1,.46,0,2.47-1.92,2.23-1.29-.16-1.86-.7-1.83-2s.6-1.88,1.91-1.85C118.08,266.83,118.77,267.19,118.83,268.38Z"/><path class="cls-1" d="M120.44,268.11c0-.58-.19-1.44,1.65-1.07,1.33.27,1.89.47,1.81,1.83s-.87,1.75-2.08,1.71S120,270,120.44,268.11Z"/><path class="cls-1" d="M139,127.7c.06,1.35-.59,1.93-1.86,2s-1.8-.56-1.95-1.85c-.21-1.92,1.57-1.43,2.31-1.78C138.46,125.58,139,126.67,139,127.7Z"/><path class="cls-1" d="M169.2,132.42c-1.07.38.08,2.45-1.84,2.28-1.23-.11-1.94-.51-2-1.84s.51-1.93,1.82-2A1.66,1.66,0,0,1,169.2,132.42Z"/><path class="cls-1" d="M56.85,114.58c-1.71,0-2.19-.78-2.17-2s.68-1.83,1.94-1.81c1.08,0,2.1.55,1.73,1.54C58.05,113.09,58.05,114.66,56.85,114.58Z"/><path class="cls-1" d="M154.11,203.21c-.54.78-.46,2.18-2.12,2-1.32-.18-1.66-.88-1.7-2.09,0-1.7,1.35-1.31,2.18-1.54C153.7,201.19,154,202.08,154.11,203.21Z"/><path class="cls-1" d="M154.13,223.75a1.81,1.81,0,0,1-2.24,1.52c-1.38-.09-1.65-1-1.57-2.18.09-1.37,1-1.62,2.16-1.6C154.39,221.52,152.7,223.71,154.13,223.75Z"/><path class="cls-1" d="M127.07,226.49c1.45.17,1.87.86,1.87,1.94,0,1.3-.59,1.89-1.89,1.89-1.09,0-1.9-.38-1.87-1.56C125.2,227.41,126.32,227,127.07,226.49Z"/><path class="cls-1" d="M117.37,134.66c-.73-.8-2.37-.64-2.28-2.21.07-1.39,1-1.62,2.19-1.54,1.37.09,1.65,1,1.58,2.16A1.47,1.47,0,0,1,117.37,134.66Z"/><path class="cls-1" d="M149.07,203.28a1.62,1.62,0,0,1-1.85,1.87c-.83,0-2-.31-1.58-1.11s-.7-2.83,1.56-2.69C148.47,201.43,149.09,202,149.07,203.28Z"/><path class="cls-1" d="M152.06,255.49a1.58,1.58,0,0,1-1.75-1.73c0-1.21.34-2,1.7-2.06,1,0,2.15.22,2,1.32C153.81,254,153.43,255.26,152.06,255.49Z"/><path class="cls-1" d="M62.16,124.63c-.78-.73-2.3-.6-2.42-2-.1-1.14.54-1.68,1.66-1.75,1.42-.08,2.13.5,2.11,2A1.7,1.7,0,0,1,62.16,124.63Z"/><path class="cls-1" d="M43.43,228.58a1.82,1.82,0,0,1-2,1.75c-1.53,0-1.83-.94-1.81-2.27,0-1.75,1.65-.8,2.29-1.48Z"/><path class="cls-1" d="M66.73,114.55c-1.36,0-2-.57-2-1.87,0-.93.34-2,1.18-1.79,1.06.21,2.57.48,2.59,2.1C68.52,114.15,67.72,114.57,66.73,114.55Z"/><path class="cls-1" d="M46.39,236.59c1.34-.05,2,.52,2,1.82,0,1.06-.32,2-1.46,1.93s-1.83-.66-2-2S45.17,236.52,46.39,236.59Z"/><path class="cls-1" d="M123.92,31.78c-1.15.36-.79,2.42-2.49,2.21-1.18-.15-1.36-1.07-1.32-2.09.06-1.37.9-1.71,2.09-1.67A1.61,1.61,0,0,1,123.92,31.78Z"/><path class="cls-1" d="M81.75.66c.83.11,2-.42,1.89,1.2-.06,1.22-.49,1.91-1.79,2s-2-.64-2-2C79.82.13,81,.85,81.75.66Z"/><path class="cls-1" d="M64.94,127c-.17-.73.47-1.23,1.85-1.17,1,0,2,1,1.62,1.3-.87.73-.16,2.62-1.94,2.5C65.19,129.57,64.67,129,64.94,127Z"/><path class="cls-1" d="M93.69,1.9c0,1.17-.45,1.88-1.76,1.91S90,3.4,89.9,2.1,90.47.5,91.52.68C92.35.83,93.76,0,93.69,1.9Z"/><path class="cls-1" d="M86.76,255.49a1.67,1.67,0,0,1-1.89-2c0-1.62,1.35-1.71,2.36-1.69.29,0,.88,1.24,1,2.2C88.55,255.67,87.58,255.39,86.76,255.49Z"/><path class="cls-1" d="M124,7.06c-.3,1.51-1,1.83-2.11,1.8-1.32,0-1.8-.75-1.77-2,0-.94.47-1.92,1.3-1.67A4.63,4.63,0,0,1,124,7.06Z"/><path class="cls-1" d="M122.09,287.33c1.68-.3,1.79.54,1.81,1.52,0,1.28-.58,1.85-1.84,1.87s-2.18-.49-1.86-1.73C120.42,288.16,121.18,287.2,122.09,287.33Z"/><path class="cls-1" d="M157.77,171.42c1.71-.75,1,1.31,1.18,2,.34,1.43-.85,1.59-1.95,1.57-.95,0-2-.71-1.51-1.4S155.39,170.87,157.77,171.42Z"/><path class="cls-1" d="M81.83,252.29c2.16-1,.45,1.88,1.76,1.7-.06,1.22-.84,1.48-1.88,1.48a1.64,1.64,0,0,1-1.87-1.89C79.84,252,80.46,251.56,81.83,252.29Z"/><path class="cls-1" d="M128.62,204c-.13.77-1.06,1-1.69,1.09-1.28.21-1.79-.63-1.79-1.85s.58-1.8,1.85-1.88C129.08,201.22,128,202.92,128.62,204Z"/><path class="cls-1" d="M117,209.55c-.83-.12-2,.43-1.9-1.2.07-1.22.49-1.91,1.79-1.95s2,.62,2,2C118.89,210.07,117.69,209.37,117,209.55Z"/><path class="cls-1" d="M62.32,131.14c1.2.14,1.17,1,1.17,1.77,0,1.33-.74,1.79-2,1.77s-1.91-.64-1.8-1.91C59.88,131.05,61.79,132.15,62.32,131.14Z"/><path class="cls-1" d="M108.8,127.76c0,1.09-.39,2-1.55,1.84-1.39-.15-1.81-1.57-2.1-2.57-.21-.76.86-1.2,1.8-1.18C108.24,125.88,108.84,126.49,108.8,127.76Z"/><path class="cls-1" d="M101.9,255.5c-1.25-.06-1.94-.51-1.89-1.68.06-1.47,1.38-1.75,2.32-1.84a1.47,1.47,0,0,1,1.47,1.81C103.6,255.12,102.9,255.52,101.9,255.5Z"/><path class="cls-1" d="M117.46,106.38c.93-.12,1.51.08,1.42,1.28s-.61,1.85-1.88,1.86-2-.52-1.88-1.8S116.35,106.3,117.46,106.38Z"/><path class="cls-1" d="M72.18,129.6c-2,.24-2.16-1.06-2.34-2s.53-1.67,1.64-1.69c.82,0,2,.1,1.76,1S72.92,129.06,72.18,129.6Z"/><path class="cls-1" d="M31.52,40.29c.8,0,1.82.34,1.66,1.22A3.16,3.16,0,0,1,30.71,44c-.85.14-1.23-.84-1.22-1.79C29.52,40.89,30.12,40.27,31.52,40.29Z"/><path class="cls-1" d="M38.3,213.6c0,1-.51,1.64-1.48,1.57s-2.08-.25-2.16-1.45a2.07,2.07,0,0,1,1.79-2.27C38.41,211,37.22,213.29,38.3,213.6Z"/><path class="cls-1" d="M78.61,31.47a4.29,4.29,0,0,1-2.54,2.44c-.85.17-1.27-.79-1.27-1.74,0-1.27.53-1.91,1.84-2A1.82,1.82,0,0,1,78.61,31.47Z"/><path class="cls-1" d="M146.32,129.58c-.53-.36-1-.66-1-1.47-.08-1.31.26-2.22,1.79-2.24,1,0,1.92.24,2,1.42C149.09,129,147.25,128.56,146.32,129.58Z"/><path class="cls-1" d="M168.57,157.93c-.69.48.4,2.06-1.34,1.94-1.58-.1-1.92-1-1.81-2.28s1.1-1.58,2.24-1.52C169.15,156.15,168.35,157.27,168.57,157.93Z"/><path class="cls-1" d="M22.69,127.69c-.64.94-1.11,1.94-2.33,1.91-.9,0-1.72-.46-1.41-1.5s0-2.49,1.35-2.51C21.4,125.57,22,126.84,22.69,127.69Z"/><path class="cls-1" d="M163.47,62.53c.25,1.48-.33,1.75-1.34,1.69-1.31-.08-1.74-.75-1.77-2a1.75,1.75,0,0,1,1.84-2C163.45,60.42,163.07,62,163.47,62.53Z"/><path class="cls-1" d="M118.87,293.71c0,1.34-.51,2-1.82,2.05-.93,0-2-.3-1.85-1.16a3.16,3.16,0,0,1,2.39-2.52C118.42,291.87,118.92,292.84,118.87,293.71Z"/><path class="cls-1" d="M147.2,119c-.55-.64-2.09.31-1.94-1.41s1.05-1.87,2.32-1.74,1.45.88,1.5,2C149.15,119.43,148,118.8,147.2,119Z"/><path class="cls-1" d="M40.19,223.54c.82-.44-.53-2.36,1.5-2.06,1.34.2,1.69.89,1.67,2.09,0,1.47-1.28,1.48-2.13,1.65C39.82,225.5,40.31,224.27,40.19,223.54Z"/><path class="cls-1" d="M164.16,87.58c0,1-.43,1.89-1.56,1.75-1.36-.16-1.44-1.44-1.58-2.53s.36-1.24,1.26-1.22C163.59,85.61,164.18,86.22,164.16,87.58Z"/><path class="cls-1" d="M159.14,71.74c0,1.83-.54,2.7-1.65,2.48s-1.42-1.46-1.51-2.6.52-1.14,1.35-1.13C158.68,70.51,159.12,71.28,159.14,71.74Z"/><path class="cls-1" d="M41,129.66c-1.12-.21-1.47-.94-1.43-2,0-1.33.73-1.77,2-1.79,1.8,0,.68,1.44,1,2.11C43.07,128.89,42.14,129.6,41,129.66Z"/><path class="cls-1" d="M133.67,133c-1,.06-.11,1.83-1.61,1.77-2-.07-1.37-1.77-1.72-2.67-.27-.71.86-1.07,1.77-1.18C133.9,130.65,133,132.38,133.67,133Z"/><path class="cls-1" d="M144.06,102.74a1.72,1.72,0,0,1-1.94,1.75c-1.31,0-1.86-.62-1.88-1.91,0-.91.25-1.37,1.23-1.25S143.62,101.66,144.06,102.74Z"/><path class="cls-1" d="M131.94,104.47c-.92,0-1.82-.36-1.66-1.33s.72-2,2.26-1.86c1,.12,1.51.29,1.44,1.42C133.89,104,133.22,104.54,131.94,104.47Z"/><path class="cls-1" d="M173.23,148.4s1.19,1.58-.75,1.23c-1-.18-2.16-.09-2-1.69.07-1,.3-2,1.48-1.81C172.61,146.25,174.39,146,173.23,148.4Z"/><path class="cls-1" d="M77.67,129.45c-1.23-.5-2.52-1-2.75-2.29-.15-.88.75-1.29,1.68-1.3,1.22,0,2,.39,2,1.73C78.61,128.43,78.55,129.18,77.67,129.45Z"/><path class="cls-1" d="M61.49,110.76c1.34,0,2,.55,2,1.86,0,.89-.19,1.4-1.19,1.3s-2.35-.28-2.54-1.56C59.61,111.28,60.44,110.72,61.49,110.76Z"/><path class="cls-1" d="M111.82,129c-1.17.83-2,.07-1.59-.82s-.26-2.56,1.64-2.34a2.32,2.32,0,0,1,1.86,2.27C113.94,129.59,112.86,129.58,111.82,129Z"/><path class="cls-1" d="M22.57,57c-.48.61-.05,2.24-1.75,2.11-1.16-.1-1.42-1-1.38-2,.06-1.36.86-1.69,2.07-1.72S22.63,56,22.57,57Z"/><path class="cls-1" d="M58.46,203.37c0,.76-.25,1.65-1,1.5-1.17-.24-2.49-.89-2.68-2.17-.16-1.09.94-1.37,2-1.33C58.05,201.42,58.54,202.14,58.46,203.37Z"/><path class="cls-1" d="M128.93,32.26c.09.7-.17,1.24-1.18,1.12s-2.35-.23-2.54-1.57c-.16-1.12.7-1.57,1.81-1.59C128.31,30.21,128.93,30.8,128.93,32.26Z"/><path class="cls-1" d="M168.57,142.17c-.18,1.06-.23,2.35-1.58,2.53-1.12.15-1.58-.71-1.58-1.82a1.66,1.66,0,0,1,1.86-1.93C168.15,140.93,168.7,141.13,168.57,142.17Z"/><path class="cls-1" d="M158.28,243.51c-.22.35.14,1.9-1.49,1.87-1.17,0-1.47-.91-1.45-2,0-1.34.76-1.78,2-1.79C158.33,241.61,158.67,242,158.28,243.51Z"/><path class="cls-1" d="M155.35,178.57c0-1.54,1.36-1.48,2.36-1.72.74-.18,1.44-.08,1.43,1s-.28,2.19-1.32,2C157.05,179.67,155.4,180.45,155.35,178.57Z"/><path class="cls-1" d="M152.14,25.55A3,3,0,0,1,154,27.74c.15.9-.81,1.26-1.75,1.26s-2-.39-1.77-1.21C150.62,27.15,150.4,25.67,152.14,25.55Z"/><path class="cls-1" d="M148.3,264.13a2.07,2.07,0,0,1-2,1.29c-.83,0-1.12-1-1-2,.09-1.38.91-1.68,2.11-1.7S148.47,262.43,148.3,264.13Z"/><path class="cls-1" d="M71.57,250.11c-2.15.75-1.42-1.24-1.69-2.06s.64-1.56,1.25-1.28c1.07.48,2.26,1.31,2.32,2.6C73.48,250,72.64,250.83,71.57,250.11Z"/><path class="cls-1" d="M169.24,153.34c-.74.44-1.57,1.28-2.49,1.38-1.1.12-1.39-.95-1.35-2,0-.77.45-1.78,1.06-1.35C167.34,152,169.17,151.11,169.24,153.34Z"/><path class="cls-1" d="M162.2,164.89c-1.61.43-.89-1.18-1-1.63a1.59,1.59,0,0,1,1.41-2.11c1.18-.07,1.54.76,1.55,1.84C164.18,164.28,163.58,164.9,162.2,164.89Z"/><path class="cls-1" d="M156.67,210.18a1.7,1.7,0,0,1-1.34-1.83c0-1.29.54-1.93,1.86-2,.85,0,1.31.13,1.33,1.17C158.56,209,157.62,209.53,156.67,210.18Z"/><path class="cls-1" d="M41.41,231.56c1.42,0,2,.65,2,1.94,0,.87-.17,1.78-1.26,1.49s-2.26-.79-2.2-2.1C39.94,232.26,40.33,231.18,41.41,231.56Z"/><path class="cls-1" d="M161.76,186.26c1,0,1.73.44,1.72,1.42s-.23,2.12-1.42,2.31-1.64-.57-1.69-1.71S160.7,186.49,161.76,186.26Z"/><path class="cls-1" d="M39.57,212.44c1.29.34,2.82-2,3.65.21.13.36.36,1.95-.78,2.42C39.93,216.1,40.82,213.15,39.57,212.44Z"/><path class="cls-1" d="M101.92,176.19c.76-.12,1.72.28,1.72,1.08a2.18,2.18,0,0,1-2.17,2.07c-.91.11-1.57,0-1.51-1.22S100.47,176.2,101.92,176.19Z"/><path class="cls-1" d="M123.91,283.1c0,1.73-.44,2.69-1.36,2.46a2.42,2.42,0,0,1-1.83-2.56c0-1.12.58-1.12,1.38-1.11C123.47,281.9,123.9,282.69,123.91,283.1Z"/><path class="cls-1" d="M10.83,120.47c1.5.44,2.49.89,2.34,2.4-.07.76-.32,1.67-1,1.48-1.12-.3-2.34-.81-2.16-2.51A1.83,1.83,0,0,1,10.83,120.47Z"/><path class="cls-1" d="M141.22,134.52c-.89-.34-1-1.09-1-1.94.05-1.38.89-1.66,2.08-1.7s1,.67,1.07,1.41C143.52,133.88,142.09,133.91,141.22,134.52Z"/><path class="cls-1" d="M121.7,196.35c.28,1.17,2.43.77,2.16,2.47-.19,1.14-1.08,1.39-2.12,1.29-1.21-.12-.42-1.56-1.27-1.91C121.11,197.74,120.18,196.35,121.7,196.35Z"/><path class="cls-1" d="M87,3.84c-1-.11-1.84.11-1.72-1.47C85.32,1.3,85.3.62,86.43.71c.93.07,2.09.26,2.19,1.51S87.85,3.75,87,3.84Z"/><path class="cls-1" d="M136.81,216.33c.83.56,2.33.49,2.08,1.74a3.37,3.37,0,0,1-2,2.09c-1.52.52-1.15-1.19-1.25-1.79A2.09,2.09,0,0,1,136.81,216.33Z"/><path class="cls-1" d="M173.47,112.71c-.1.35-.08,1.59-1.48,1.8-.83.12-1.72-.75-1.41-1.18.59-.85-.22-2.73,1.82-2.59C173.33,110.8,173.73,111.09,173.47,112.71Z"/><path class="cls-1" d="M118.87,278.87c0,.87-.36,1.81-1.28,1.66s-2.06-.86-1.69-2.1c.15-.49-.53-1.88,1.15-1.61C118.35,277,118.89,277.57,118.87,278.87Z"/><path class="cls-1" d="M42.27,106.37c1.63-.17.86,1.39.93,1.8.19,1.1-.88,1.39-1.9,1.35s-1.86-.48-1.6-1.38A2.27,2.27,0,0,1,42.27,106.37Z"/><path class="cls-1" d="M65,257.43a1.39,1.39,0,0,1,1.34-.7c1.17-.06,2.08.2,2.16,1.58,0,.82.17,1.61-1.18,1.6S65.39,259,65,257.43Z"/><path class="cls-1" d="M108.42,208c.62,1.42-.19,2.1-.71,2.06a2.26,2.26,0,0,1-2.07-2.26c-.12-1.05.23-1.41,1.37-1.45C108.75,206.29,108.35,207.57,108.42,208Z"/><path class="cls-1" d="M149,42.25c.26,1.7-1.47.24-1.68,1.16-.88-.3-1.77-.39-1.77-1.79s.91-1.32,1.77-1.3A1.54,1.54,0,0,1,149,42.25Z"/><path class="cls-1" d="M38.13,218.21c.33,1.49-.36,1.93-1.42,2-.86.08-1.82.07-1.49-1.21.22-.85-.39-2.29.9-2.4C36.59,216.6,38.56,216.69,38.13,218.21Z"/><path class="cls-1" d="M90.72,252a2.76,2.76,0,0,1,2.67,2.38c.19.85-.61,1.07-1.37,1.09-1,0-1.84-.18-2.1-1.33S90.67,252.7,90.72,252Z"/><path class="cls-1" d="M112.1,161.1c1.26.05,1.72.74,1.75,2s-.75,1.23-1.59,1.17c-1.34-.09-1.59-1-1.6-2.12S111.36,161.09,112.1,161.1Z"/><path class="cls-1" d="M162.88,57.45c-.22.54.58,1.75-.92,1.71-1.15,0-1.56-.74-1.59-1.84s.77-2.29,1.66-2.27S162.94,56.42,162.88,57.45Z"/><path class="cls-1" d="M12.35,55.51c.7.17.86,1.09.82,2.21-.06,1.34-1,1-1.8,1.08-1.35.08-.86-1.16-1.31-1.72C10.71,56.6,10.38,55.13,12.35,55.51Z"/><path class="cls-1" d="M50.26,233.55c-.76-1.47-.17-2,1.34-2s.41,1.94,1.62,2.13c-.85.19-.83,1.51-2.17,1.34S49.67,234.5,50.26,233.55Z"/><path class="cls-1" d="M101.76,271.83c1.21-.06,1.77.44,2,1.71.36,1.67-1,1-1.52,1.21-1.7.62-1.7-1.14-2-2C100,272.19,101,271.79,101.76,271.83Z"/><path class="cls-1" d="M108.53,273.64c.38,1-1,1.29-1.57,1.21s-2-.09-1.93-1.4c0-1.14.67-1.62,1.77-1.62C107.74,271.83,108.57,271.92,108.53,273.64Z"/><path class="cls-1" d="M113.87,273a5.76,5.76,0,0,1-2.34,2.4c.15-1.14-1.52-.84-1.5-2,0-1.41,1-1.14,1.91-1.44C113.13,271.62,113.37,272.36,113.87,273Z"/><path class="cls-1" d="M123.8,133.16c-.66.46-.36,1.65-1.63,1.56s-1.94-.56-2.11-2c-.2-1.62,1-.67,1.46-.92C122.87,131.08,123.11,132.54,123.8,133.16Z"/><path class="cls-1" d="M164.16,157.9c.06,1.07-.32,1.83-1.5,1.93s-1.46-1.21-1.53-1.83a1.89,1.89,0,0,1,1.74-1.84C163.79,156.09,164.21,157,164.16,157.9Z"/><path class="cls-1" d="M162.26,90.58c1.46.16,1.9.81,1.91,1.92,0,.93-.29,1.81-1.22,1.82a1.92,1.92,0,0,1-1.83-1.77A2.12,2.12,0,0,1,162.26,90.58Z"/><path class="cls-1" d="M88.68,31.8c0,1.24-1.26,1.42-1.91,1.46A1.92,1.92,0,0,1,85,31.47c0-.94.86-1.24,1.78-1.25A1.64,1.64,0,0,1,88.68,31.8Z"/><path class="cls-1" d="M81.67,266.8c1.08-.06,1.84.34,2,1.49.12,1.33-1.22,1.46-1.84,1.53a1.9,1.9,0,0,1-1.84-1.74C79.87,267.15,80.73,266.75,81.67,266.8Z"/><path class="cls-1" d="M38.32,16.92a1.65,1.65,0,0,1-1.77,2c-.93,0-2.07-.38-1.85-1.09a3.46,3.46,0,0,1,2.64-2C38.23,15.59,38.36,16.22,38.32,16.92Z"/><path class="cls-1" d="M171.07,107.49c0-.29-1-1.4.68-1.12,1,.18,2.32.16,2.45,1.61.15,1.73-1.47,1.19-2.24,1.37C170.88,109.6,170.41,108.87,171.07,107.49Z"/><path class="cls-1" d="M17.68,102.27c-.46,1.16-1,2-2,2.11s-1.31-.77-1.32-1.71.33-1.79,1.49-2C17.39,100.47,16.62,102.24,17.68,102.27Z"/><path class="cls-1" d="M151.86,191.17a3.83,3.83,0,0,1,2.19,2.39,1.16,1.16,0,0,1-1.23,1.43c-1.36-.25-1.92-1.54-2.27-2.7C150.38,191.73,151.2,191.42,151.86,191.17Z"/><path class="cls-1" d="M31.6,114.54c-1,0-1.92-.08-1.81-1.13s.73-2.41,2.06-2.47c.34,0,.91,1.49,1.08,2.35S32.37,114.64,31.6,114.54Z"/><path class="cls-1" d="M110.91,159.74c-.57-.12-.92-.84-.87-1.92s.46-1.8,1.37-1.65,1.85.94,1.66,1.9C113,158.7,112.87,160.07,110.91,159.74Z"/><path class="cls-1" d="M117.15,120.83c.87-.12,1.1.38,1.09,1.26,0,1.48-.8,1.91-2.14,1.92-1.13,0-1-.71-1-1.43C115.09,121.27,115.84,120.79,117.15,120.83Z"/><path class="cls-1" d="M33.33,116.5c-.7.78-.63,2.22-1.81,2.35a1.92,1.92,0,0,1-1.91-1.71c-.15-1.32,1.46-1.19,2.15-1.88C32.05,115.94,33.25,115.52,33.33,116.5Z"/><path class="cls-1" d="M108.81,158.09c.07.62-.09,1.16-1.12,1.14-1.19,0-2-.35-2-1.68,0-.91,0-1.57,1.26-1.51S108.79,156.62,108.81,158.09Z"/><path class="cls-1" d="M113.84,244.41c0,.31-.5.86-1.43,1a1.42,1.42,0,0,1-1.71-1.34c-.15-1,.56-1.53,1-2.21C112.51,242.38,113.78,242.39,113.84,244.41Z"/><path class="cls-1" d="M108.79,203.93a1.77,1.77,0,0,1-1.92,1.23c-.93,0-1.82-.34-1.75-1.26a2,2,0,0,1,1.81-1.8C107.83,202.12,108.43,203,108.79,203.93Z"/><path class="cls-1" d="M112.06,205.16c-1,.09-1.84-.23-1.91-1.14a2,2,0,0,1,1.69-1.92c1-.12,1.75.87,1.88,1.73S112.94,205.11,112.06,205.16Z"/><path class="cls-1" d="M129,132.24c-.77.9-1.38,2-2.65,2.35-.25.07-.7-.61-1-.94.83-.81.54-2.51,2.07-2.72C128.18,130.81,128.65,131.38,129,132.24Z"/><path class="cls-1" d="M116.7,205.15c-.53,0-1.47-.12-1.27-1.15.15-.79.46-2.07,1.58-1.88.63.1,1.92.15,1.83,1.48C118.76,204.76,118.06,205.17,116.7,205.15Z"/><path class="cls-1" d="M41.48,207c.86-.44,1.45-.5,1.26.81s-.88,2.22-2.07,2.27c-1.34,0-.67-1.36-.86-2C39.33,206.46,40.38,206.54,41.48,207Z"/><path class="cls-1" d="M33.23,212.42c-1.09.72-.42,3.27-2.63,2.65-.64-.19-1.53-1.64-1-2.27A2.53,2.53,0,0,1,33.23,212.42Z"/><path class="cls-1" d="M71.47,3.8c-.9,0-1.75-.43-1.59-1.34.29-1.7,2-1,3-1.37s.61.68.61,1C73.53,3.41,72.74,3.9,71.47,3.8Z"/><path class="cls-1" d="M46.44,13.88c-.94,0-1.76-.34-1.74-1.27,0-1.26,1.44-1.18,2.21-1.74.4.61,1.73.3,1.49,1.56A1.64,1.64,0,0,1,46.44,13.88Z"/><path class="cls-1" d="M133.76,12.84c-.22.95-.95,1-1.78,1.05s-1.84-.42-1.67-1.29c.13-.64.15-1.92,1.5-1.87S133.21,12,133.76,12.84Z"/><path class="cls-1" d="M108.81,31.9c-.08,1.18-1.29,1.31-2,1.37-1.09.1-1.41-1.18-1.53-2-.17-1,.85-1.07,1.66-1.07A1.6,1.6,0,0,1,108.81,31.9Z"/><path class="cls-1" d="M48.27,36.15c-.66,1.06-.73,2.52-2.09,2.12-.48-.14-1.73-.23-1.57-1.47s1-1.56,2.19-1.54C47.63,35.27,47.9,35.78,48.27,36.15Z"/><path class="cls-1" d="M137.5,38.36c-1.3,0-1.62-.74-1.66-1.81,0-.9.19-1.34,1.2-1.3,1.24,0,1.79.5,2,1.82C139.31,38.81,137.68,37.57,137.5,38.36Z"/><path class="cls-1" d="M162.94,95.66a1.77,1.77,0,0,1,1.22,1.93c0,.93-.33,1.82-1.25,1.76a2,2,0,0,1-1.79-1.82C161.14,96.63,162.05,96,162.94,95.66Z"/><path class="cls-1" d="M17.59,107.59c-.42.88-1,1.78-1.92,1.83s-1.25-.83-1.26-1.76.26-1.82,1.2-1.84S17.08,106.77,17.59,107.59Z"/><path class="cls-1" d="M112,106.35c.54.63,1.92.34,1.77,1.68-.13,1.14-.85,1.48-1.91,1.49-.8,0-1.75-.36-1.61-.92C110.5,107.75,110.75,106.56,112,106.35Z"/><path class="cls-1" d="M49,128.9c-1.51.08-3,.66-3.61-1a1.64,1.64,0,0,1,1.29-2C48.74,125.7,48.1,127.71,49,128.9Z"/><path class="cls-1" d="M66.48,131.19c1.46-.58,1.4.24,1.42,1,0,1.32-.65,1.84-1.93,1.87-1,0-1.21-.32-1.25-1.27C64.65,131.22,65.61,131.11,66.48,131.19Z"/><path class="cls-1" d="M148.42,22.69c.13.87-.2,1.3-1.18,1.27-1.26,0-2-.51-2-1.84,0-.85.17-1.62,1.14-1.27S148.6,21.13,148.42,22.69Z"/><path class="cls-1" d="M168.54,147.65c0,1.41-1.27,1.62-2.12,1.85s-1-.7-1-1.45c0-1.05.24-1.81,1.37-2.05C168.18,145.72,167.86,147.21,168.54,147.65Z"/><path class="cls-1" d="M151,150.07c1-.93-1.09-3.36,1.5-3.28.44,0,2,.12,2,.83C154.35,149.44,152.68,149.79,151,150.07Z"/><path class="cls-1" d="M147.52,196.29a1.74,1.74,0,0,1,1.56,1.8c0,.94-.24,1.81-1.12,1.92a2,2,0,0,1-2-1.67C145.79,197.29,147.1,197,147.52,196.29Z"/><path class="cls-1" d="M89.13,119.44c-1.92.1-3.35.66-4-.71-.22-.46.34-2,1.29-2.12C88.26,116.37,87.93,118.29,89.13,119.44Z"/><path class="cls-1" d="M107.11,171.81c.62.61,1.76,1,1.59,2s-1.21,1.23-2.19,1.1c-.72-.09-1.47-.31-1.13-1.23S105.88,171.88,107.11,171.81Z"/><path class="cls-1" d="M106.17,246.65c.72,1.1,3,.74,2.53,2.78a1.31,1.31,0,0,1-1.7,1C105.22,249.7,106.06,248.08,106.17,246.65Z"/><path class="cls-1" d="M63.56,203.92c-1.41,0-3,1.37-3.8-.42a1.35,1.35,0,0,1,.7-1.86C62.43,201,62.36,203.31,63.56,203.92Z"/><path class="cls-1" d="M171.31,119.35c-.79-.26-.9-1-.87-1.84s.48-1.78,1.37-1.62a2,2,0,0,1,1.69,1.88C173.44,118.83,172.26,119,171.31,119.35Z"/><path class="cls-1" d="M106.14,135.84c1,.48,1.86,1.06,1.93,1.95.08,1.14-1.16,1.44-1.94,1.59-1.06.19-1.07-.8-1.13-1.61C104.92,136.77,105.53,136.34,106.14,135.84Z"/><path class="cls-1" d="M161.51,191.29a2.24,2.24,0,0,1,1.75,2.13,1.64,1.64,0,0,1-1.83,1.55c-.87-.16-1.09-1-1.08-1.95A1.92,1.92,0,0,1,161.51,191.29Z"/><path class="cls-1" d="M156.92,222.2c1.19,0,1.55.67,1.56,1.73,0,.72.19,1.6-1.08,1.21-.92-.27-2,0-2.13-1.65S156.5,222.83,156.92,222.2Z"/><path class="cls-1" d="M103.76,204a1.86,1.86,0,0,1-2.24,1.19c-.72-.09-1.5-.29-1.18-1.2s.5-2,1.65-1.85A2.48,2.48,0,0,1,103.76,204Z"/><path class="cls-1" d="M46.26,227.1c1,.33,1.86,1,1.85,1.65s-.28,1.79-1.65,1.59c-.89-.13-1.74-.32-1.76-1.25S45.8,227.79,46.26,227.1Z"/><path class="cls-1" d="M152.69,50.35a1.62,1.62,0,0,1,1.41,1.72c0,.83,0,1.87-1,1.79-.76-.06-2-.42-2.05-1.51S152,50.93,152.69,50.35Z"/><path class="cls-1" d="M113.2,2.39c0,.74.11,1.47-1,1.44s-2-.32-2.12-1.69c-.1-1.12.22-1,1.25-1C112.49,1.1,113.2.91,113.2,2.39Z"/><path class="cls-1" d="M38.31,208.11c0,1.13-.33,2-1.21,2a2,2,0,0,1-1.81-2c0-.1,0-1.87,1.34-1.14C37.32,207.24,38.81,206.6,38.31,208.11Z"/><path class="cls-1" d="M164.16,102.66c.06.78-.29,1.7-1,1.56s-2-.41-2.09-1.55,1.17-1.48,1.94-1.64C164.08,100.82,164.17,101.83,164.16,102.66Z"/><path class="cls-1" d="M153.51,127.54a1.76,1.76,0,0,1-1.88,1.49c-.87,0-1.36-.14-1.34-1.18s.22-1.8,1.17-1.88S152.84,127,153.51,127.54Z"/><path class="cls-1" d="M115.21,238.8c1.16-.5,1.2-2.88,3.06-1.83s-1.17,1.85-.28,2.93C116.6,241,116.42,238.61,115.21,238.8Z"/><path class="cls-1" d="M68.75,243.4c-1.5.47-1.66,2.46-3.28,1.71-1-.47-1-2.07-.58-2.36C66,242.1,67.32,242.36,68.75,243.4Z"/><path class="cls-1" d="M58.25,137c-.57.74-.51,2.06-1.69,2a1.77,1.77,0,0,1-1.64-1.61,1.52,1.52,0,0,1,1.87-1.49C57.53,136.06,58.12,136.18,58.25,137Z"/><path class="cls-1" d="M54.41,132c1.68-.25,3.26-1.24,4,1a1.09,1.09,0,0,1-.75,1.46C55.85,134.69,55.55,133,54.41,132Z"/><path class="cls-1" d="M158,78.66c-1.11.08-2-.24-2-1.22a2,2,0,0,1,1.84-1.8c1,0,1.22.91,1.22,1.82S158.92,78.93,158,78.66Z"/><path class="cls-1" d="M132.83,221a15.93,15.93,0,0,1,1,3.07c.06.52-.54,1.28-1.2,1.09-.88-.26-1.87-.95-1.73-1.87C131.05,222.6,132,222,132.83,221Z"/><path class="cls-1" d="M107.53,1c1-.16,1.06,1,1.15,1.37.2,1-.64,1.49-1.5,1.4s-2.05-.29-2.06-1.24C105.1,1.2,106.5,1.36,107.53,1Z"/><path class="cls-1" d="M112.38,177c.24.75,1.67-.51,1.46,1s-1.53,1.47-2.41,2c-.52.29-1.35-.53-1.15-.92C110.73,178.15,110.75,176.61,112.38,177Z"/><path class="cls-1" d="M151.17,186.24c.63,1.37,3.42-.07,2.87,2.58-.1.49-.29,1.18-1.17.93C151.15,189.24,150.56,188.16,151.17,186.24Z"/><path class="cls-1" d="M71.49,114.55c-1.17.33-1.42-1-1.45-1.46a1.77,1.77,0,0,1,1.6-1.61c1.2-.09,1.43,1.19,1.59,2C73.46,114.54,72.4,114.53,71.49,114.55Z"/><path class="cls-1" d="M168.64,137.73c-.54,1-1,1.9-2,1.88s-1.17-.94-1.2-1.86.41-1.19,1.32-1.21A2.06,2.06,0,0,1,168.64,137.73Z"/><path class="cls-1" d="M164.16,153c.06.79-.29,1.7-1,1.55s-2-.4-2.09-1.55,1.18-1.48,1.95-1.63C164.1,151.16,164.16,152.18,164.16,153Z"/><path class="cls-1" d="M86.34,180c-1.06-.17-1.37-.85-1.5-1.93-.19-1.67,1.19-.71,1.74-1.08s1.5.48,1.33,1.11S87.68,180,86.34,180Z"/><path class="cls-1" d="M157.34,129c-.76-.35-1.74-.67-1.13-1.69.28-.48-.53-1.63.91-1.51,1,.1,1.81.3,2,1.46C159.32,128.71,157.89,128.37,157.34,129Z"/><path class="cls-1" d="M46.67,134.07a2.63,2.63,0,0,1-2-1.8A1.1,1.1,0,0,1,46,131c.85.22,2,.7,2.28,1.38C48.84,133.64,47.11,133.34,46.67,134.07Z"/><path class="cls-1" d="M102.76,146.15a1.34,1.34,0,0,1,1,1.59c-.15.69-.42,1.74-1.12,1.66s-2-.39-1.94-1.59S102.05,146.75,102.76,146.15Z"/><path class="cls-1" d="M28.2,128.06c-1.1-.09-1,1.8-2.13,1.42-.5-.17-1.76-.28-1.49-1.16s.91-2.07,2.17-1.62C27.22,126.87,28.32,126.88,28.2,128.06Z"/><path class="cls-1" d="M171.38,129.47a1.3,1.3,0,0,1-.9-1.56c.15-.69.41-1.74,1.11-1.66s2,.38,1.94,1.58S172.19,128.94,171.38,129.47Z"/><path class="cls-1" d="M52.67,108c-.49.54.25,1.92-1.34,1.56-.94-.22-1.79-.62-1.59-1.47a2,2,0,0,1,2-1.64A1.11,1.11,0,0,1,52.67,108Z"/><path class="cls-1" d="M98.77,178.08c-.12,1.29-.64,1.84-1.6,1.88-1.31.06-1.21-1.2-1.49-1.91-.21-.5.55-1.25,1.13-1.14C97.59,177.07,98.52,177.36,98.77,178.08Z"/><path class="cls-1" d="M173.45,140.71c0,1.49.76,2.66-.39,3.73-.53-.89-1.64.63-1.92-.33C170.69,142.58,171.65,141.64,173.45,140.71Z"/><path class="cls-1" d="M73.54,263c.1,1.55-1.14,1.48-1.84,1.78-.55.24-1.35-.61-1.19-1.06.26-.72.12-2,1.42-2A1.47,1.47,0,0,1,73.54,263Z"/><path class="cls-1" d="M15.35,151.09c.72.65,2,.62,2.13,1.64.19,1.35-1.23,1.68-2,1.84-1,.2-.46-1.08-.75-1.53C14,151.92,14.86,151.64,15.35,151.09Z"/><path class="cls-1" d="M38.32,228.52c.24,1.67-1.24.48-1.8,1-.37.37-1.46-.53-1.24-1.26s.9-1.83,1.94-1.69S38.46,227.62,38.32,228.52Z"/><path class="cls-1" d="M141.8,16c1.06.54,2.38.67,2.07,1.8a2.19,2.19,0,0,1-2.22,1.12c-.8-.07-1.47-.59-1.31-1.34S141.75,16.92,141.8,16Z"/><path class="cls-1" d="M98.11,254.27c0,.64,0,1.29-1.11,1.22-.81-.05-1.86,0-1.75-1,.08-.78.43-2,1.54-2C97.74,252.36,98.12,253.19,98.11,254.27Z"/><path class="cls-1" d="M127,101.3c.83.45,1.78,1,1.81,1.91s-.85,1.16-1.77,1.31c-1.67.27-.82-1.13-1.13-1.66C125.46,102,126.36,101.67,127,101.3Z"/><path class="cls-1" d="M96.84,181.24c1.64-.49.78,1.06,1.09,1.59.49.82-.4,1.49-1,1.46A2,2,0,0,1,95,182.53C95,181.62,95.81,181.17,96.84,181.24Z"/><path class="cls-1" d="M31.42,207.05c1.16.26,1.37,1.32,1.54,2.12.06.27-1,1-1.86,1s-1.52-.36-1.26-1.13S30.27,207.16,31.42,207.05Z"/><path class="cls-1" d="M108.16,178.78c.17.92-.26,1.18-1.18,1.22-1.11.05-1.42-.4-1.35-1.43s.41-1.72,1.35-1.65S108.24,177.83,108.16,178.78Z"/><path class="cls-1" d="M173.59,122.46c-.13,1.41-1.23,1.65-2,1.82-1,.23-1-.77-1.16-1.56-.28-1.6,1.08-.82,1.62-1.12C173,121.09,173.08,122.25,173.59,122.46Z"/><path class="cls-1" d="M118.94,128.44c-1.33-.34-2.8,1.73-3.82-.2-.36-.68.36-.92.91-1.26C118,125.72,117.92,128,118.94,128.44Z"/><path class="cls-1" d="M45.78,225.36c-.58-1.45-1-2.82.35-3.72.82-.54.88.45,1.18.92C48.64,224.7,46.12,224.29,45.78,225.36Z"/><path class="cls-1" d="M83.85,118.69c-1.61.31-3,.75-3.88-.65-.53-.83.45-.91.94-1.15C82.8,115.94,83,117.55,83.85,118.69Z"/><path class="cls-1" d="M3.15,113.13c-.29.89-.74,1.37-1.57,1.41-1.34.08-1.24-1.18-1.54-1.88-.22-.52.49-1.22,1.11-1.19C2.18,111.52,2.53,112.54,3.15,113.13Z"/><path class="cls-1" d="M147.16,101.33c.68.21,1.38.71,1.17,1.24-.28.71-.19,1.94-1.51,1.91-.85,0-1.52-.53-1.45-1.25C145.45,102.28,146.32,101.73,147.16,101.33Z"/><path class="cls-1" d="M153.92,107.92c-1.28-.14-1.72,2.78-3.31.94-.74-.86.13-1.24.54-1.75C152.64,105.28,153.05,107.42,153.92,107.92Z"/><path class="cls-1" d="M142.17,156.07c1.65-.46.72,1.09,1.07,1.62.51.76-.36,1.4-1,1.45-1.22.08-1.44-1.16-1.62-1.92C140.34,156.21,141.29,156.05,142.17,156.07Z"/><path class="cls-1" d="M37.68,108.4c.16,1.09-.54,1.07-1.31,1.12-1.28.09-1.25-.69-1.19-1.56s.54-1.7,1.47-1.51A1.54,1.54,0,0,1,37.68,108.4Z"/><path class="cls-1" d="M32.42,220.11a2.91,2.91,0,0,1-1.6-1.72A1.39,1.39,0,0,1,32,216.54c.78-.09,1.23.6,1.32,1.4A2,2,0,0,1,32.42,220.11Z"/><path class="cls-1" d="M83.75,31.29c-.54,1.06-1.08,1.88-2,2-.63.09-1.33-.65-1.13-1.15.28-.71.17-1.91,1.5-1.92C83,30.22,83.2,30.94,83.75,31.29Z"/><path class="cls-1" d="M127,197c.77.2,1.53.73,1.24,1.41s-.27,2-1.65,1.73c-.87-.18-.91-.58-1-1.58C125.39,197,126.76,197.67,127,197Z"/><path class="cls-1" d="M25.22,201.53c1.12.53,2.5.69,2.72,2.25-1.28-.38,0,1.94-1.37,1.33C25.07,204.41,25,203,25.22,201.53Z"/><path class="cls-1" d="M20.23,28.81c.77-1,0-3,2-2.89a1.36,1.36,0,0,1,1,1.7C22.78,29.3,21.55,29.08,20.23,28.81Z"/><path class="cls-1" d="M156.4,214.16c-.9.45-1.57.26-1.3-.83.2-.8.47-2,1.67-1.81.91.14,1.14,1,1.11,1.92C157.85,214.72,157.35,214.86,156.4,214.16Z"/><path class="cls-1" d="M163.06,52.32c-.84.48-.47,1.91-1.57,1.74-.89-.15-1.17-1-1.12-1.93s.44-1.81,1.34-1.63C162.24,50.6,162.59,51.65,163.06,52.32Z"/><path class="cls-1" d="M12.19,79.16c-.67-.6-1.63-1-1.53-2.15.07-.77.48-1.52,1.31-1.41s1.22.92,1.21,1.86A1.69,1.69,0,0,1,12.19,79.16Z"/><path class="cls-1" d="M67.83,203.56c-.71.31.46,1.93-1.21,1.61-.8-.15-1.78-.17-1.54-1.17.18-.76.4-2,1.62-1.93A1.18,1.18,0,0,1,67.83,203.56Z"/><path class="cls-1" d="M81.8,202c.64.31,1.5.69,1.06,1.5-.29.54.49,1.91-1.11,1.65C81,205,80,205,80.17,204,80.34,203.26,80.57,202.14,81.8,202Z"/><path class="cls-1" d="M147,194.47c-.46-.72-2.18-.41-1.66-1.68.28-.69,1.46-1.2,2.33-1.39s.66.76.7,1.29A1.56,1.56,0,0,1,147,194.47Z"/><path class="cls-1" d="M53.33,131.93c.35,1.79-1,1.61-1.67,2-.29.17-1.16-.62-1.77-1,.82-.45.48-1.86.92-1.94C51.81,130.84,52.2,132.5,53.33,131.93Z"/><path class="cls-1" d="M22.57,62.29c-.15.69-.83,1.57-1.31,1.18s-2,.66-1.83-1c.07-.83.1-1.9,1-1.79A2.22,2.22,0,0,1,22.57,62.29Z"/><path class="cls-1" d="M103.12,182.33c0,1.22-.39,2-1.32,2-.76,0-1.28-.83-1.67-1.54,1,0,.55-1.78,2-1.57C103.16,181.34,103.24,181.8,103.12,182.33Z"/><path class="cls-1" d="M144.4,209.33c-1.51.2-2.79.71-3.4-.17s.45-1.83,1-3Z"/><path class="cls-1" d="M116.69,38.41c-.5-.67-2-.5-1.6-1.88.17-.63.58-1.27,1.2-1.18a2.15,2.15,0,0,1,1.85,1.81C118.25,37.93,117.49,38.35,116.69,38.41Z"/><path class="cls-1" d="M123.88,228.36c0,.87-.09,1.85-1.13,1.61-.77-.17-2-.39-1.93-1.6.05-.67.67-1.55,1.44-1.05C122.79,227.66,124.32,226.72,123.88,228.36Z"/><path class="cls-1" d="M91.79,33.38a1.83,1.83,0,0,1-1.27-1.86c-.06-1.2.54-1.27,1.48-1.3,1.12,0,1,.65,1.06,1.38A1.62,1.62,0,0,1,91.79,33.38Z"/><path class="cls-1" d="M38.87,122.62l-3.35,2.14c-.45-1.19-.71-2.2.31-3S37.5,122.24,38.87,122.62Z"/><path class="cls-1" d="M83,177.38c.07,1-.24,1.81-1.21,1.89-.74.06-1.57-.67-1.15-1.36s-.56-2,1.12-1.76C82.67,176.27,83.13,176.45,83,177.38Z"/><path class="cls-1" d="M162.65,146.69c.33.72,1.64-.32,1.56,1.14-.07,1.17-.49,1.41-1.5,1.33s-1.73-.43-1.61-1.42A1.23,1.23,0,0,1,162.65,146.69Z"/><path class="cls-1" d="M7.21,146.17A9,9,0,0,1,8.1,148c.43,1.64-1.1.65-1.63,1-.73.53-1.38-.39-1.42-1C5,146.79,6.2,146.74,7.21,146.17Z"/><path class="cls-1" d="M156.29,151.16c.72.56,1.93.56,2.14,1.57.17.79-.55,1.56-1.23,1.35s-1.92-.2-1.86-1.54A1.65,1.65,0,0,1,156.29,151.16Z"/><path class="cls-1" d="M112.29,130.89c.93.11,1.5.57,1.46,1.18A2.26,2.26,0,0,1,112,134c-.63.19-1.23-.51-1.24-1.09C110.73,131.8,111.88,131.56,112.29,130.89Z"/><path class="cls-1" d="M108.18,132.54c-.22,1.39-1.28,1.61-2.06,1.84s-1.1-.6-1.09-1.32c0-1.28,1.25-1.09,2-1.44C107.21,131.51,107.85,132.27,108.18,132.54Z"/><path class="cls-1" d="M21.63,176.34c.49,1.23,2.13,2,.92,3.31-.8.86-1.26-.11-1.76-.54C18.94,177.51,21.33,177.21,21.63,176.34Z"/><path class="cls-1" d="M13.16,72.29c0,.83-.1,1.75-1.08,1.72-.34,0-1.48-.07-1.45-1.19a2.11,2.11,0,0,1,1.56-2C12.83,70.6,13.22,71.51,13.16,72.29Z"/><path class="cls-1" d="M138.71,214.29c-.63.3-1.18,1.05-2.12.9-1.12-.17-.11-1.18-.65-1.79-.37-.42.48-1.35,1.23-1.27C138.24,212.25,138.37,213.36,138.71,214.29Z"/><path class="cls-1" d="M76.62,247.3c1.31.27,1.34,1.43,1.74,2.27a.81.81,0,0,1-1.09.56c-1.11-.32-2.08-.7-2.28-1.86C75,248,76.09,247.61,76.62,247.3Z"/><path class="cls-1" d="M57.89,233.23c-.51.78-.31,2-1.67,2.11s-.44-1.15-.7-1.67c-.49-1,.76-1.89,1.7-2S56.73,232.93,57.89,233.23Z"/><path class="cls-1" d="M70.68,206.39c.79.59,2.33,0,2.34,1.49,0,.77-.54,1.84-1.45,1.57C70,209,70.24,207.69,70.68,206.39Z"/><path class="cls-1" d="M96.87,275a1.64,1.64,0,0,1-1.29-1.51c-.15-1.61,1.34-.84,2-1.31s1.17.42,1.09.91A3,3,0,0,1,96.87,275Z"/><path class="cls-1" d="M36.77,40.29c.77.05,1.51.56,1.32,1-.36.83-.45,2.2-1.82,2.09-.55,0-1.28-.73-1-1.29S35.49,40.1,36.77,40.29Z"/><path class="cls-1" d="M174.2,137.74c.16,1-.15,1.4-1.15,1.36s-1.76-.23-1.89-1.18c-.11-.79.82-1.62,1.29-1.23S174.57,136.11,174.2,137.74Z"/><path class="cls-1" d="M12.26,65.58a2,2,0,0,1,.89,2.15c-.09.72-.38,1.42-1.18,1.18-.52-.17-1.5-.16-1.34-1.29S11.6,66.13,12.26,65.58Z"/><path class="cls-1" d="M111,276.65c.71.86,2.27.22,2.3,1.69,0,.75-.53,1.83-1.44,1.58C110.29,279.48,110.53,278.17,111,276.65Z"/><path class="cls-1" d="M.83,119.41C0,118.23-.32,117,1,115.9c.33-.27,1.16-.29,1.33.27A2.53,2.53,0,0,1,.83,119.41Z"/><path class="cls-1" d="M51.43,35.3c1.19-.2,1.4.36,1.38,1.24s-.32,1.81-1.28,1.79-1.69-.73-1-1.7C50.9,36.19,49.63,34.4,51.43,35.3Z"/><path class="cls-1" d="M98.69,31.82c-.63.55-1,1.58-1.89,1.48s-1.41-.62-1-1.77c.26-.79.12-1.44,1.37-1.35S97.33,32.08,98.69,31.82Z"/><path class="cls-1" d="M52.78,284c-.57.64-1,1.73-2,1.56-.44-.07-1-1.07-1-1.64,0-1.13,1.24-1.14,2-1.28C52.16,282.55,52.79,283.2,52.78,284Z"/><path class="cls-1" d="M178.09,110c-1-1.6-3-1.31-2.55-3.19.13-.57.7-1.24,1.35-1C178.61,106.48,177.83,108,178.09,110Z"/><path class="cls-1" d="M15,163.27c.22-1,.72-1.46,1.51-1.52s1.78.49,1.36,1c-.55.69-.31,1.91-.86,2C16,165,15.72,163.66,15,163.27Z"/><path class="cls-1" d="M163.26,47.16c-1,.61-.68,2-1.71,1.87s-1.17-.9-1.19-1.82a2,2,0,0,1,.93-1.79A3.71,3.71,0,0,0,163.26,47.16Z"/><path class="cls-1" d="M17.51,166.22v3.44c-1-.24-2.23-.43-2.37-1.49C15,166.84,16.41,166.84,17.51,166.22Z"/><path class="cls-1" d="M71.46,201.9c.89.39,1.78.84,1.32,1.57-.34.54.55,1.75-1.11,1.76s-.77-1.2-1.11-1.73C70,202.6,71.24,202.5,71.46,201.9Z"/><path class="cls-1" d="M75.54,203.59a1.13,1.13,0,0,1,1.25-1.5c.65,0,1.57.75,1,1.47-.44.51.64,1.51-.84,1.66S76,204.27,75.54,203.59Z"/><path class="cls-1" d="M158.49,168.18c-.68.44-.29,1.83-1.67,1.75-1-.06,0-1.77-1.28-1.49.37-.83.9-1.61,1.85-1.6A1.33,1.33,0,0,1,158.49,168.18Z"/><path class="cls-1" d="M89.11,182c2.2.2,3.68-.43,4.51.94.34.54-.45.65-.86.92C90.87,185.08,90.68,183.24,89.11,182Z"/><path class="cls-1" d="M12.16,99.24c-.54-.33-1.37-.8-1.44-1.61s.78-1.5,1.49-1.71c.46-.14.95.56.94,1.25S13.37,98.89,12.16,99.24Z"/><path class="cls-1" d="M22.59,87.62c-.47.68-.76,1.42-1.93.89-.62-.29-1.3.08-1.27-1.16,0-1.63,1.29-.51,1.87-1S22.43,86.83,22.59,87.62Z"/><path class="cls-1" d="M21,81.27a1.14,1.14,0,0,1,1.46,1.14c0,.85-.62,1.68-1.64,1.06-.46-.28-1.49.59-1.5-1S20.67,81.92,21,81.27Z"/><path class="cls-1" d="M13.14,82.49c.1.82-.24,1.68-.93,1.59a1.75,1.75,0,0,1-1.49-1.69,1.87,1.87,0,0,1,1.6-1.61C12.91,80.78,13.32,81.71,13.14,82.49Z"/><path class="cls-1" d="M62.84,137.57a1.31,1.31,0,0,1-1,1.43c-1,.12-1.44-.63-1.47-1.57,0-.72-.2-1.5,1-1.5S62.14,137.23,62.84,137.57Z"/><path class="cls-1" d="M42.73,268.64c-.23.9-1,1.29-1.58,1.85-.51-.73-1.3-1.39-1.48-2.19-.34-1.57,1.14.2,1.65-.72C41.62,267,42.4,268,42.73,268.64Z"/><path class="cls-1" d="M138.83,198c-.62.52-1,1.58-1.89,1.37-.66-.16-1.59-.77-1.43-1.6a1.92,1.92,0,0,1,1.57-1.05A1.71,1.71,0,0,1,138.83,198Z"/><path class="cls-1" d="M88,207.92a1.22,1.22,0,0,1-1.18,1.55c-.73,0-1.56-.68-1.12-1.4.34-.53-.55-1.72,1.1-1.76S87.13,207.78,88,207.92Z"/><path class="cls-1" d="M93,208c.07.88-.49,1.5-1.21,1.43s-1.61-.65-1-1.73c.26-.48-.45-1.41,1-1.42C93.47,206.31,92.25,207.73,93,208Z"/><path class="cls-1" d="M62.88,128.33c0,.64.1,1.27-.86,1.31-1.34.06-1.29-1.16-1.58-1.87-.23-.55.5-1.23,1.12-1.2C62.55,126.62,62.89,127.4,62.88,128.33Z"/><path class="cls-1" d="M133.28,137.56c.07.89-.49,1.5-1.22,1.43s-1.6-.65-1-1.72c.27-.48-.44-1.42,1-1.42C133.74,135.84,132.51,137.27,133.28,137.56Z"/><path class="cls-1" d="M5.83,136.71a1.11,1.11,0,0,1,1.58.91c.17,1.15-.93,1.6-1.75,1.65-1.26.08-1-1.41-1.16-2C4.13,136,5.76,138,5.83,136.71Z"/><path class="cls-1" d="M62.79,36.79c.13,1-.45,1.54-1.17,1.54s-1.57-.68-1.13-1.39c.34-.54-.54-1.72,1.11-1.76S62,36.65,62.79,36.79Z"/><path class="cls-1" d="M164.14,142.88c.36,1.71-1.17.62-1.73,1.1s-1.37-.42-1.31-1.18.64-1.53,1.46-1C163.09,142.08,164.66,141.18,164.14,142.88Z"/><path class="cls-1" d="M158.37,109.76c-1.33-.63-2.12-1.18-2.33-2.1-.15-.64.52-1.2,1.11-1.23,1.36-.05,1.2,1.45,1.85,2.16C159.11,108.7,158.55,109.43,158.37,109.76Z"/><path class="cls-1" d="M77,134.67c-.59-.77-1.65-1.1-1.48-2,.11-.64.72-1.47,1.54-.9.51.36,1.76.18,1.47,1.18C78.34,133.57,77.55,134.06,77,134.67Z"/><path class="cls-1" d="M57.73,108c-.58.4.42,1.74-1.27,1.63-1.48-.1-.64-1.08-.91-1.55-.58-1,.27-1.62,1.12-1.6A1.14,1.14,0,0,1,57.73,108Z"/><path class="cls-1" d="M157.88,33.15c0,.67-.37.89-1,.85-1.34-.09-1.65-1-1.58-2.11,0-.5.1-1.24.74-1A2.59,2.59,0,0,1,157.88,33.15Z"/><path class="cls-1" d="M135.38,280c-.26-1.67-.39-2.91,1.4-3.14.65-.09.84.25,1,.85C138.27,279.8,136.26,279.16,135.38,280Z"/><path class="cls-1" d="M103.6,31.22c-.62.92-.62,2.15-1.82,2.09-.58,0-1.27-.59-1.1-1.22a2.36,2.36,0,0,1,1.87-1.78C103.12,30.22,103.51,30.77,103.6,31.22Z"/><path class="cls-1" d="M152.88,56c.67,0,1.24,0,1.21,1,0,1.33-1.25,1.22-2,1.47-.48.17-1.2-.55-1.1-1.22C151.16,56.27,151.94,56,152.88,56Z"/><path class="cls-1" d="M133.19,282.1c-.72.8.05,2.69-2,2.34-.8-.14-1.14-.43-1-1.16C130.63,281.59,131.85,281.76,133.19,282.1Z"/><path class="cls-1" d="M51.67,249.93c-.79-.42-1.41-.72-1.34-1.43.11-1.14,1.27-1.25,2-1.58.53-.23,1.22.57,1,1.07A9.16,9.16,0,0,1,51.67,249.93Z"/><path class="cls-1" d="M46.49,106.35c.7.3,1.58.76,1.12,1.49-.34.54.56,1.74-1.1,1.75s-.78-1.19-1.11-1.73C44.92,107.08,45.83,106.68,46.49,106.35Z"/><path class="cls-1" d="M88,248.62c-.58.49-.31,1.76-1.34,1.74-.76,0-1.21-.7-1.17-1.56a1.34,1.34,0,0,1,1.29-1.44C87.44,247.35,87.87,247.91,88,248.62Z"/><path class="cls-1" d="M166.64,166.16c.87-.08,1.35.08,1.31,1s0,1.85-1,1.86c-.5,0-1.26-.85-1.44-1.45C165.28,166.75,166,166.33,166.64,166.16Z"/><path class="cls-1" d="M109.59,174.06c1.09-1.15,1.35-2.49,2.79-2a1,1,0,0,1,.67,1.43C112.32,174.64,111.22,174.38,109.59,174.06Z"/><path class="cls-1" d="M31.36,126.49a2.84,2.84,0,0,1,1.87,1.78c.22.64-.44.73-1,.75-1,0-1.89-.13-2-1.25C30.12,127.12,30.74,126.76,31.36,126.49Z"/><path class="cls-1" d="M126.85,135.78c1.81.33.8,1.37,1.33,2,.34.38-.48,1.39-1.28,1.25-.63-.12-1.49-.73-1-1.54C126.32,136.9,126.19,135.6,126.85,135.78Z"/><path class="cls-1" d="M52.46,135.52c.45,1.7.7,2.92-.82,3.5-.55.21-1.07-.37-1.16-.77C50.14,136.63,51.6,136.53,52.46,135.52Z"/><path class="cls-1" d="M42.75,218.71c-.14.81-.58,1.67-1.31,1.4a2.6,2.6,0,0,1-1.13-1.88,1.1,1.1,0,0,1,1.25-1.07A1.46,1.46,0,0,1,42.75,218.71Z"/><path class="cls-1" d="M12.09,85.79A1.26,1.26,0,0,1,13.14,87c0,.81.19,1.89-.75,2.06-.48.08-1.45-.78-1.65-1.39C10.47,86.77,11.55,86.39,12.09,85.79Z"/><path class="cls-1" d="M46,216.47c.59.94,2.47,1.07,1.26,2.72-.81,1.1-1.7-.63-2.38.28C44,217.9,46.67,217.94,46,216.47Z"/><path class="cls-1" d="M116.1,175.28c-.56-1.53-.67-2.61.47-3.34.68-.44,1.28.17,1.44.68C118.45,174.05,117.11,174.31,116.1,175.28Z"/><path class="cls-1" d="M172.92,155.69c-.07,1.84.63,3.39-.87,3.93-.82.29-1.27-1.22-1.33-1.81C170.59,156.46,172.32,157.14,172.92,155.69Z"/><path class="cls-1" d="M11.71,51.05c1-.12,1.47.09,1.46,1s0,1.84-1,1.86c-.49,0-1.24-.85-1.44-1.45C10.45,51.54,11.4,51.34,11.71,51.05Z"/><path class="cls-1" d="M17.63,157.69c-.24.92-.67,1.5-1.27,1.45-1.12-.08-1.39-1-1.32-2,0-.49,0-1.28.66-1A7.9,7.9,0,0,1,17.63,157.69Z"/><path class="cls-1" d="M127.67,288.19c.12.91-.22,1.33-1.18,1.27-.73,0-1.49,0-1.33-1.08a1.55,1.55,0,0,1,1.65-1.45C127.78,286.9,127.62,287.61,127.67,288.19Z"/><path class="cls-1" d="M12.24,100.85a1.69,1.69,0,0,1,.92,1.78c0,.65,0,1.24-.94,1.22s-1.48-.48-1.5-1.22S11.6,101.32,12.24,100.85Z"/><path class="cls-1" d="M21.29,166.74c.69.26,1.35.62,1.23,1.28-.15.83-.76,1.71-1.69,1-.46-.37-1.5.77-1.41-.68S20.9,167.51,21.29,166.74Z"/><path class="cls-1" d="M66.41,35.21c1,.28,1.45.74,1.48,1.59a1.38,1.38,0,0,1-1.19,1.55,1.13,1.13,0,0,1-1.24-1.11A6.92,6.92,0,0,1,66.41,35.21Z"/><path class="cls-1" d="M59.54,239.48c.64-1.13,1-2.31,2.42-2.08a1,1,0,0,1,.76,1.45C62,240.06,60.89,239.88,59.54,239.48Z"/><path class="cls-1" d="M47.52,280.68c-.92-1.19-2.67-1.6-2.15-3.48a.83.83,0,0,1,.74-.25C47.38,277.77,48.19,278.81,47.52,280.68Z"/><path class="cls-1" d="M173.38,151.24c.61,1.49-.25,2.4-.65,3.43C170,153,171.12,152,173.38,151.24Z"/><path class="cls-1" d="M13,63.75c-.61-1.2-2.78-.14-2.29-2.13.15-.59.61-1.29,1.26-1.11C13.38,60.9,13.27,62.09,13,63.75Z"/><path class="cls-1" d="M17.54,147.84c-.19,1.27-1.36,1.25-2.09,1.73-.24.16-1-.39-.75-.93.39-.76.46-2,1.68-1.95A1.29,1.29,0,0,1,17.54,147.84Z"/><path class="cls-1" d="M13.14,92.45c0,1-.19,1.8-1.05,1.65-.51-.09-1.47-.65-1.15-1.47s.41-1.89,1.4-1.78A1.16,1.16,0,0,1,13.14,92.45Z"/><path class="cls-1" d="M44.6,213c1.11-.41,2-1.69,3-.15.43.71.37,1.66-.39,1.87C45.85,215.11,45.56,213.61,44.6,213Z"/><path class="cls-1" d="M27.15,231.59c.17,1.2,1.41,2.31.33,3.54-.3.33-.72.28-1-.15C25.48,233.69,25.9,232.61,27.15,231.59Z"/><path class="cls-1" d="M138.36,137.64a1.3,1.3,0,0,1-1.1,1.35c-.88,0-1.81-.81-1.16-1.51s-.82-1.45.53-1.56S137.66,137.22,138.36,137.64Z"/><path class="cls-1" d="M38.17,205.12c-1.59-.6-3-.59-2.9-2.06a1.27,1.27,0,0,1,1.62-1C38.65,202.53,37.12,204,38.17,205.12Z"/><path class="cls-1" d="M76.54,171.8c.82.13,1.65.92,1.3,1.33-.52.6.52,1.58-.67,1.81S76,174,75.62,173.43C75.07,172.59,76,172.24,76.54,171.8Z"/><path class="cls-1" d="M16.68,41.08c.64.36,1.93,0,1.54,1.5-.16.64-.5,1.41-1,1.23-.85-.33-1.79-1-1-2.2Z"/><path class="cls-1" d="M16.25,41.61c-.59-.21-.68-.6-.42-1.13l.85.6Z"/><path class="cls-1" d="M80,23.32l.52.52C80,23.92,79.84,23.78,80,23.32Z"/><path class="cls-1" d="M97.22,118.67c2.35-2.37,3.28,1.39,5.16,1-.27,1-1,1.17-1.67,1.35-.87.23-.48,2.39-1.7,1.33-.4-.35-2.77-1.33-1-2.93l-.87-.81Z"/><path class="cls-1" d="M63.75,22.25c1.56,1.47,1.79,3,.73,4.69C62.59,25.61,62.58,24.05,63.75,22.25Z"/><path class="cls-1" d="M60.39,24.25c-.21,1-.67,1.44-1.46,1.57-1.1.17-1-.53-1.13-1.3-.18-1.22.88-1.46,1.45-1.56C60.09,22.81,59.47,24.27,60.39,24.25Z"/><path class="cls-1" d="M124.31,123.43c.2-1.51-2.1-3-.34-4a1.84,1.84,0,0,1,2.67,2C126.61,121.72,125.11,122.58,124.31,123.43Z"/><path class="cls-1" d="M129.81,123.51a1.44,1.44,0,0,1,1,1.29c.06,1.13-.87,1.52-1.49,2.14-.34-.53-.9-1-1-1.61C128.28,124.41,129.26,124.08,129.81,123.51Z"/><circle class="cls-1" cx="31.74" cy="37.42" r="1.69"/><circle class="cls-1" cx="31.74" cy="32.07" r="1.69"/><circle class="cls-1" cx="36.66" cy="32.07" r="1.69"/><circle class="cls-1" cx="41.41" cy="32.13" r="1.69"/><circle class="cls-1" cx="41.15" cy="26.94" r="1.69"/><circle class="cls-1" cx="46.57" cy="27.09" r="1.69"/><circle class="cls-1" cx="51.55" cy="26.94" r="1.69"/><circle class="cls-1" cx="56.57" cy="32.44" r="1.69"/><circle class="cls-1" cx="56.59" cy="27.45" r="1.69"/><circle class="cls-1" cx="61.63" cy="27.45" r="1.69"/><circle class="cls-1" cx="66.67" cy="27.45" r="1.69"/><circle class="cls-1" cx="66.67" cy="22.95" r="1.69"/><circle class="cls-1" cx="71.51" cy="22.95" r="1.69"/><circle class="cls-1" cx="71.51" cy="17.34" r="1.69"/><circle class="cls-1" cx="66.68" cy="17.57" r="1.69"/><circle class="cls-1" cx="61.64" cy="22.95" r="1.69"/><circle class="cls-1" cx="56.59" cy="22.95" r="1.69"/><circle class="cls-1" cx="51.69" cy="22.44" r="1.69"/><circle class="cls-1" cx="56.09" cy="17.66" r="1.69"/><circle class="cls-1" cx="56.59" cy="37.13" r="1.69"/><circle class="cls-1" cx="36.66" cy="26.94" r="1.69"/><circle class="cls-1" cx="26.64" cy="36.88" r="1.69"/></g></g></svg>