<svg xmlns="http://www.w3.org/2000/svg" viewBox="0 0 360.89 324.44"><defs><style>.cls-1{fill:#fff;}.cls-2{fill:#878787;}</style></defs><title>vite</title><g id="Capa_2" data-name="Capa 2"><g id="Capa_1-2" data-name="Capa 1"><rect class="cls-1" width="360.89" height="324.44"/><path class="cls-2" d="M166.51,134.4a5.08,5.08,0,0,1,1.71.08c1.83.79,1.8.83,3.51-.55.2-.16.64-.31.78-.2,3.45,2.57,7.38.73,11,1.28,2.41.36,3.76-.29,4.75-2.3l.87.81c-1.82,1.59.55,2.57.95,2.93,1.22,1.06.83-1.1,1.7-1.34a1.93,1.93,0,0,0,1.67-1.34c-1.88.37-2.81-3.39-5.16-1l-7.35,1c1.17-3.14,1.16-3.13,3.3-1.62.24.17.75.34.83.25,1.74-2,4.33-1.2,6.38-2,1-.39,1.94-.74,2.54-.13s1.3,1.54.72,2.48a3,3,0,0,0,0,3.19,1.8,1.8,0,0,1-.53,2.51c-1,.5-2.19.75-3-.28-.38-.47-.68-.94-1.11-.42a3.35,3.35,0,0,0-.71,1.91c0,.3.68.7,1.12.92.15.08.49-.33.76-.36,1.39-.18,3.05-.91,3.62,1.16s-1,2.4-2.69,2.7c.71,1.36,3,.82,2.78,2.91a2.26,2.26,0,0,1-2,2.08c1.72,1.43,2.3,2.78,1.65,5-.44,1.51.86,2.94,2.88,1.92.81-.41,1.16,0,1.56.46a.89.89,0,0,1-.41,1.51c-2.06.73-1,1.61-.11,2.31,2.87,2.19,1,5.16,1.22,7.74.08,1.16-1.63,1.2-2.58.8-1.35-.57-1.21-1.82-.71-2.93.37-.83,1.36-.65,2.5-.92-2.23-1.39-4.18-2.55-2.28-5.29.35-.5-.44-1.76-1.75-1.09-.83.43-2.29.72-2.39-.17-.31-2.76-2.21-5.35-1.13-8.22.69-1.83-.42-2-1.6-1.94-2.46.18-3.78-.34-2.25-3,.44-.76.81-1.39-.44-1.46-1.1-.06-.58-3-2.62-1.35-.81.65-1.89,1.14-2.88-.21-.56-.76-1.43-.08-2.22.24-1.1.44-2.08,1.52-3.56.76-.73-.38-1.77.66-1.56,1,1.14,2.08-.32,3.82-.42,5.69-.2,4-1,4.79-4.66,3.28a1.54,1.54,0,0,0-1.06-.1,1.15,1.15,0,0,1-1.44-1.2,1.18,1.18,0,0,1,1.49-1.15c2.79.45,3.14-.54,3.06-3.36-.07-2.46-1-5.12.25-7.65.44-.87-.38-1.84-1-2.39-1.17-1-.55.75-1.2,1a2.81,2.81,0,0,1-2.61.08c-1-.6-.76-1.6-.59-2.54.1-.54,1.22-.66.59-1.48Z"/><path class="cls-2" d="M195.16,273.27c1.12-1.89,2-3.35,4.47-2,1.09.62,2.27-.48,3.39-1.41-1.69-.62-2.37-1.72-1.69-3.29a1.81,1.81,0,0,1,2.47-.76c1.65.7,1.39,2.33.87,3.51-.39.9-.26,1.3.33,1.82s.92.14,1.33-.22c.62-.54.31-.93,0-1.58-1-2.41.23-4.18,2.68-3.52,2.66.72,3,.17,2.23-2.32-.56-1.81.38-3.36,2.45-2.7,1.52.48,3.14.58,4-.27,1.64-1.64,2.37,2,3.67.34,1.05-1.34-.86-2.72-.06-4s1.64-2.85,3.29-1.2c1.16,1.16,1.81,0,2.76-.16-.3-1.27-2.62-1.79-1.4-3.56,1.07-1.55,2.41-1.68,4-.74a1.9,1.9,0,0,0,1.78-.19c1.27-1.25,2.34-.49,3,.4a1.78,1.78,0,0,1-.48,2.73c-1.23.63-2.43.5-3-1.05-.11-.28-.19-.62-.93-.4-.32,1.26-3.21,2.22-.38,4.29.49.36.24,2-.87,2.33-1.61.54-2.82,0-3.4-2-.39,1.66-2.34,2.55-.82,4.65a1.6,1.6,0,0,1-2,2.35c-2.11-.95-3.22.15-4.65,1.12,1.69.58,2.36,1.84,1.42,3.3-.79,1.24-2.14,1.14-3.2,0-.64-.67-1.23-.74-1.8,0a2.81,2.81,0,0,1-2.63,1c-4-2.56-2.33.47-2.13,2.08.2,1.77-.56,3.36-2.34,2.51-2.06-1-3,.26-4.39,1.08,1.26.54,2,1.39,1.68,2.79-.25,1.17-1.13,1.38-2.15,1.3a1.67,1.67,0,0,1-1.54-2.46c.77-1.83,0-3-1.08-4.19-.33,1.23-1,2.38-.33,3.87a1.88,1.88,0,0,1-.92,2.67c-.74.27-1.89.45-2.25-.41s-1.74-1.75-.13-2.86c.61-.43.29-1.35-.33-1.91a1.24,1.24,0,0,0-1.7-.17,1.91,1.91,0,0,1-3.29-.41,1.93,1.93,0,0,1,1-2.87C193.93,270.42,195,271.22,195.16,273.27Z"/><path class="cls-2" d="M257.84,134.68c1.41.23,2.63.59,2.47,2.34a1.6,1.6,0,0,1-1.21,1.61,2.08,2.08,0,0,1-2.81-1.69c-2.19,2-.64,5.2-2.29,7.35-.34.44,1.28,1.14-.16,1.22-.82,0-.19-1.11-.91-1.6-.2.87-.53,2.07.15,2.17,2.7.37,1.35,1.3.43,2.19-.68.65-1.11,1.19-.21,2,.55.51,1.65.92,1.19,1.94-.53,1.17-1.93,1.27-2.85,1.21-1.91-.11-2.61.11-1.37,2,.39.59-.79,7.67-1.39,8a3.58,3.58,0,0,1-2,.34c-.43-.07-.88-.47-.59-1.37.66-2.1.71-4.42,1.51-6.44.51-1.27,1.67-2.14-.13-3.2-.43-.26-.81-.76-.34-1.3a1.94,1.94,0,0,1,1.5-.72c1.6-.12,5,.6,2.18-3a1.56,1.56,0,0,1-.1-1.21,17.74,17.74,0,0,0,.18-10.16c-.46-1.69,1.83-2,3.25-1.42.8.34,1.36.84,2.21.26,1-.69.2-1.36.1-2.12-.13-1.07-.47-2.25.3-3.31.23-.33,1-.47.52-1.16a1.32,1.32,0,0,0-1.63-.58,6.7,6.7,0,0,1-2.33.61c-1.28.07-1.8-.83-2.5-1.55,1-.69,1.27-2.68,2.88-2.18a5.12,5.12,0,0,0,4.08,0c1.22-.59,2,.45,2.11,1.43.2,1.67-.56,3.19.69,5C261.7,132.83,258.78,133.26,257.84,134.68Z"/><path class="cls-2" d="M215.4,127.24c1.31-1.38,2.29-4.59,4.63-1a2.34,2.34,0,0,1,.15.27c1.79-2.5,4.23-.45,6.2-1,1.37-.36,2.39-1.07,3.54.13q.86.89,1.56,0c1-1.28,2-2.16,3.36-.33.34.44,1.22.27,1.67-.29.94-1.21,1.87-.44,3-.26a31.56,31.56,0,0,0,8.54.59c2.78-.32,2.59,1.14,1.85,2.49-.55,1-.71,1.43.11,2.2s1.22,1.19,2.19.17a1.84,1.84,0,0,1,2.54.1c.87.75.63,1.81.45,2.65-.3,1.38-1.63.74-2.35.63a10.15,10.15,0,0,0-4.39,0,1.72,1.72,0,0,1-1.73-2.81c.54-.67,1.45-.84.44-1.71-.55-.46-.8-1.25-2-.76-2.61,1.05-5.3-1-8.13-.16a8.33,8.33,0,0,1-2.6.1c-2.49-.48-4.86.25-7.16,0-1.2-.11-2.16-1.49-3.22.27a.6.6,0,0,1-.58.08c-2.23-2-4.82.82-7.14-.55-.67-.4-1.57.23-2.36.4s-2.41,1-2.69-.85c-.17-1.1-.3-2.45,1.3-2.73,1.42-.25,2.49.16,2.48,1.91C215,126.91,215.22,127,215.4,127.24Z"/><path class="cls-2" d="M172.58,155.39c-2.15,1.83-3.77,3.55-3.65,6.43,0,1.18-1.07,2.33-2.89,1.88s-2.36.2-1.46,1.54,0,1.79-.45,2.55a2.07,2.07,0,0,1-2.67,1c-2.29-1.16-2.47.11-2.46,1.83,0,.94.16,2-.86,2.49s-1.36-.67-2-1.12c-.25-.18-.48-.39-.72-.59-1.44,2.64-4.18.36-6.09,1.63-1.66,1.12-3.71,0-5.54,0a64.73,64.73,0,0,0-8.25,0c-2.67.35-5.12-2.34-7.9,0-1,.84-1.16-1.7-2-2.71,3,1.09,6.12-1.41,9,.7.61.46.95.26,1.09-.34s.66-.77.9-.58c2.47,2,5.49-1.32,7.91.86.6.54,1.06.44,1.35-.4a1.09,1.09,0,0,1,1.59-.46c2.4,1.53,5-1.2,7.43.4.81.52,1.59-.24,1.45-1.53-.23-2.07-.13-3.59,2.93-2.84a3.36,3.36,0,0,0,4.14-2.76c.11-.63.57-.63.93-.92,1.59-1.27,3.25-2.59,2.44-5.11-.61-1.9,1.51-1.5,2.16-2.36C169.89,156.13,171.13,154.88,172.58,155.39Z"/><path class="cls-2" d="M215.89,132.41c.29-1.66,1.1-3.35,3.09-2.35,1.3.66,2.19,2.13.65,3.7-.47.48-.17.94.25,1.33s.81.63,1.33.15a1.21,1.21,0,0,0,.44-1.57c-.58-1.55-1.33-3.25,1.66-3.22,1.73,0,1.77.77,1.76,2.07,0,3-1.31,6.07-.06,9.14a1.48,1.48,0,0,1-.77,1.87c-.9.5-1.54.05-2.19-.57s-1.46-2.2-2.3,0c-.48,1.25-1.39.16-2-.08-1.13-.44-2.2-3.25-3.28.1-.08.24-1.39.31-2-.26-.37-.33-.93-.73-.48-1.28s.91-1.51,1.88-1.45c.47,0,.91.44,1.39.55.73.15,1.19-.4,1.49-.93.13-.22-.12-.76-.34-1.06-.44-.61-.89-.41-1.58-.16-2.55.94-3.26.35-3-2.27.13-1.23.74-2.34-.48-3.56a1.66,1.66,0,0,1,.85-2.58c1.09-.36,2.35-.39,2.73,1.17C215.07,131.65,214.86,132.26,215.89,132.41Zm-.49,5.1c.8-.85,2.3-1.71,2.33-2a1.83,1.83,0,0,0-2.67-2C213.3,134.55,215.6,136,215.4,137.51Zm5.5.07c-.55.58-1.53.91-1.44,1.83.06.56.62,1.07,1,1.61.62-.62,1.55-1,1.49-2.14A1.46,1.46,0,0,0,220.9,137.58Z"/><path class="cls-2" d="M215.72,36c.85-.71,1.16-2.09,2.82-1.8s1.25,1.67,1.78,2.51c1.33.11.76-1,1-1.5a2,2,0,0,1,2.71-.84c1.11.37,1.11,1.44.93,2.38a1.45,1.45,0,0,1-2.11,1.19c-1.91-1.34-3.15.55-5.61.44,1.67.91,2.62,2.12,3.6,1.38,2.39-1.83,3.57-.6,4.75,1.83.91-1.8,2.07-3.23,3.8-1.91,1.54,1.16.43,2.56-.35,3.76l0,0c-2.72-1.07-6,.64-8.46-1.57-1.11-1-.72.44-.89.6a2.25,2.25,0,0,1-2.86.33c-1-.53-.57-1.81-1.13-2.62,2.14-1.4-.11-2.82,0-4.23Z"/><path class="cls-2" d="M190.38,37.26c.71-2.61,1.89-3.55,3.4-2.91s1.25,2.08.56,3.45a2.3,2.3,0,0,0,.15,2.09c.67,1.24.74,2.54-.81,3.09-1,.35-2.33.23-2.53-1.09s-.65-3.1,1.68-3.27c.18,0,.35-.18.52-.27-2-1.39-4-.44-6.07.11.13,1.56,3.09-.07,2.62,2.41-.29,1.54-.68,2.32-2.29,2.17a1.69,1.69,0,0,1-1.5-2.51c1.26-3.15.59-3.88-2.46-2.31a2.22,2.22,0,0,1-2.38-.5c-.6-.6-.45-1.79-.06-2.66a1.51,1.51,0,0,1,1.86-.8c1.35.35,2.47.87,3.94-.31C187.59,33.48,189.82,34.41,190.38,37.26Z"/><path class="cls-2" d="M111.47,144.45c.57.53,1.14,1.12,1.78,1.64,1.07.86.08,1.84-.26,2.1-1.31.95-1.12,1.5,0,2.44a1.94,1.94,0,0,1,.65,2.24c-.8,1.33-.31,2.19.53,3.22a2.58,2.58,0,0,1,.09,1.82c-.51,2.55-.2,3.09,2.65,2.94,1,0,1.76.55,1.62.8-1.12,2,.18,3.2,1.23,4.51-1.26.27,1,2-.94,2.15s-3.5-1.44-3.07-2.51c1.52-3.86-1.52-2.59-2.85-2.68s-2.11-.8-1.57-1.45c2.46-2.94-.9-5.26-.64-8,.12-1.13-1.67-2.29.31-3.53.59-.36-.12-1.66-.37-2.56S110.08,145.31,111.47,144.45Z"/><path class="cls-2" d="M215.8,35.91c-1.13,1.38-3.05,2.42-.74,4.63.76.73.23,2.64-1.94,2.57-1.42,0-1.82-1.26-2.88-1.78-.61,1.48-1.69,2.28-3.25,1.49a1.82,1.82,0,0,1-.58-2.72c.83-1.3,2-1.11,3.19-.22,1.46,1.11,2.18-.77,3.51-.83a10.61,10.61,0,0,1-2.5-3.35c-1.16.25-.33,1.44-1.11,1.91a2.79,2.79,0,0,1-2.36.29c-.77-.23-1-.95-1-1.76a1.73,1.73,0,0,1,1-1.79c1.14-.53,7.66.73,8.58,1.66Z"/><path class="cls-2" d="M201.25,162.63a5.68,5.68,0,0,0,6.19,3.12,3.12,3.12,0,0,1,2.48,1c.8.77,1.23.78,1.92-.06,1.49-1.83,2.25-.7,2.69.82s0,3.12-.23,4.65c-.09.58-.64,1.24-1.32,1.06s-1-.65-1.1-1.58c-.14-1.47,1.13-4.66-3-2.5-1.41.74-4.45-.45-6.81-.5-1.23,0-1.56-2.3-1-2.9C202,164.64,201.29,163.74,201.25,162.63Z"/><path class="cls-2" d="M201,127.53c.1-1.83.63-3.06,2.39-2.66a13.62,13.62,0,0,0,4.68,0c.87-.1,2-.35,1.91,1.23-.1,1.17.46,2.62-1.27,3.12-1.22.35-1.83-.34-2.37-1.34-.28-.51.24-1.23-.67-1.65-.86,1.68-1.82,3.26-4.13,1.81-.88-.56-1.7.49-2.61.62s-1.93,1.15-2.53-.66,1-2.19,1.74-2.82c1.11-.93,1.49.33,1.85,1.2C200.07,126.65,200.36,126.84,201,127.53Z"/><path class="cls-2" d="M155.26,130.94c-.8,1.42-.9,3.11-3,2.72-1.37-.25-1.44-1.17-1.51-2.28-.09-1.3.61-1.92,1.61-1.45,2.39,1.12,5.15-1.17,7.41,1,.77.74,1.15-.45,1.73-.75,1-.5,2.07-.61,2.79.38a1.92,1.92,0,0,1-.11,2.56,1.86,1.86,0,0,1-2.76.11c-1-.93-1.25-1.16-2.57,0C157.05,134.82,155.84,133.13,155.26,130.94Z"/><path class="cls-2" d="M147.69,138.7c-.8-.14-1.85.46-2-1.18-.11-1.39-.95-.2-1.51-.19-1,0-1.09,1.56-1.41,1.27-2-1.83-3.73-.26-5.63,0-1.32.18-1.56-1.11-1.43-2.23A1.54,1.54,0,0,1,138,135c1.45.8,2.68.09,3.91.15a34.54,34.54,0,0,0,6.43-.11c1.25-.16,1.19,1.34,1.26,2.4C149.67,139.05,148.54,138.61,147.69,138.7Z"/><path class="cls-2" d="M240.84,166.77c-1.07,1.78-2.13,3-4.2,1.6-1-.68-1.86.55-2.9.63-.74.05-1.41.85-2.1-.12a1.32,1.32,0,0,1-.07-1.72c.57-.58,1-1.88,2.16-1.17,1.31.83,2.35.16,3.46-.25,2.17-.79,4.7.81,6.78-1.15.43-.4.8,1,1.06,1.54a1.8,1.8,0,0,1-.58,2.48,2,2,0,0,1-2.56-.22A10.62,10.62,0,0,1,240.84,166.77Z"/><path class="cls-2" d="M114.91,132.42c1.67-3.26,2.51-3.41,5-.94A4.59,4.59,0,0,1,115.8,133c-1.69-.1-2.58.78-2.34,2.42.29,1.91-.65,2.91-2.13,3.69a1.82,1.82,0,0,1-.78-1.89c.23-1.85,2.46-3.63,0-5.62-.48-.4.21-1.44,1-1.65a2.12,2.12,0,0,1,2.53.62C114.5,131.15,114,132.12,114.91,132.42Z"/><path class="cls-2" d="M233.26,39.61c2.55-.07,2.26,1.52,1.41,2.85-.69,1.06-1.11,1.36.32,2.2,1.21.71.19,2.33-.24,3.17-.3.6-2.06.69-2.79-.16s-1.79-2.24-.46-3,1.06-1.27.23-2.19a2,2,0,0,1,0-2.57C232.1,39.32,232.64,39,233.26,39.61Z"/><path class="cls-2" d="M238.27,39.58c.61.28,2-.32,1.75.78-.63,2.36-.29,4.63-.13,7,0,.11-.23,1.5-.89,1-.85-.6-2.06.44-2.7-.94a1.76,1.76,0,0,1,.25-2.12c1.25-1,1-1.62.24-2.84C235.67,40.64,236.44,39.43,238.27,39.58Z"/><path class="cls-2" d="M188.19,279.57c-1.21.15-1.84-.27-2.06-1a2.31,2.31,0,0,1,.2-2.08,1.7,1.7,0,0,1,2.21-.57c1.46,1.37,2.67.62,3.9-.14.79-.48,1.24-.16,1.8.36a2.18,2.18,0,0,1,.55,2.28c-.15.75-.76,1.42-1.56,1.16C191.4,279,189.62,278.47,188.19,279.57Z"/><path class="cls-2" d="M200.85,131.34c-.91.18-.8,1.13-1.27,1.63-1.06,1.15-2.09.62-3.32.14-1.48-.59,0-1.13-.07-1.62-.1-1.58,1.2-1.83,2.36-1.55s2.15.92,3.47.15c.77-.45,2.16-1.25,2.71.53.35,1.14.53,2.46-.85,2.9s-2.77.27-2.76-1.77C201.12,131.61,200.93,131.47,200.85,131.34Z"/><path class="cls-2" d="M172.82,23.11c.71.78,1.49,1.31,1.75,2s.57,2-.21,2.6a2.59,2.59,0,0,1-2.67,0,1.64,1.64,0,0,1-.7-2.19c.69-1.38,1-2.51,0-4a1.58,1.58,0,0,1,.95-2.3c1-.31,2.27-.3,2.64.93S174.73,22.85,172.82,23.11Z"/><path class="cls-2" d="M143.33,133.14c-1.39-.59-3.64-.43-2-3,.37-.6.76-1.24-.12-2.08a1.78,1.78,0,0,1,.35-2.93,1.86,1.86,0,0,1,2.55.32c.81,1,.81,2.42-.37,3-1.86.84.12.94.17,1.36C144,130.89,145.54,132.23,143.33,133.14Z"/><path class="cls-2" d="M174.16,37.42c-.06.89-.79,1.7.29,2.68a1.78,1.78,0,0,1-.49,2.7,1.9,1.9,0,0,1-2.56-.27c-.85-1-.86-2.37.28-3,1.73-.89.6-1.17-.12-1.66L171,37.4c-.12-1.23-.55-2.69,1.16-3.1,1.33-.31,2.52.06,2.59,1.8C174,36.26,173.11,36.38,174.16,37.42Z"/><path class="cls-2" d="M137.58,133.09c-.47-.75-2.34-.5-1.76-1.6.91-1.71.45-3.05-.08-4.6a1.48,1.48,0,0,1,1.06-2,2,2,0,0,1,2.29.49,2.44,2.44,0,0,1,.09,2.61c-.32.79-2.08,1.64,0,2.55a1.44,1.44,0,0,1,.24,1.38A7,7,0,0,1,137.58,133.09Z"/><path class="cls-2" d="M254.3,120.85c.73-.37,1.69.27,2.33-.74.18-.27,1.1-1.33,2-.38a3.43,3.43,0,0,1,.71,3.44c-.26.86-1.46.49-2.12.35-1-.2-1.78-.93-2.86-.13a1.5,1.5,0,0,1-2-.1,2.4,2.4,0,0,1,0-2A1.17,1.17,0,0,1,254.3,120.85Z"/><path class="cls-2" d="M102.36,134a1.1,1.1,0,0,1-1.2-.86,2.44,2.44,0,0,1,.94-2.74c.52-.4.89-.76,1.58-.22s-.1,2.21,1.5,1.45c.64-.31,2-.58.55-1.66,1-.58,1.7.52,2.6.48,1.23-.05.9.86.94,1.52a1.55,1.55,0,0,1-1.19,1.61.86.86,0,0,1-.61,0C105.64,132.81,103.84,132.15,102.36,134Z"/><path class="cls-2" d="M226.81,170.42a2.54,2.54,0,0,0-.29-1.75c-.38-1,.41-1.9,1.08-2.61s1.31.07,1.74.54c.57.62,2,1.15.47,2.31a1.49,1.49,0,0,0-.29,1.4c.71,1.62-.18,2.8-1.43,2.81C227,173.13,226.32,171.76,226.81,170.42Z"/><path class="cls-2" d="M107.28,147.52c-.09-.12-1.34,1-1.77-.35-.5-1.62,1-1.13,1.65-1.49,1.65-.93.77-1.76-.06-2.57s-1.7-1.56-1-2.72c.49-.82,1.58-.64,2.26-.27,1.23.66,1.18,1.82.62,2.95a2.64,2.64,0,0,0,.22,2.86C110.05,147.27,110.69,148.78,107.28,147.52Z"/><path class="cls-2" d="M216.81,169.8c-.57-1.39-.79-3.81,1.43-3.81,1.9,0,1.2,2.49,1.29,4.15s-.07,2.94-1.36,3C216.72,173.16,216.44,171.61,216.81,169.8Z"/><path class="cls-2" d="M221.89,170.06c-.44-1.46-.94-4.05,1.24-4.07s1.29,2.61,1.45,4.31-.21,2.83-1.55,2.82C222,173.11,221.23,171.74,221.89,170.06Z"/><path class="cls-2" d="M108.66,127a5.75,5.75,0,0,1-1,1c-1.75,1.1-3.6.35-5.28-.09-.64-.17-2-.94-1.56-2.35,1,1.19,2.4-1.57,3.45.29.62,1.08,1.07.66,1.51-.27.25-.53.83-1,1.5-.42C107.81,125.61,108.52,126,108.66,127Z"/><path class="cls-2" d="M174.16,37.42c-1-1-.16-1.16.63-1.32a10.06,10.06,0,0,1,2.13-1.71,1.89,1.89,0,0,1,2.52.53,2.11,2.11,0,0,1-.12,2.58c-.62.79-1.29,1.27-2.22.5A3.88,3.88,0,0,0,174.16,37.42Z"/><path class="cls-2" d="M119.73,166.62c3.93-1,3.76-1,3.76,2.76,0,.63-.63,1.55.12,2.37.53.58-.31,1.06-.78,1.4s-.75,0-1.07-.27c-.52-.49-.81-1-.13-1.53,1.59-1.19.16-1.47-.36-2.36C120.9,168.38,121,167.32,119.73,166.62Z"/><path class="cls-2" d="M149.56,131.54c.06,1.38-.47,2.17-2,2.12-1.32,0-2-.71-1.78-1.95s.13-2.54,2-2.47C149.35,129.3,149.63,130.26,149.56,131.54Z"/><path class="cls-2" d="M176,272.87c-.07-1.39.51-2.11,2-2.06,1.31.05,1.82.67,1.81,1.94a2.15,2.15,0,0,1-2.12,2.33C175.89,275.3,176,274,176,272.87Z"/><path class="cls-2" d="M168.14,34.27c1.32-.27,1.48.41,1.59,1.55.19,1.88-1.23,2.46-2.37,2.7-1.34.29-1.43-1-1.47-2.14C165.85,34.78,166.55,34.06,168.14,34.27Z"/><path class="cls-2" d="M173.29,29.23c1.86-.68,1.7,1.33,1.69,2,0,1.39-1.2,1.79-2.59,1.83s-1.48-.54-1.48-1.66C170.91,29.77,171.57,29.07,173.29,29.23Z"/><path class="cls-2" d="M114.61,61.26a2.07,2.07,0,0,1-2.3,1.94c-1.32,0-1.75-.72-1.79-2-.08-1.86,1.44-1.92,2.49-2A1.58,1.58,0,0,1,114.61,61.26Z"/><path class="cls-2" d="M230.69,136.11a6.8,6.8,0,0,1,1.69-1.1c1-.28,2.16-.3,2.61.93a1.91,1.91,0,0,1-.35,2.28,2,2,0,0,1-2.75,0,12,12,0,0,1-1.2-1.37Z"/><path class="cls-2" d="M182.82,270.79c1.26,0,2,.51,2,1.83a2.27,2.27,0,0,1-2.15,2.51c-1.46.1-1.46-1.38-1.6-2.4C180.86,271.46,181.59,270.84,182.82,270.79Z"/><path class="cls-2" d="M118.23,53a5,5,0,0,1,1.15,3.36c-.07,1.1-.49,1.75-1.64,1.83-.89.05-1.77-.07-2-1s-.38-2.3.87-2.61c1-.26,1.67-.53,1.75-1.64Z"/><path class="cls-2" d="M226.29,247.59c0-1.46.74-2,2-1.94,1.48,0,1.94.86,1.83,2.2s-.85,2-2.36,1.79S226.51,248.33,226.29,247.59Z"/><path class="cls-2" d="M166.51,134.4l.1,0a4.18,4.18,0,0,1-.71-2.9c.15-1.12.78-1.84,1.85-1.53.83.24,2.13.34,1.94,1.85-.1.86.31,2.07-1.25,1.83C167.58,133.5,167.17,134.2,166.51,134.4Z"/><path class="cls-2" d="M179.76,26.12c-.08,1-.37,2.37-1.49,2.28A2.21,2.21,0,0,1,176,26.08c.08-1.26.56-1.9,1.86-1.91S179.75,24.68,179.76,26.12Z"/><path class="cls-2" d="M238.49,240.64c1.24-.21,1.7.21,1.69,1.47,0,1.5-.45,2.42-2.09,2.26-.86-.08-2-.14-1.88-1.35C236.29,241.66,236.61,240.27,238.49,240.64Z"/><path class="cls-2" d="M240.15,237.91c0,.88,0,2-1.25,1.69s-2.77-.31-2.55-2.33c.15-1.36.89-1.72,2.08-1.69C240,235.62,240.24,236.65,240.15,237.91Z"/><path class="cls-2" d="M164.65,40.88c.06,1.43-.44,2.13-1.77,2.19s-2.36-.67-2.33-1.72c0-.71.41-2.33,1.59-2.27S164.81,39.17,164.65,40.88Z"/><path class="cls-2" d="M195.07,30.24c-.25,1.5-.31,2.81-2.08,2.77-1.27,0-1.91-.56-1.93-1.85s.63-2.29,1.78-2.23A2.64,2.64,0,0,1,195.07,30.24Z"/><path class="cls-2" d="M170.17,30.7c-.6,1.27-.89,2.46-2.43,2.3-1.22-.12-2.19-.65-2.05-1.9A2,2,0,0,1,168,29.18C169.24,29.27,169.54,30.22,170.17,30.7Z"/><path class="cls-2" d="M190.36,30.72c-.82,1.14-.84,2.77-2.47,2.49A2,2,0,0,1,186,30.87c.15-1.35.92-1.68,2.12-1.67S189.66,30.21,190.36,30.72Z"/><path class="cls-2" d="M174.91,273.79a9.09,9.09,0,0,1-1.93.78c-1.46.31-2.12-.8-2.31-1.9s.74-1.69,1.81-1.85C174.34,270.55,174.75,271.76,174.91,273.79Z"/><path class="cls-2" d="M165.8,273.44c.2-1.61.11-2.84,1.51-2.78,1.2.06,2.47.31,2.39,2.09-.06,1.52-.91,1.81-2.21,1.87S165.58,274.16,165.8,273.44Z"/><path class="cls-2" d="M229.08,43.44c.33.5.88,1,.94,1.51.11,1.16.53,2.64-1.13,3.08-1,.27-2.23.19-2.52-1.09-.33-1.46,0-2.67,1.94-2.7.27,0,.54-.54.81-.83Z"/><path class="cls-2" d="M182.82,275.83c1.36,0,2.4.83,2.29,1.67-.13,1-.71,2.36-2.43,2.14-1.34-.17-1.71-.87-1.68-2.07A1.57,1.57,0,0,1,182.82,275.83Z"/><path class="cls-2" d="M248.63,241c1-.23,2.25-.18,2,1.22a2.24,2.24,0,0,1-2.43,2.19c-1.52-.15-1.93-1-1.77-2.26S247.19,240.33,248.63,241Z"/><path class="cls-2" d="M154.6,31.19c.24,1.35-.95,2-2,2.05-1.18.11-1.82-.86-1.83-2.13s.53-1.9,1.84-1.91S154.58,29.71,154.6,31.19Z"/><path class="cls-2" d="M233.32,245.65c1.23,0,1.81.62,1.81,1.92,0,1.58-.94,1.83-2.26,1.88s-1.59-.43-1.56-1.62C231.35,246.48,231.7,245.59,233.32,245.65Z"/><path class="cls-2" d="M180.26,278c-.67.9-1.34,1.78-2.71,1.6s-1.64-1-1.57-2.16c.08-1.36.91-1.63,2.09-1.66C179.64,275.79,179.56,277.28,180.26,278Z"/><path class="cls-2" d="M137.27,38.91a12.27,12.27,0,0,1-1.17-1.46c-.65-1.09-.81-2.27.44-3a1.84,1.84,0,0,1,2.72.62,2,2,0,0,1-.85,2.89,9.25,9.25,0,0,0-1.21.87Z"/><path class="cls-2" d="M208,24.17c1.29,0,1.94.53,2,1.82a1.68,1.68,0,0,1-1.76,2c-2,.18-2.19-1.37-2.22-2.55C206,24.61,207.05,24.13,208,24.17Z"/><path class="cls-2" d="M147.58,255.69a1.71,1.71,0,0,1,2,1.82,2,2,0,0,1-2,2.24c-1.17.1-1.8-.87-1.82-2.14A1.66,1.66,0,0,1,147.58,255.69Z"/><path class="cls-2" d="M217.72,124.05c-.52-.56-1.47-.87-1.48-2.11s.24-2,1.6-2.13,2.13.37,2.2,1.88S219,123.49,217.72,124.05Z"/><path class="cls-2" d="M119.68,47.05a3,3,0,0,1-2.19,1.05c-1.27,0-1.89-.53-1.92-1.82,0-1.46.67-2,2.07-2C119.48,44.29,119.19,45.84,119.68,47.05Z"/><path class="cls-2" d="M204.91,26.18c.15,1.16-1,2.29-1.57,2.18-1-.18-2.42-.66-2.23-2.4a1.71,1.71,0,0,1,2-1.79C204.39,24.18,205,24.83,204.91,26.18Z"/><path class="cls-2" d="M184,28.14c-2-.14-3.17-.54-3-2.39.16-1.33,1-1.63,2.15-1.56,1.35.08,1.69.9,1.63,2.07A2.36,2.36,0,0,1,184,28.14Z"/><path class="cls-2" d="M195,22.13a8.78,8.78,0,0,1-1.89.75,1.55,1.55,0,0,1-2.06-1.6c-.07-1.17.24-2,1.58-2.14C194.52,18.92,194.89,20.11,195,22.13Z"/><path class="cls-2" d="M204.92,31.32c.19,1.47-1.3,2-2.1,2-1,0-1.78-1.11-1.69-2.43s.82-1.74,2.05-1.69S205,30,204.92,31.32Z"/><path class="cls-2" d="M189.82,21.08a1.58,1.58,0,0,1-1.74,1.85c-1.31.07-2.38-.62-2.34-1.72a2,2,0,0,1,2.14-2.09C189.14,19.19,189.8,19.65,189.82,21.08Z"/><path class="cls-2" d="M230.69,136.11v.75c-.94,2-2.59,1.8-4,.89-.91-.59-.55-1.83.23-2.57C228.6,133.59,229.56,135.27,230.69,136.11Z"/><path class="cls-2" d="M142.46,48.09c-1,0-1.71-.45-1.73-1.77,0-1,.31-2.31,1.13-2.27,1.08.06,2.79.13,2.68,2.15C144.47,47.45,144,48.1,142.46,48.09Z"/><path class="cls-2" d="M198.06,43.05c-1.56.07-1.95-.79-2-2.16,0-1.17.24-1.7,1.54-1.64s2.26.28,2.27,1.86C199.9,42.4,199.35,43.07,198.06,43.05Z"/><path class="cls-2" d="M122.69,39.26c1.74-.28,1.76,1.43,1.91,2.58.1.77-1,1.12-1.8,1.2-1.33.12-2.18-.3-2.2-1.82C120.58,40,121.1,39.3,122.69,39.26Z"/><path class="cls-2" d="M164.66,272.63c0,1.53-.78,2-2,2-1.62,0-1.7-1.08-1.79-2.34-.09-1.41.64-1.46,1.71-1.46C164,270.79,164.74,271.31,164.66,272.63Z"/><path class="cls-2" d="M188.26,274.59c-1.53.08-2.28-.49-2.23-2,0-1.36.78-1.8,2-1.78,1.62,0,1.7,1.08,1.78,2.34S189.23,274.74,188.26,274.59Z"/><path class="cls-2" d="M169.69,16.16c-.05,1.32-.81,1.78-2.05,1.73s-1.78-.81-1.74-2,.82-1.78,2-1.74S169.74,14.93,169.69,16.16Z"/><path class="cls-2" d="M233.16,274.6c-1.15,0-1.82-.53-1.83-1.85s.53-1.93,1.85-1.94,1.92.53,1.94,1.84S234.58,274.6,233.16,274.6Z"/><path class="cls-2" d="M194.88,15.77c-.08,1.71-.83,2.17-2.07,2.12s-1.78-.81-1.74-2,.81-1.78,2-1.74S194.88,15,194.88,15.77Z"/><path class="cls-2" d="M240.15,272.54c.06,1.23-.38,2-1.74,2s-2-.38-2-1.74.38-2,1.74-2S240.1,271.22,240.15,272.54Z"/><path class="cls-2" d="M172.76,275.83c1.28,0,2,.53,2,1.85s-.53,1.93-1.85,1.95-1.92-.53-1.94-1.85A1.68,1.68,0,0,1,172.76,275.83Z"/><path class="cls-2" d="M208,275.83c1.28,0,1.94.53,1.95,1.85s-.53,1.93-1.84,1.95-1.93-.53-1.94-1.85A1.67,1.67,0,0,1,208,275.83Z"/><path class="cls-2" d="M215,277.8c0,1.15-.53,1.81-1.85,1.83s-1.93-.53-1.94-1.85.53-1.92,1.84-1.94S215,276.38,215,277.8Z"/><path class="cls-2" d="M220,277.81c0,1.14-.52,1.81-1.84,1.82s-1.93-.53-2-1.85.53-1.93,1.85-1.94S220,276.38,220,277.81Z"/><path class="cls-2" d="M223.88,279.63c-2.07,0-2.63-.66-2.61-1.95s.66-1.85,1.94-1.84,1.85.67,1.84,1.94S224.34,279.62,223.88,279.63Z"/><path class="cls-2" d="M228.13,279.63c-1.15,0-1.82-.52-1.83-1.85s.53-1.93,1.84-1.94,1.93.53,2,1.84S229.55,279.63,228.13,279.63Z"/><path class="cls-2" d="M159.62,20.32c0,2.07-.67,2.63-2,2.61s-1.85-.68-1.84-1.95.68-1.85,1.95-1.84S159.61,19.87,159.62,20.32Z"/><path class="cls-2" d="M164.65,20.27c0,2.11-.66,2.67-1.94,2.66s-1.86-.67-1.84-1.95.66-1.84,1.94-1.84S164.64,19.86,164.65,20.27Z"/><path class="cls-2" d="M169.69,21.1c0,1.15-.53,1.81-1.85,1.83s-1.93-.53-1.94-1.85.53-1.92,1.84-1.94S169.69,19.68,169.69,21.1Z"/><path class="cls-2" d="M178,19.14c1.32.05,1.78.81,1.73,2.05s-.81,1.78-2,1.73-1.78-.81-1.74-2S176.79,19.08,178,19.14Z"/><path class="cls-2" d="M181,21.69c0-2,.67-2.57,1.95-2.55s1.85.68,1.84,1.95-.68,1.84-1.95,1.84S181,22.2,181,21.69Z"/><path class="cls-2" d="M197.83,22.93c-1.32-.05-1.78-.81-1.73-2.05s.82-1.78,2.05-1.74,1.77.82,1.73,2.05S199.06,23,197.83,22.93Z"/><path class="cls-2" d="M204.92,20.27c0,2.11-.66,2.67-1.94,2.66s-1.86-.67-1.85-1.95.67-1.84,2-1.84S204.91,19.86,204.92,20.27Z"/><path class="cls-2" d="M207.44,19.14c2,0,2.53.67,2.51,1.95s-.67,1.85-1.95,1.84-1.84-.68-1.84-1.95S206.89,19.15,207.44,19.14Z"/><path class="cls-2" d="M235.07,276.71c.11,2.1-.33,2.87-1.69,2.91s-2-.38-2-1.73.38-2,1.73-2.05S235,276.31,235.07,276.71Z"/><path class="cls-2" d="M142.79,28c-1.24.06-2-.38-2-1.74s.38-2,1.73-2,2,.38,2.05,1.73S144.11,27.91,142.79,28Z"/><path class="cls-2" d="M147.59,28c-1.14,0-1.81-.52-1.82-1.84s.53-1.93,1.84-1.95,1.93.53,1.94,1.85S149,28,147.59,28Z"/><path class="cls-2" d="M154.61,25.91c-.07,1.64-.83,2.1-2.07,2.05s-1.78-.81-1.74-2.05.81-1.78,2-1.73A1.58,1.58,0,0,1,154.61,25.91Z"/><path class="cls-2" d="M157.64,24.17c1.44,0,2,.67,2,1.95s-.68,1.86-2,1.84-1.85-.68-1.84-1.95S156.52,24.14,157.64,24.17Z"/><path class="cls-2" d="M164.65,25.91c.06,1.23-.38,2-1.74,2.05s-2-.39-2-1.74.38-2,1.74-2S164.61,24.58,164.65,25.91Z"/><path class="cls-2" d="M167.88,24.17c1.12,0,1.79.52,1.81,1.84s-.52,1.93-1.84,1.95-1.93-.52-1.95-1.84S166.43,24.18,167.88,24.17Z"/><path class="cls-2" d="M189.82,26c0,1.41-.66,2-1.94,1.95S186,27.29,186,26s.67-1.86,1.95-1.85S189.85,24.85,189.82,26Z"/><path class="cls-2" d="M192.25,24.17c2.06,0,2.62.66,2.6,1.95S194.19,28,192.91,28s-1.85-.67-1.85-1.94S191.78,24.18,192.25,24.17Z"/><path class="cls-2" d="M197.91,24.17c1.44,0,2,.67,2,1.95S199.21,28,197.94,28s-1.85-.68-1.84-1.95S196.79,24.14,197.91,24.17Z"/><path class="cls-2" d="M213,28c-1.14,0-1.81-.52-1.82-1.84s.53-1.93,1.84-1.95,1.93.53,2,1.85S214.45,28,213,28Z"/><path class="cls-2" d="M218.06,24.17c1.42,0,2,.66,2,1.95S219.35,28,218.08,28s-1.86-.67-1.85-1.94S216.91,24.14,218.06,24.17Z"/><path class="cls-2" d="M179.75,282.61c.06,1.23-.38,2-1.74,2.05s-2-.39-2-1.74.38-2,1.74-2.05S179.7,281.28,179.75,282.61Z"/><path class="cls-2" d="M132.4,29.21c1.23-.06,2,.38,2,1.74s-.38,2-1.74,2-2-.38-2-1.74S131.08,29.26,132.4,29.21Z"/><path class="cls-2" d="M139.44,30.08c.11,2.09-.34,2.87-1.69,2.91s-2-.38-2.05-1.74.39-2,1.74-2.05S139.38,29.68,139.44,30.08Z"/><path class="cls-2" d="M144.52,31.17c0,1.15-.52,1.81-1.84,1.82s-1.93-.52-2-1.84.53-1.93,1.85-1.94S144.52,29.75,144.52,31.17Z"/><path class="cls-2" d="M177.7,33c-1.32-.06-1.78-.81-1.73-2.05s.81-1.79,2.05-1.74,1.77.81,1.73,2.05S178.93,33.05,177.7,33Z"/><path class="cls-2" d="M184.8,31c0,1.28-.54,1.94-1.86,2S181,32.47,181,31.15s.53-1.93,1.84-1.94A1.68,1.68,0,0,1,184.8,31Z"/><path class="cls-2" d="M197.89,33c-1.1,0-1.78-.52-1.79-1.84s.52-1.94,1.84-1.95,1.93.51,1.95,1.83S199.35,33,197.89,33Z"/><path class="cls-2" d="M210,31c0,1.41-.67,2-2,2s-1.86-.67-1.84-1.95.66-1.86,1.94-1.85S210,29.88,210,31Z"/><path class="cls-2" d="M215,30.94c.06,1.23-.39,2-1.74,2.05s-2-.38-2.05-1.74.39-2,1.74-2S214.94,29.62,215,30.94Z"/><path class="cls-2" d="M218.78,33c-2,0-2.56-.67-2.55-1.95s.67-1.86,2-1.84,1.84.66,1.84,1.94S219.3,33,218.78,33Z"/><path class="cls-2" d="M225.07,31c0,1.28-.53,1.95-1.85,2s-1.94-.51-1.95-1.83.51-1.93,1.83-1.95A1.68,1.68,0,0,1,225.07,31Z"/><path class="cls-2" d="M183,280.87c1.14,0,1.8.53,1.82,1.85s-.53,1.93-1.85,1.94-1.92-.53-1.94-1.84S181.54,280.87,183,280.87Z"/><path class="cls-2" d="M189.82,282.83c0,1.15-.52,1.82-1.84,1.83s-1.93-.53-1.95-1.84.53-1.93,1.85-1.95S189.82,281.41,189.82,282.83Z"/><path class="cls-2" d="M194.85,282.61c.06,1.23-.38,2-1.74,2.05s-2-.39-2-1.74.38-2,1.74-2S194.81,281.28,194.85,282.61Z"/><path class="cls-2" d="M122.55,38c-1.41,0-2-.66-2-1.94s.67-1.86,1.94-1.85,1.86.67,1.85,1.94S123.71,38.06,122.55,38Z"/><path class="cls-2" d="M129.42,36.22c0,1.12-.51,1.79-1.84,1.81s-1.93-.52-2-1.84.52-1.93,1.84-1.95S129.42,34.77,129.42,36.22Z"/><path class="cls-2" d="M132.8,38.05c-1.72-.07-2.18-.83-2.13-2.07s.81-1.78,2.05-1.74,1.77.82,1.73,2S133.61,38.06,132.8,38.05Z"/><path class="cls-2" d="M199.89,36.22c0,1.12-.52,1.79-1.84,1.81s-1.94-.52-2-1.84.52-1.93,1.84-1.95S199.88,34.77,199.89,36.22Z"/><path class="cls-2" d="M204.92,36.29c0,1.33-.81,1.78-2,1.73s-1.78-.81-1.73-2,.81-1.78,2-1.74S205,35.06,204.92,36.29Z"/><path class="cls-2" d="M230.09,36c.06,1.24-.39,2-1.74,2.05s-2-.38-2-1.73.39-2,1.74-2S230,34.65,230.09,36Z"/><path class="cls-2" d="M235.12,36.06c0,1.43-.67,2-2,2s-1.85-.68-1.84-2,.68-1.85,1.95-1.84S235.15,34.93,235.12,36.06Z"/><path class="cls-2" d="M199.89,282.85c0,1.12-.52,1.8-1.84,1.81s-1.93-.52-2-1.84.52-1.93,1.84-1.95S199.89,281.41,199.89,282.85Z"/><path class="cls-2" d="M245.19,232.27c.05,1.24-.39,2-1.74,2s-2-.38-2-1.73.38-2,1.74-2.05S245.14,231,245.19,232.27Z"/><path class="cls-2" d="M238.19,230.54c1.42,0,2,.66,2,1.94s-.66,1.86-1.94,1.85-1.85-.67-1.84-2S237,230.51,238.19,230.54Z"/><path class="cls-2" d="M233.39,230.54c1.32.05,1.78.81,1.73,2.05s-.82,1.78-2.05,1.73-1.78-.81-1.73-2S232.16,230.48,233.39,230.54Z"/><path class="cls-2" d="M119.35,41c.06,1.23-.38,2-1.74,2.05s-2-.39-2-1.74.38-2,1.74-2S119.3,39.68,119.35,41Z"/><path class="cls-2" d="M169.69,41.33c-.05,1.32-.81,1.78-2.05,1.73s-1.78-.82-1.74-2.05.82-1.78,2-1.73S169.74,40.1,169.69,41.33Z"/><path class="cls-2" d="M179.77,41.1c0,1.28-.54,1.95-1.86,2S176,42.53,176,41.22s.53-1.93,1.84-1.95A1.69,1.69,0,0,1,179.77,41.1Z"/><path class="cls-2" d="M182.83,39.27c1.41,0,2,.66,2,1.95s-.67,1.85-1.95,1.84S181,42.39,181,41.12,181.68,39.24,182.83,39.27Z"/><path class="cls-2" d="M202.85,39.25c1.66.07,2.12.83,2.07,2.07s-.82,1.78-2,1.74-1.78-.82-1.73-2.05A1.58,1.58,0,0,1,202.85,39.25Z"/><path class="cls-2" d="M204.92,282.71c0,1.41-.66,2-1.94,2s-1.86-.67-1.85-1.94.67-1.86,2-1.85S205,281.55,204.92,282.71Z"/><path class="cls-2" d="M220,282.93c-.05,1.32-.81,1.78-2.05,1.73s-1.78-.82-1.73-2.05.81-1.78,2-1.73S220.08,281.7,220,282.93Z"/><path class="cls-2" d="M223.32,284.66c-1.23.06-2-.38-2-1.74s.38-2,1.74-2,2,.38,2,1.73S224.64,284.61,223.32,284.66Z"/><path class="cls-2" d="M137.67,44.3c1.14,0,1.8.53,1.82,1.85s-.53,1.93-1.85,1.94-1.92-.52-1.94-1.84S136.24,44.31,137.67,44.3Z"/><path class="cls-2" d="M154.54,45.2c.11,2.07-.34,2.85-1.69,2.89s-2-.38-2-1.74.39-2,1.74-2.05S154.48,44.79,154.54,45.2Z"/><path class="cls-2" d="M230.09,282.69c0,1.43-.67,2-2,2s-1.85-.68-1.84-2,.68-1.85,1.95-1.84S230.12,281.56,230.09,282.69Z"/><path class="cls-2" d="M162.6,44.31c1.23-.06,2,.38,2.05,1.74s-.38,2-1.74,2-2-.38-2-1.74S161.28,44.36,162.6,44.31Z"/><path class="cls-2" d="M235.07,281.74c.11,2.1-.33,2.87-1.69,2.92s-2-.39-2-1.74.38-2,1.73-2.05S235,281.35,235.07,281.74Z"/><path class="cls-2" d="M210,288.33c0,1-.81,1.41-2,1.36s-1.78-.81-1.73-2,.79-1.78,2-1.74S210,286.76,210,288.33Z"/><path class="cls-2" d="M215,287.72c0,1.44-.67,2-2,2s-1.85-.67-1.84-1.95.68-1.85,2-1.84S215,286.59,215,287.72Z"/><path class="cls-2" d="M245.19,227.49c0,1.12-.52,1.79-1.84,1.8s-1.93-.52-1.95-1.83.52-1.93,1.84-2S245.19,226,245.19,227.49Z"/><path class="cls-2" d="M238.42,225.5c1.32.06,1.78.81,1.73,2.06s-.81,1.78-2.05,1.73-1.77-.81-1.73-2S237.19,225.45,238.42,225.5Z"/><path class="cls-2" d="M220,286.8c.11,2.07-.33,2.85-1.69,2.89s-2-.38-2-1.74.38-2,1.73-2.05S219.91,286.38,220,286.8Z"/><path class="cls-2" d="M225.05,287.75c0,1.4-.66,2-1.94,1.94s-1.86-.66-1.84-1.94.66-1.85,1.94-1.84S225.09,286.58,225.05,287.75Z"/><path class="cls-2" d="M203,48.1c-1.15,0-1.82-.53-1.83-1.85s.53-1.93,1.85-1.94,1.92.52,1.94,1.84S204.38,48.1,203,48.1Z"/><path class="cls-2" d="M210,46.27c0,1.15-.52,1.81-1.84,1.82s-1.93-.52-1.94-1.84.52-1.93,1.84-1.94S210,44.85,210,46.27Z"/><path class="cls-2" d="M228.27,285.91c1.14,0,1.8.52,1.82,1.84s-.53,1.93-1.85,1.94-1.92-.52-1.94-1.84S226.84,285.91,228.27,285.91Z"/><path class="cls-2" d="M213.17,290.94c1.14,0,1.8.52,1.82,1.84s-.53,1.93-1.85,2-1.92-.53-1.94-1.85S211.74,290.94,213.17,290.94Z"/><path class="cls-2" d="M221.26,46.85c0-2,.68-2.56,2-2.54s1.85.67,1.83,1.95-.67,1.84-2,1.84S221.28,47.37,221.26,46.85Z"/><path class="cls-2" d="M243.13,44.31c1.24-.06,2,.38,2.05,1.74s-.38,2-1.73,2-2-.38-2-1.74S241.81,44.36,243.13,44.31Z"/><path class="cls-2" d="M218,290.93c1.45,0,2,.68,2,2s-.68,1.85-2,1.84-1.85-.68-1.84-2S216.92,290.91,218,290.93Z"/><path class="cls-2" d="M114.32,51.07c.06,1.24-.38,2-1.74,2s-2-.38-2-1.73.38-2,1.73-2S114.27,49.75,114.32,51.07Z"/><path class="cls-2" d="M129.43,51.16c0,1.28-.52,2-1.85,2s-1.93-.52-2-1.84.52-1.93,1.84-1.95A1.68,1.68,0,0,1,129.43,51.16Z"/><path class="cls-2" d="M225.05,292.67c.06,1.24-.38,2-1.74,2.05s-2-.38-2-1.73.38-2,1.74-2.05S225,291.35,225.05,292.67Z"/><path class="cls-2" d="M218,296c1.45,0,2,.67,2,1.95s-.68,1.86-2,1.84-1.85-.68-1.84-1.95S216.92,295.94,218,296Z"/><path class="cls-2" d="M243.45,220.47c1.33.05,1.78.81,1.73,2.05s-.81,1.78-2,1.74-1.78-.82-1.74-2S242.22,220.42,243.45,220.47Z"/><path class="cls-2" d="M238.42,224.26c-1.23.06-2-.38-2-1.74s.38-2,1.74-2,2,.38,2,1.73S239.74,224.21,238.42,224.26Z"/><path class="cls-2" d="M235.12,51.18c0,1.4-.66,2-1.94,2s-1.86-.67-1.85-2,.67-1.85,1.95-1.84S235.15,50,235.12,51.18Z"/><path class="cls-2" d="M238.19,49.34c1.42,0,2,.66,2,1.94s-.66,1.86-1.94,1.85-1.85-.67-1.84-1.94S237,49.31,238.19,49.34Z"/><path class="cls-2" d="M243.23,49.34c1.41,0,2,.66,2,1.94s-.67,1.86-1.95,1.85-1.85-.67-1.84-2S242.08,49.31,243.23,49.34Z"/><path class="cls-2" d="M114.6,55.46c-.41,1.23-.22,2.75-2.08,2.71-1.27,0-1.92-.48-2-1.82-.08-1.65,1.21-1.7,2.21-1.93S114.13,55,114.6,55.46Z"/><path class="cls-2" d="M204.92,222.44c0,1.14-.52,1.81-1.84,1.82s-1.93-.53-2-1.84.53-1.93,1.85-1.95S204.92,221,204.92,222.44Z"/><path class="cls-2" d="M241.4,56.34c0-1.43.67-2,1.95-2s1.85.68,1.84,2-.68,1.85-1.95,1.84S241.37,57.47,241.4,56.34Z"/><path class="cls-2" d="M248.4,54.37c1.14,0,1.81.53,1.82,1.85s-.53,1.93-1.85,1.94-1.92-.53-1.94-1.84S247,54.37,248.4,54.37Z"/><path class="cls-2" d="M117.4,63.23c-1.59,0-1.79-1-1.86-2.32s.49-1.56,1.64-1.52,2.24.22,2.11,1.6C119.2,62,118.93,63.26,117.4,63.23Z"/><path class="cls-2" d="M243.35,63.19c-1.41,0-2-.66-1.95-1.94s.67-1.86,1.94-1.84,1.86.66,1.85,1.94S244.51,63.22,243.35,63.19Z"/><path class="cls-2" d="M248.38,63.19c-1.4,0-2-.66-1.95-1.94s.67-1.86,1.95-1.84,1.85.66,1.84,1.94S249.54,63.23,248.38,63.19Z"/><path class="cls-2" d="M248.17,215.44c1.23-.06,2,.38,2.05,1.74s-.39,2-1.74,2-2-.38-2-1.73S246.84,215.49,248.17,215.44Z"/><path class="cls-2" d="M107.47,68.24c-1.28,0-2-.53-2-1.85s.52-1.93,1.84-2,1.93.52,2,1.84A1.68,1.68,0,0,1,107.47,68.24Z"/><path class="cls-2" d="M114.32,66.27c0,1.41-.66,2-1.94,2s-1.86-.67-1.85-2,.67-1.85,1.94-1.84S114.35,65.12,114.32,66.27Z"/><path class="cls-2" d="M248.41,64.44c1.12,0,1.8.51,1.81,1.84s-.52,1.93-1.84,2-1.93-.52-1.95-1.84S247,64.44,248.41,64.44Z"/><path class="cls-2" d="M109.29,70.63c0,2.09-.66,2.65-2,2.63s-1.85-.67-1.84-1.94.67-1.85,1.94-1.85S109.28,70.19,109.29,70.63Z"/><path class="cls-2" d="M132.47,138.7c-1.12,0-1.79-.52-1.8-1.84s.52-1.94,1.83-2,1.93.51,1.95,1.83S133.92,138.69,132.47,138.7Z"/><path class="cls-2" d="M248.56,73.29c-1.72-.08-2.17-.83-2.13-2.08s.82-1.78,2-1.73,1.78.81,1.74,2S249.37,73.29,248.56,73.29Z"/><path class="cls-2" d="M109.29,76.34c0,1.41-.66,2-2,2s-1.85-.66-1.84-1.94.67-1.85,1.94-1.84S109.32,75.18,109.29,76.34Z"/><path class="cls-2" d="M247.71,74.5c2,0,2.53.67,2.51,2s-.68,1.85-1.95,1.83-1.84-.67-1.84-2S247.16,74.52,247.71,74.5Z"/><path class="cls-2" d="M254.51,79.1c-.17,1.51,2.1,3.22-.53,4.16a1.73,1.73,0,0,1-2.47-1.13C250.88,79.75,252.83,79.59,254.51,79.1Z"/><path class="cls-2" d="M107.48,79.54c1.12,0,1.79.51,1.81,1.84s-.52,1.93-1.84,2-1.93-.52-2-1.84S106,79.54,107.48,79.54Z"/><path class="cls-2" d="M106.65,84.57c2.09,0,2.65.66,2.64,2s-.67,1.85-2,1.84-1.84-.67-1.84-1.94S106.22,84.58,106.65,84.57Z"/><path class="cls-2" d="M253.29,88.36c-1.15,0-1.81-.52-1.82-1.84s.52-1.93,1.84-2,1.93.53,1.94,1.85S254.71,88.36,253.29,88.36Z"/><path class="cls-2" d="M248.15,205.35c1.66.07,2.12.83,2.07,2.07s-.82,1.78-2.05,1.74-1.78-.82-1.73-2A1.58,1.58,0,0,1,248.15,205.35Z"/><path class="cls-2" d="M109.29,91.34c.06,1.23-.39,2-1.74,2s-2-.38-2-1.74.39-2,1.74-2S109.24,90,109.29,91.34Z"/><path class="cls-2" d="M255.26,91.59c0,1.12-.52,1.79-1.84,1.8s-1.94-.52-1.95-1.83.51-1.93,1.83-2S255.25,90.14,255.26,91.59Z"/><path class="cls-2" d="M107.55,98.43c-1.23.06-2-.39-2-1.74s.39-2,1.74-2,2,.39,2.05,1.74S108.88,98.38,107.55,98.43Z"/><path class="cls-2" d="M250.22,202.15c0,1.44-.67,2-1.95,2s-1.85-.68-1.84-1.95.68-1.85,1.95-1.84S250.25,201,250.22,202.15Z"/><path class="cls-2" d="M107.45,103.46c-1.41,0-2-.66-2-1.94s.67-1.86,1.94-1.85,1.86.67,1.85,2S108.61,103.49,107.45,103.46Z"/><path class="cls-2" d="M230.09,116.83c-.05,1.32-.81,1.78-2.05,1.73s-1.78-.82-1.74-2,.82-1.77,2-1.73S230.14,115.6,230.09,116.83Z"/><path class="cls-2" d="M253.27,185.24c1.45,0,2,.67,2,1.95s-.67,1.85-1.95,1.84-1.85-.68-1.83-1.95S252.15,185.21,253.27,185.24Z"/><path class="cls-2" d="M212.93,119.81c1.24-.06,2,.38,2,1.74s-.38,2-1.73,2-2-.38-2.05-1.74S211.61,119.86,212.93,119.81Z"/><path class="cls-2" d="M225.07,121.63c0,1.28-.53,2-1.85,2s-1.94-.51-1.95-1.83.51-1.93,1.83-2A1.68,1.68,0,0,1,225.07,121.63Z"/><path class="cls-2" d="M230.09,121.54c0,1.23-.39,2-1.74,2s-2-.38-2-1.74.38-2,1.74-2S230,120.22,230.09,121.54Z"/><path class="cls-2" d="M236.36,247.61c0-1.43.68-2,2-2s1.85.68,1.83,2-.67,1.85-2,1.84S236.33,248.74,236.36,247.61Z"/><path class="cls-2" d="M134.45,126.89c0,1.33-.8,1.79-2,1.74s-1.78-.82-1.74-2,.81-1.78,2-1.74S134.51,125.66,134.45,126.89Z"/><path class="cls-2" d="M132.48,133c-.78,0-2.13.36-1.77-1.38.2-1,.11-2.35,1.74-2.39s1.75,1.35,2,2.48C134.72,133.26,133.58,133,132.48,133Z"/><path class="cls-2" d="M208.13,133.68c-1.29,0-1.95-.54-2-1.86s.53-1.93,1.84-1.95,1.93.53,1.94,1.85A1.68,1.68,0,0,1,208.13,133.68Z"/><path class="cls-2" d="M230,130.77c.1,2.07-.34,2.84-1.69,2.89s-2-.39-2-1.74.38-2,1.74-2S230,130.35,230,130.77Z"/><path class="cls-2" d="M235.12,131c0,2.11-.66,2.67-1.94,2.65s-1.86-.67-1.85-1.94.67-1.85,1.95-1.85S235.11,130.59,235.12,131Z"/><path class="cls-2" d="M245.19,131.61c.06,1.23-.39,2-1.74,2s-2-.39-2-1.74.39-2,1.74-2S245.14,130.28,245.19,131.61Z"/><path class="cls-2" d="M108.41,138.64c-2.09.11-2.86-.33-2.91-1.69s.39-2,1.74-2,2,.38,2.05,1.74S108.81,138.59,108.41,138.64Z"/><path class="cls-2" d="M157.57,134.9c1.23-.05,2,.39,2.05,1.75s-.39,2-1.74,2-2-.38-2-1.74S156.25,135,157.57,134.9Z"/><path class="cls-2" d="M164.67,136.73c0,1.28-.53,2-1.85,2s-1.94-.52-1.95-1.83.51-1.93,1.83-2A1.68,1.68,0,0,1,164.67,136.73Z"/><path class="cls-2" d="M198.09,138.7c-1.46,0-2-.68-2-2s.68-1.85,2-1.83,1.85.67,1.84,2S199.2,138.73,198.09,138.7Z"/><path class="cls-2" d="M203.1,134.91c1.14,0,1.81.52,1.82,1.84s-.53,1.93-1.85,1.94-1.92-.52-1.94-1.84S201.68,134.91,203.1,134.91Z"/><path class="cls-2" d="M245.19,136.86c0,1.16-.52,1.82-1.85,1.83s-1.93-.53-1.94-1.84.53-1.93,1.84-1.94S245.19,135.45,245.19,136.86Z"/><path class="cls-2" d="M250.22,137c-.05,1.32-.81,1.78-2.05,1.73s-1.78-.81-1.73-2.05.81-1.77,2-1.73S250.28,135.73,250.22,137Z"/><path class="cls-2" d="M144.54,141.66c-.07,1.66-.83,2.11-2.07,2.06s-1.78-.81-1.73-2,.81-1.78,2-1.74S144.55,140.78,144.54,141.66Z"/><path class="cls-2" d="M149.44,141.69c-.33.59-.06,2.15-1.91,2-1.31-.07-1.8-.77-1.77-2,0-1.6,1.06-1.78,2.32-1.78C149.05,139.92,149.77,140,149.44,141.69Z"/><path class="cls-2" d="M235.07,236.47c.11,2.07-.33,2.84-1.69,2.89s-2-.39-2-1.74.38-2,1.73-2.05S235,236.05,235.07,236.47Z"/><path class="cls-2" d="M223.89,244.39c-2.08,0-2.64-.66-2.62-1.94s.66-1.86,1.94-1.84,1.85.66,1.84,1.94S224.34,244.38,223.89,244.39Z"/><path class="cls-2" d="M230.09,242.34c0,1.23-.39,2-1.74,2s-2-.38-2-1.74.38-2,1.74-2S230,241,230.09,242.34Z"/><path class="cls-2" d="M233.05,240.59c1.66.07,2.12.82,2.07,2.07s-.82,1.77-2.05,1.73-1.78-.81-1.73-2S232.18,240.57,233.05,240.59Z"/><path class="cls-2" d="M243.13,240.61c1.23-.06,2,.38,2.05,1.74s-.38,2-1.73,2-2-.38-2-1.74S241.81,240.66,243.13,240.61Z"/><path class="cls-2" d="M138.29,249.43c-2,0-2.61-.66-2.59-2s.67-1.85,1.94-1.84,1.85.67,1.85,1.94S138.77,249.42,138.29,249.43Z"/><path class="cls-2" d="M219.11,249.38c-2.06.11-2.83-.34-2.87-1.69s.38-2,1.73-2.05,2,.39,2.05,1.74S219.54,249.32,219.11,249.38Z"/><path class="cls-2" d="M221.26,247.61c0-1.44.68-2,2-2s1.85.68,1.83,2-.67,1.85-2,1.84S221.23,248.74,221.26,247.61Z"/><path class="cls-2" d="M244.31,249.38c-2.09.11-2.86-.34-2.91-1.69s.39-2,1.74-2.05,2,.39,2.05,1.74S244.71,249.32,244.31,249.38Z"/><path class="cls-2" d="M248.23,249.43c-1.11,0-1.78-.52-1.8-1.84s.52-1.93,1.84-2,1.93.52,1.95,1.84S249.69,249.43,248.23,249.43Z"/><path class="cls-2" d="M142.69,254.47c-1.28,0-1.95-.53-2-1.85s.53-1.93,1.85-2,1.92.53,1.94,1.85A1.67,1.67,0,0,1,142.69,254.47Z"/><path class="cls-2" d="M215,251.85c0,2.08-.67,2.63-2,2.61s-1.85-.68-1.84-2,.68-1.84,2-1.84S215,251.4,215,251.85Z"/><path class="cls-2" d="M220,252.51c0,1.41-.66,2-1.94,2s-1.86-.67-1.85-1.94.67-1.86,2-1.85S220.05,251.35,220,252.51Z"/><path class="cls-2" d="M223,250.67c1.23,0,2,.39,2.05,1.74s-.38,2-1.74,2.05-2-.38-2-1.74S221.68,250.72,223,250.67Z"/><path class="cls-2" d="M240.15,252.73c-.05,1.32-.8,1.78-2,1.73s-1.78-.82-1.74-2.05.81-1.78,2-1.74S240.21,251.49,240.15,252.73Z"/><path class="cls-2" d="M243.23,254.46c-1.15,0-1.82-.52-1.83-1.84s.53-1.93,1.84-2,1.93.53,1.95,1.85S244.65,254.46,243.23,254.46Z"/><path class="cls-2" d="M246.43,253.2c0-2,.67-2.55,1.95-2.53s1.85.68,1.84,2-.68,1.85-1.95,1.84S246.44,253.73,246.43,253.2Z"/><path class="cls-2" d="M142.47,255.71c1.23-.06,2,.38,2.05,1.74s-.39,2-1.74,2-2-.38-2.05-1.74S141.14,255.76,142.47,255.71Z"/><path class="cls-2" d="M208.22,259.49c-1.23.06-2-.38-2.05-1.74s.38-2,1.74-2,2,.38,2,1.74S209.54,259.45,208.22,259.49Z"/><path class="cls-2" d="M213.81,259.5c-2.07,0-2.63-.67-2.61-1.95s.67-1.86,1.94-1.84,1.85.66,1.85,1.94S214.27,259.48,213.81,259.5Z"/><path class="cls-2" d="M220,257.68c0,1.14-.52,1.8-1.84,1.81s-1.93-.53-2-1.84.53-1.93,1.85-1.95S220,256.25,220,257.68Z"/><path class="cls-2" d="M235.12,257.69c0,1.12-.51,1.79-1.84,1.8s-1.93-.52-1.95-1.83.52-1.93,1.84-2S235.12,256.24,235.12,257.69Z"/><path class="cls-2" d="M240.16,257.67c0,1.15-.53,1.81-1.85,1.82s-1.93-.53-1.94-1.84.53-1.93,1.84-1.95S240.16,256.25,240.16,257.67Z"/><path class="cls-2" d="M245.19,257.44c.06,1.23-.39,2-1.74,2.05s-2-.38-2-1.74.39-2,1.74-2S245.14,256.12,245.19,257.44Z"/><path class="cls-2" d="M152.53,260.74c1.24-.06,2,.38,2.05,1.74s-.38,2-1.73,2-2-.38-2-1.73S151.21,260.79,152.53,260.74Z"/><path class="cls-2" d="M208.11,264.53c-1.4,0-2-.66-1.94-1.95s.66-1.85,1.94-1.84,1.85.67,1.84,1.94S209.28,264.56,208.11,264.53Z"/><path class="cls-2" d="M226.3,262.71c0-1.44.67-2,1.95-2s1.85.68,1.84,1.95-.68,1.85-2,1.84S226.27,263.84,226.3,262.71Z"/><path class="cls-2" d="M235.12,261.92c0,2.07-.67,2.63-2,2.61s-1.85-.68-1.84-1.95.68-1.85,1.95-1.84S235.11,261.47,235.12,261.92Z"/><path class="cls-2" d="M238.42,260.74c1.32.05,1.78.81,1.73,2.05s-.81,1.78-2.05,1.73-1.77-.81-1.73-2S237.19,260.68,238.42,260.74Z"/><path class="cls-2" d="M243.54,264.55c-1.73-.07-2.19-.83-2.14-2.07s.82-1.78,2-1.74,1.78.82,1.73,2.05S244.34,264.56,243.54,264.55Z"/><path class="cls-2" d="M157.79,269.57c-1.28,0-1.95-.53-2-1.85s.53-1.93,1.85-2,1.92.53,1.94,1.85A1.67,1.67,0,0,1,157.79,269.57Z"/><path class="cls-2" d="M162.82,269.56c-1.41,0-2-.66-1.95-1.94s.66-1.86,1.94-1.85,1.85.67,1.84,2S164,269.59,162.82,269.56Z"/><path class="cls-2" d="M169.69,267.73c0,1.15-.53,1.82-1.85,1.83s-1.93-.53-1.94-1.84.53-1.93,1.84-2S169.69,266.31,169.69,267.73Z"/><path class="cls-2" d="M199.89,267.51c.05,1.23-.39,2-1.74,2.05s-2-.39-2.05-1.74.38-2,1.74-2.05S199.84,266.18,199.89,267.51Z"/><path class="cls-2" d="M225.05,267.83c-.05,1.32-.8,1.78-2,1.73s-1.78-.82-1.74-2.05.81-1.78,2-1.74S225.11,266.59,225.05,267.83Z"/><path class="cls-2" d="M228.28,265.77c1.12,0,1.79.52,1.81,1.84s-.52,1.93-1.84,1.95-1.93-.52-1.95-1.84S226.83,265.78,228.28,265.77Z"/><path class="cls-2" d="M232.51,265.77c2.07,0,2.63.66,2.61,2s-.67,1.85-1.94,1.84-1.85-.67-1.85-1.94S232.05,265.78,232.51,265.77Z"/><path class="cls-2" d="M240.15,267.83c-.05,1.32-.8,1.78-2,1.73s-1.78-.82-1.74-2.05.81-1.78,2-1.74S240.21,266.6,240.15,267.83Z"/><path class="cls-2" d="M213.18,270.8c1.12,0,1.79.52,1.81,1.84s-.52,1.94-1.84,1.95-1.93-.51-2-1.83S211.73,270.81,213.18,270.8Z"/><path class="cls-2" d="M218.05,270.79c1.28,0,2,.53,2,1.85s-.52,1.94-1.84,1.95-1.93-.51-2-1.83A1.69,1.69,0,0,1,218.05,270.79Z"/><path class="cls-2" d="M225.05,272.54c.06,1.23-.38,2-1.74,2s-2-.38-2-1.74.38-2,1.74-2S225,271.22,225.05,272.54Z"/><path class="cls-2" d="M228,270.8c1.24-.05,2,.39,2.05,1.75s-.38,2-1.73,2-2-.38-2-1.74S226.71,270.86,228,270.8Z"/><path class="cls-2" d="M189.87,16c-.19,1.37-.8,1.86-1.93,1.86-1.28,0-1.89-.57-1.91-1.87s.55-1.84,1.84-1.94C189.61,14,189.16,15.57,189.87,16Z"/><path class="cls-2" d="M107.41,113.54c-1.36,0-1.94-.65-1.92-1.94s.64-1.86,1.92-1.86c1.12,0,2,.48,1.82,1.59S108.92,113.62,107.41,113.54Z"/><path class="cls-2" d="M255.24,191.7c.09,1.5-.33,2.32-1.68,2.37-1.18,0-2.06-.3-2.09-1.69,0-1.11.16-2.31,1.6-1.9C253.82,190.69,255.7,189.88,255.24,191.7Z"/><path class="cls-2" d="M240.17,121.62c0,1.06-.33,2-1.5,1.9s-2.32-.15-2.3-1.79c0-1.27.53-1.91,1.84-1.93S240.15,120.34,240.17,121.62Z"/><path class="cls-2" d="M134.47,51.27c.2,1.42-1.14,1.59-2.12,1.78s-1.65-.57-1.69-1.69.41-2,1.75-2S134.39,49.74,134.47,51.27Z"/><path class="cls-2" d="M230.11,237.17c-.06,1.74-.78,2.23-2,2.19s-1.91-.6-1.7-1.68.34-2.27,2-2.12C229.68,235.68,230.17,236.36,230.11,237.17Z"/><path class="cls-2" d="M154.6,257.58c-.07,1.51-.82,2-2.06,1.91s-1.79-.79-1.75-2,.57-1.9,1.69-1.68S154.81,256.15,154.6,257.58Z"/><path class="cls-2" d="M152.84,19.13A1.66,1.66,0,0,1,154.6,21c0,1.28-.57,1.9-1.87,1.92s-1.87-.54-1.94-1.84C150.72,19.44,152.11,19.62,152.84,19.13Z"/><path class="cls-2" d="M107.73,108.48c-1.42.08-2.19-.37-2.23-1.71s.35-2,1.71-2.06c1.13,0,2.27.15,1.9,1.63C108.9,107.15,109.38,108.76,107.73,108.48Z"/><path class="cls-2" d="M258,143.44c-1.14.29-1.62-.41-1.55-1.79s.83-1.77,2.06-1.72,1.8.79,1.73,2S259.72,143.86,258,143.44Z"/><path class="cls-2" d="M253.31,98.45c-1.41.22-1.59-1.15-1.78-2.12s.56-1.65,1.7-1.69,2,.41,2,1.75S254.84,98.37,253.31,98.45Z"/><path class="cls-2" d="M249.84,212.56c.51,1.62-.64,1.68-1.83,1.62-1.39-.07-1.65-1-1.57-2.18.1-1.39,1-1.7,2.18-1.57S250.55,211.1,249.84,212.56Z"/><path class="cls-2" d="M129.41,237.46c-.5.95-.68,2.2-2.26,1.91-1.35-.24-1.59-1.1-1.49-2.26.12-1.4,1.07-1.6,2.21-1.52S129.44,236.4,129.41,237.46Z"/><path class="cls-2" d="M125.75,130.88c-.86-1.41,1.19-1.46,1.92-1.53,1.76-.19,1.55,1.44,1.72,2.57.12.74-.32,1.73-1,1.41C127.59,132.92,125.8,133.31,125.75,130.88Z"/><path class="cls-2" d="M149.59,252.59a1.68,1.68,0,0,1-2,1.87c-1.3,0-1.86-.64-1.86-1.92,0-1.1.46-1.93,1.59-1.81S149.58,251.11,149.59,252.59Z"/><path class="cls-2" d="M212.86,219c-1.15.27-1.57-.4-1.65-1.48-.11-1.42.51-2.14,2-2.11s1.77.7,1.84,2C215.11,219.05,213.93,218.89,212.86,219Z"/><path class="cls-2" d="M235.12,141.75c0,1.42-.64,2-1.91,2s-1.79-.61-1.91-1.89c-.18-1.95,1.4-1.6,2.33-1.77C234.78,139.87,235.16,140.81,235.12,141.75Z"/><path class="cls-2" d="M157.87,48.1c-.72-.5-2.13-.31-2-2,.07-1.29.66-1.85,1.94-1.83a1.66,1.66,0,0,1,1.86,1.93A1.65,1.65,0,0,1,157.87,48.1Z"/><path class="cls-2" d="M234.86,121.31c.39,2-.5,2.23-1.66,2.27s-1.86-.63-1.87-1.89.59-1.89,1.88-1.89S235.39,120.24,234.86,121.31Z"/><path class="cls-2" d="M127.86,140.2c1.08-.28,1.49.39,1.55,1.47.1,1.45-.58,2.11-2,2.07s-1.74-.77-1.78-2C125.55,140.11,126.6,140.1,127.86,140.2Z"/><path class="cls-2" d="M212.92,249.44c-1,0-1.67-.52-1.72-1.83-.07-1.6,1.18-1.77,2.2-1.9s1.58.69,1.6,1.79C215,248.78,214.43,249.42,212.92,249.44Z"/><path class="cls-2" d="M125.85,126.18c-.23-1,.49-1.41,1.85-1.34s1.76.83,1.72,2-.81,1.77-2,1.74S125.56,128,125.85,126.18Z"/><path class="cls-2" d="M228.23,144.94a1.68,1.68,0,0,1,1.86,2c0,1.3-.64,1.85-1.92,1.85-1.12,0-1.94-.49-1.81-1.59S226.73,144.92,228.23,144.94Z"/><path class="cls-2" d="M255.25,181.46c0,1.76-.43,2.52-1.78,2.53-1,0-2.25-.41-1.82-1.39.33-.76-.27-2.53,1.64-2.41C254.55,180.26,255.24,180.71,255.25,181.46Z"/><path class="cls-2" d="M149.51,261.7c.1,2-.36,2.65-1.68,2.86-1.93.29-1.5-1.44-1.85-2.21-.51-1.11.5-1.52,1.56-1.6C148.83,260.66,149.48,261.22,149.51,261.7Z"/><path class="cls-2" d="M157.42,264.54c-.89,0-1.58-.52-1.58-1.82s.21-2.08,1.73-1.83c1.2.19,2,.77,2,2S158.85,264.51,157.42,264.54Z"/><path class="cls-2" d="M204.91,262c0,1.86-.52,2.41-1.82,2.57-1.94.23-1.44-1.55-1.78-2.29-.46-1,.62-1.49,1.69-1.52C204.32,260.7,204.89,261.34,204.91,262Z"/><path class="cls-2" d="M248.07,195.31c1.78-.09,2,1.2,2.09,2.2s-.67,1.61-1.78,1.58-2.14-.27-1.76-1.75C246.84,196.46,246.45,194.94,248.07,195.31Z"/><path class="cls-2" d="M255.29,196.8c-1.07.46,0,2.46-1.9,2.31-1.26-.09-1.92-.54-1.92-1.85s.46-1.93,1.81-1.95A1.76,1.76,0,0,1,255.29,196.8Z"/><path class="cls-2" d="M230.09,31.09c0,1.3-.59,1.89-1.87,1.91s-1.8-.56-1.94-1.85c-.23-1.93,1.56-1.44,2.3-1.78C229.54,28.92,230.11,30,230.09,31.09Z"/><path class="cls-2" d="M153.67,269.21c-1.49-.35-2.88-.24-2.84-1.87s1.56-1.71,2.61-2c.28-.09,1.4,1.1,1.36,1.65A6.13,6.13,0,0,1,153.67,269.21Z"/><path class="cls-2" d="M107.79,59.41c1.21.19,1.51,1,1.5,2,0,1.35-.76,1.79-2,1.78s-1.73-.7-1.82-2C105.36,59.32,107.38,60.45,107.79,59.41Z"/><path class="cls-2" d="M260.27,176.53c.07,1.77-.51,2.4-1.8,2.43s-1.94-.46-2-1.78c0-1,.3-2.07,1.4-1.92A7,7,0,0,1,260.27,176.53Z"/><path class="cls-2" d="M240.15,136.61c0,1.52-.63,2.1-1.91,2.08s-1.91-.58-1.88-1.9c0-1.07.58-2.2,1.5-1.72C238.6,135.46,240.61,134.79,240.15,136.61Z"/><path class="cls-2" d="M112.28,44.31c1.2-.05,2,.35,2,1.7.1,1.58-1.4,1.65-2.19,2-1,.4-1.56-.58-1.6-1.67C110.49,45.06,111,44.35,112.28,44.31Z"/><path class="cls-2" d="M168,275.84c1.06,0,1.74.57,1.7,1.9,0,1.07-.54,2.18-1.51,1.73-.75-.35-2.53.16-2.31-1.77C166,276.4,166.55,275.82,168,275.84Z"/><path class="cls-2" d="M248.63,53.13c-1.72,0-2.21-.73-2.2-2s.69-1.76,1.95-1.84c1.88-.12,1.36,1.63,1.67,2.39C250.45,52.72,249.28,53.16,248.63,53.13Z"/><path class="cls-2" d="M248.09,83.32c-1.42.12-1.55-1.34-1.51-2s.43-2,1.94-1.77a1.74,1.74,0,0,1,1.7,2.08C250.18,82.94,249.42,83.38,248.09,83.32Z"/><path class="cls-2" d="M233.43,225.47a1.7,1.7,0,0,1,1.7,1.91c0,1.5-.81,2-2.16,1.9-1-.09-1.75-.45-1.5-1.74A2.3,2.3,0,0,1,233.43,225.47Z"/><path class="cls-2" d="M243.12,210.39c1,.37,2,1,2,2.31s-.84,1.5-1.92,1.49c-1.33,0-1.86-.66-1.84-1.93A1.67,1.67,0,0,1,243.12,210.39Z"/><path class="cls-2" d="M209.92,282.46c-1,.46,0,2.47-1.92,2.23-1.29-.16-1.86-.7-1.83-2s.6-1.88,1.91-1.85C209.17,280.9,209.86,281.27,209.92,282.46Z"/><path class="cls-2" d="M211.53,282.19c0-.59-.18-1.44,1.65-1.07,1.33.27,1.89.46,1.81,1.83s-.87,1.75-2.08,1.71S211.05,284,211.53,282.19Z"/><path class="cls-2" d="M230.08,141.78c.06,1.35-.59,1.93-1.86,1.95s-1.8-.56-1.95-1.85c-.21-1.92,1.57-1.44,2.31-1.78C229.55,139.65,230.11,140.75,230.08,141.78Z"/><path class="cls-2" d="M260.29,146.5c-1.07.38.08,2.45-1.84,2.28-1.23-.11-1.94-.51-2-1.84s.51-1.93,1.82-2A1.67,1.67,0,0,1,260.29,146.5Z"/><path class="cls-2" d="M147.94,128.66c-1.71,0-2.19-.78-2.17-2s.68-1.83,1.94-1.81c1.08,0,2.1.55,1.73,1.54C149.14,127.17,149.14,128.74,147.94,128.66Z"/><path class="cls-2" d="M245.2,217.28c-.54.79-.46,2.18-2.12,2-1.32-.18-1.66-.88-1.7-2.1,0-1.69,1.35-1.3,2.18-1.54C244.79,215.26,245.13,216.16,245.2,217.28Z"/><path class="cls-2" d="M245.22,237.83a1.82,1.82,0,0,1-2.24,1.52c-1.38-.1-1.65-1-1.57-2.18.09-1.37,1-1.62,2.16-1.6C245.48,235.6,243.79,237.78,245.22,237.83Z"/><path class="cls-2" d="M218.16,240.57c1.45.16,1.87.85,1.87,1.94,0,1.3-.59,1.89-1.89,1.88-1.09,0-1.89-.38-1.87-1.55C216.29,241.49,217.41,241.05,218.16,240.57Z"/><path class="cls-2" d="M208.46,148.73c-.73-.79-2.37-.63-2.28-2.2.07-1.39,1-1.62,2.19-1.55,1.37.1,1.65,1,1.58,2.17A1.46,1.46,0,0,1,208.46,148.73Z"/><path class="cls-2" d="M240.16,217.36a1.62,1.62,0,0,1-1.85,1.87c-.83,0-2-.31-1.58-1.11s-.7-2.83,1.56-2.69C239.56,215.51,240.18,216.05,240.16,217.36Z"/><path class="cls-2" d="M243.15,269.57a1.59,1.59,0,0,1-1.75-1.73c0-1.21.34-2,1.7-2.07,1,0,2.15.23,2,1.33C244.9,268,244.53,269.34,243.15,269.57Z"/><path class="cls-2" d="M153.25,138.71c-.78-.73-2.3-.6-2.42-2.05-.1-1.14.54-1.68,1.66-1.75,1.42-.08,2.13.5,2.11,2A1.7,1.7,0,0,1,153.25,138.71Z"/><path class="cls-2" d="M134.52,242.66c-.27,1.38-1,1.77-2.05,1.74-1.53,0-1.83-.93-1.81-2.26,0-1.75,1.65-.81,2.29-1.48Z"/><path class="cls-2" d="M157.82,128.63c-1.36,0-2-.57-2-1.87,0-.93.34-2,1.18-1.79,1.06.21,2.57.48,2.59,2.1C159.61,128.23,158.81,128.65,157.82,128.63Z"/><path class="cls-2" d="M137.48,250.67c1.34,0,2,.52,2,1.82,0,1.06-.32,1.95-1.46,1.93s-1.83-.66-2-2S136.27,250.6,137.48,250.67Z"/><path class="cls-2" d="M215,45.85c-1.15.37-.79,2.42-2.49,2.21-1.18-.14-1.36-1.06-1.32-2.08.06-1.37.9-1.71,2.09-1.67A1.6,1.6,0,0,1,215,45.85Z"/><path class="cls-2" d="M172.84,14.74c.83.11,2-.42,1.89,1.2-.06,1.22-.49,1.91-1.79,2s-2-.63-2-2C170.91,14.21,172.11,14.92,172.84,14.74Z"/><path class="cls-2" d="M156,141.1c-.17-.73.47-1.23,1.85-1.17,1,0,2,1,1.62,1.3-.87.73-.16,2.61-1.94,2.5C156.28,143.64,155.76,143.07,156,141.1Z"/><path class="cls-2" d="M184.78,16A1.61,1.61,0,0,1,183,17.89c-1.22,0-1.89-.41-2-1.71s.57-1.6,1.62-1.42C183.44,14.9,184.85,14.08,184.78,16Z"/><path class="cls-2" d="M177.85,269.57a1.67,1.67,0,0,1-1.89-2c0-1.62,1.35-1.71,2.36-1.7.29,0,.88,1.25,1,2.21C179.64,269.75,178.67,269.47,177.85,269.57Z"/><path class="cls-2" d="M215.08,21.14c-.3,1.51-1.05,1.83-2.11,1.79-1.32-.05-1.8-.74-1.77-2,0-.94.47-1.93,1.3-1.67A4.63,4.63,0,0,1,215.08,21.14Z"/><path class="cls-2" d="M213.18,301.41c1.68-.3,1.79.54,1.81,1.52,0,1.27-.58,1.85-1.84,1.86s-2.18-.49-1.86-1.73C211.51,302.24,212.27,301.28,213.18,301.41Z"/><path class="cls-2" d="M248.86,185.49c1.71-.75,1,1.32,1.18,2,.34,1.44-.85,1.6-1.95,1.57s-2-.71-1.51-1.39S246.48,185,248.86,185.49Z"/><path class="cls-2" d="M172.92,266.37c2.16-1,.45,1.88,1.76,1.69-.06,1.23-.84,1.49-1.88,1.49a1.64,1.64,0,0,1-1.87-1.89C170.93,266.1,171.55,265.64,172.92,266.37Z"/><path class="cls-2" d="M219.71,218.07c-.13.77-1.06,1-1.69,1.09-1.28.2-1.79-.63-1.79-1.85s.58-1.8,1.85-1.88C220.17,215.3,219.05,217,219.71,218.07Z"/><path class="cls-2" d="M208.05,223.63c-.83-.12-2,.43-1.89-1.2.06-1.22.48-1.91,1.78-2s2,.63,2,2C210,224.15,208.78,223.45,208.05,223.63Z"/><path class="cls-2" d="M153.41,145.22c1.2.14,1.17,1,1.17,1.77,0,1.33-.74,1.78-2,1.77s-1.91-.64-1.8-1.91C151,145.12,152.88,146.23,153.41,145.22Z"/><path class="cls-2" d="M199.89,141.84c0,1.08-.39,2-1.55,1.84-1.39-.15-1.81-1.57-2.1-2.57-.21-.76.86-1.2,1.8-1.18C199.33,140,199.93,140.57,199.89,141.84Z"/><path class="cls-2" d="M193,269.58c-1.25-.06-1.94-.51-1.89-1.68.06-1.47,1.38-1.75,2.32-1.84a1.47,1.47,0,0,1,1.47,1.81C194.69,269.2,194,269.59,193,269.58Z"/><path class="cls-2" d="M208.55,120.45c.93-.11,1.51.09,1.42,1.29s-.61,1.85-1.88,1.86-2-.53-1.88-1.8S207.44,120.37,208.55,120.45Z"/><path class="cls-2" d="M163.27,143.67c-2,.25-2.16-1-2.34-2s.53-1.67,1.64-1.7c.82,0,2,.11,1.76,1S164,143.14,163.27,143.67Z"/><path class="cls-2" d="M122.61,54.37c.8,0,1.82.33,1.66,1.22A3.14,3.14,0,0,1,121.8,58c-.85.14-1.23-.83-1.22-1.78C120.61,55,121.21,54.35,122.61,54.37Z"/><path class="cls-2" d="M129.39,227.68c0,1-.51,1.64-1.48,1.57s-2.08-.25-2.16-1.46a2.06,2.06,0,0,1,1.79-2.26C129.5,225.11,128.31,227.36,129.39,227.68Z"/><path class="cls-2" d="M169.7,45.55A4.28,4.28,0,0,1,167.16,48c-.85.18-1.27-.78-1.27-1.73,0-1.27.53-1.91,1.84-2A1.82,1.82,0,0,1,169.7,45.55Z"/><path class="cls-2" d="M237.41,143.66c-.53-.36-1-.66-1-1.47-.08-1.31.26-2.22,1.79-2.25,1,0,1.92.24,2,1.43C240.18,143.1,238.34,142.64,237.41,143.66Z"/><path class="cls-2" d="M259.66,172c-.69.48.4,2.06-1.34,1.94-1.58-.11-1.92-1-1.81-2.28s1.1-1.58,2.24-1.52C260.24,170.22,259.44,171.35,259.66,172Z"/><path class="cls-2" d="M113.78,141.77c-.64.94-1.11,1.94-2.33,1.91-.9,0-1.72-.46-1.41-1.5s0-2.49,1.35-2.51C112.49,139.65,113.07,140.91,113.78,141.77Z"/><path class="cls-2" d="M254.56,76.61c.25,1.48-.33,1.75-1.34,1.69-1.31-.08-1.74-.75-1.77-2a1.75,1.75,0,0,1,1.84-2C254.54,74.5,254.16,76.07,254.56,76.61Z"/><path class="cls-2" d="M210,307.79c0,1.34-.51,2-1.82,2-.93,0-1.95-.29-1.85-1.15a3.16,3.16,0,0,1,2.39-2.53C209.51,306,210,306.92,210,307.79Z"/><path class="cls-2" d="M238.29,133.05c-.55-.65-2.09.3-1.94-1.42.14-1.57,1.05-1.86,2.32-1.74s1.45.89,1.5,2C240.24,133.5,239.05,132.88,238.29,133.05Z"/><path class="cls-2" d="M131.28,237.62c.82-.45-.53-2.36,1.5-2.06,1.34.2,1.69.89,1.67,2.09,0,1.47-1.28,1.48-2.13,1.65C130.91,239.58,131.4,238.35,131.28,237.62Z"/><path class="cls-2" d="M255.25,101.66c0,1-.43,1.89-1.56,1.75-1.36-.17-1.44-1.44-1.58-2.53s.36-1.24,1.26-1.22C254.68,99.69,255.27,100.29,255.25,101.66Z"/><path class="cls-2" d="M250.23,85.82c0,1.83-.54,2.7-1.65,2.48s-1.42-1.47-1.51-2.6.52-1.14,1.35-1.13C249.77,84.58,250.21,85.35,250.23,85.82Z"/><path class="cls-2" d="M132.1,143.74c-1.12-.22-1.47-.94-1.43-2,0-1.33.73-1.77,2-1.8,1.8,0,.68,1.45,1,2.12C134.16,143,133.23,143.67,132.1,143.74Z"/><path class="cls-2" d="M224.76,147c-1,.06-.11,1.83-1.61,1.77-2-.07-1.37-1.77-1.72-2.67-.27-.71.86-1.07,1.77-1.18C225,144.73,224.12,146.46,224.76,147Z"/><path class="cls-2" d="M235.15,116.82a1.71,1.71,0,0,1-1.94,1.74c-1.31,0-1.86-.61-1.88-1.9,0-.91.25-1.37,1.23-1.25S234.71,115.74,235.15,116.82Z"/><path class="cls-2" d="M223,118.55c-.92,0-1.82-.36-1.66-1.33s.72-2,2.26-1.86c1,.12,1.51.29,1.44,1.42C225,118.11,224.31,118.62,223,118.55Z"/><path class="cls-2" d="M264.32,162.48s1.19,1.58-.75,1.23c-1-.19-2.16-.09-2.05-1.69.07-1,.3-2,1.48-1.82C263.7,160.33,265.48,160,264.32,162.48Z"/><path class="cls-2" d="M168.76,143.53c-1.23-.5-2.52-1-2.75-2.29-.15-.88.75-1.29,1.68-1.31,1.22,0,2,.4,2,1.74C169.7,142.5,169.64,143.25,168.76,143.53Z"/><path class="cls-2" d="M152.58,124.84c1.34,0,2,.55,2,1.86,0,.88-.19,1.4-1.19,1.3s-2.35-.28-2.54-1.56C150.7,125.36,151.53,124.79,152.58,124.84Z"/><path class="cls-2" d="M202.91,143.1c-1.17.82-2,.07-1.59-.82s-.26-2.56,1.64-2.34a2.31,2.31,0,0,1,1.86,2.26C205,143.67,204,143.66,202.91,143.1Z"/><path class="cls-2" d="M113.66,71.11c-.48.62,0,2.25-1.75,2.11-1.16-.09-1.42-1-1.38-2,.06-1.37.86-1.69,2.07-1.72S113.72,70.09,113.66,71.11Z"/><path class="cls-2" d="M149.55,217.45c0,.76-.25,1.65-1,1.5-1.17-.24-2.49-.9-2.68-2.17-.16-1.09.94-1.37,2-1.34C149.14,215.49,149.63,216.22,149.55,217.45Z"/><path class="cls-2" d="M220,46.34c.09.7-.17,1.24-1.18,1.12s-2.35-.23-2.54-1.57c-.16-1.13.7-1.57,1.81-1.59C219.4,44.28,220,44.88,220,46.34Z"/><path class="cls-2" d="M259.66,156.25c-.18,1.05-.23,2.34-1.58,2.53-1.12.15-1.58-.72-1.58-1.82a1.66,1.66,0,0,1,1.86-1.93C259.24,155,259.79,155.21,259.66,156.25Z"/><path class="cls-2" d="M249.37,257.59c-.22.35.14,1.9-1.49,1.87-1.17,0-1.47-.91-1.45-2,0-1.33.76-1.77,2-1.78C249.42,255.69,249.77,256.1,249.37,257.59Z"/><path class="cls-2" d="M246.44,192.64c0-1.54,1.36-1.47,2.36-1.72.74-.18,1.44-.07,1.43,1s-.27,2.19-1.32,2C248.14,193.75,246.49,194.52,246.44,192.64Z"/><path class="cls-2" d="M243.23,39.63a3,3,0,0,1,1.84,2.18c.15.91-.81,1.26-1.75,1.27s-2-.4-1.77-1.21C241.71,41.23,241.49,39.75,243.23,39.63Z"/><path class="cls-2" d="M239.39,278.21a2.07,2.07,0,0,1-2,1.29c-.83,0-1.12-1-1-2,.09-1.38.91-1.68,2.11-1.71S239.56,276.5,239.39,278.21Z"/><path class="cls-2" d="M162.66,264.19c-2.15.74-1.42-1.25-1.69-2.07s.64-1.55,1.25-1.28c1.07.49,2.26,1.32,2.32,2.61C164.57,264.12,163.73,264.91,162.66,264.19Z"/><path class="cls-2" d="M260.33,167.42c-.74.44-1.57,1.28-2.48,1.38-1.11.11-1.4-1-1.36-2,0-.78.45-1.78,1.06-1.36C258.43,166.07,260.26,165.19,260.33,167.42Z"/><path class="cls-2" d="M253.29,179c-1.61.43-.89-1.18-1-1.63a1.59,1.59,0,0,1,1.41-2.12c1.18-.06,1.54.77,1.55,1.85C255.27,178.36,254.67,179,253.29,179Z"/><path class="cls-2" d="M247.76,224.26a1.7,1.7,0,0,1-1.34-1.83c0-1.29.54-1.93,1.86-2,.85,0,1.31.12,1.33,1.17C249.65,223.06,248.71,223.61,247.76,224.26Z"/><path class="cls-2" d="M132.5,245.63c1.42,0,2,.66,2,2,0,.87-.17,1.78-1.26,1.49s-2.26-.79-2.2-2.1C131,246.34,131.42,245.26,132.5,245.63Z"/><path class="cls-2" d="M252.85,200.34c1,0,1.73.44,1.72,1.41s-.23,2.13-1.42,2.32-1.64-.58-1.69-1.71S251.79,200.57,252.85,200.34Z"/><path class="cls-2" d="M130.66,226.52c1.29.33,2.82-2,3.65.2.13.37.36,2-.78,2.43C131,230.18,131.91,227.23,130.66,226.52Z"/><path class="cls-2" d="M193,190.26c.76-.11,1.72.29,1.72,1.09a2.19,2.19,0,0,1-2.17,2.07c-.91.11-1.57,0-1.51-1.22S191.56,190.28,193,190.26Z"/><path class="cls-2" d="M215,297.18c0,1.73-.44,2.68-1.36,2.45a2.41,2.41,0,0,1-1.83-2.56c0-1.11.58-1.11,1.38-1.1C214.56,296,215,296.77,215,297.18Z"/><path class="cls-2" d="M101.92,134.54c1.5.45,2.49.9,2.35,2.41-.08.76-.33,1.67-1,1.48-1.12-.3-2.34-.82-2.16-2.52A1.87,1.87,0,0,1,101.92,134.54Z"/><path class="cls-2" d="M232.31,148.6c-.89-.35-1-1.09-1-1.95,0-1.37.89-1.65,2.08-1.69s1,.67,1.07,1.41C234.61,148,233.18,148,232.31,148.6Z"/><path class="cls-2" d="M212.79,210.42c.28,1.17,2.43.77,2.16,2.48-.19,1.13-1.08,1.39-2.11,1.29-1.22-.12-.43-1.56-1.28-1.92C212.2,211.82,211.27,210.43,212.79,210.42Z"/><path class="cls-2" d="M178.05,17.92c-1-.11-1.84.11-1.72-1.47.08-1.07.06-1.75,1.19-1.66.93.07,2.09.25,2.19,1.51S178.94,17.83,178.05,17.92Z"/><path class="cls-2" d="M227.9,230.41c.83.56,2.33.49,2.08,1.74a3.33,3.33,0,0,1-2,2.08c-1.52.53-1.15-1.18-1.25-1.78A2.08,2.08,0,0,1,227.9,230.41Z"/><path class="cls-2" d="M264.56,126.79c-.1.35-.08,1.59-1.48,1.8-.83.12-1.72-.76-1.41-1.19.59-.84-.22-2.72,1.82-2.58C264.42,124.88,264.82,125.16,264.56,126.79Z"/><path class="cls-2" d="M210,292.94c0,.88-.36,1.82-1.28,1.66s-2.06-.85-1.69-2.09c.15-.49-.53-1.88,1.15-1.61C209.44,291.1,210,291.65,210,292.94Z"/><path class="cls-2" d="M133.36,120.45c1.63-.17.86,1.38.93,1.8.19,1.09-.88,1.38-1.9,1.34s-1.86-.47-1.6-1.37A2.27,2.27,0,0,1,133.36,120.45Z"/><path class="cls-2" d="M156.1,271.51a1.39,1.39,0,0,1,1.34-.7c1.17-.06,2.08.2,2.16,1.57.05.83.17,1.62-1.18,1.61S156.49,273.09,156.1,271.51Z"/><path class="cls-2" d="M199.51,222.09c.62,1.42-.19,2.1-.71,2.06a2.27,2.27,0,0,1-2.07-2.27c-.12-1,.23-1.4,1.37-1.45C199.84,220.37,199.44,221.65,199.51,222.09Z"/><path class="cls-2" d="M240.13,56.33c.26,1.7-1.47.24-1.67,1.16-.89-.3-1.78-.39-1.77-1.8s.9-1.31,1.76-1.29A1.54,1.54,0,0,1,240.13,56.33Z"/><path class="cls-2" d="M129.22,232.29c.33,1.49-.36,1.93-1.42,2-.86.07-1.82.06-1.49-1.21.22-.85-.39-2.3.9-2.4C127.68,230.67,129.65,230.77,129.22,232.29Z"/><path class="cls-2" d="M181.81,266.08a2.78,2.78,0,0,1,2.67,2.38c.19.85-.61,1.08-1.37,1.1-1,0-1.84-.18-2.09-1.33S181.76,266.78,181.81,266.08Z"/><path class="cls-2" d="M203.19,175.18c1.26,0,1.72.74,1.75,2s-.75,1.22-1.59,1.17c-1.34-.09-1.59-1-1.6-2.12S202.45,175.17,203.19,175.18Z"/><path class="cls-2" d="M254,71.53c-.22.54.58,1.75-.92,1.71-1.15,0-1.56-.74-1.59-1.84,0-1.25.77-2.3,1.66-2.27S254,70.5,254,71.53Z"/><path class="cls-2" d="M103.44,69.59c.7.17.86,1.09.82,2.2-.06,1.34-1,1-1.8,1.09-1.35.08-.86-1.16-1.31-1.72C101.8,70.68,101.47,69.21,103.44,69.59Z"/><path class="cls-2" d="M141.35,247.63c-.76-1.48-.17-2,1.34-2s.41,1.94,1.62,2.13c-.85.19-.83,1.51-2.17,1.34S140.76,248.58,141.35,247.63Z"/><path class="cls-2" d="M192.85,285.91c1.21-.06,1.77.43,2.05,1.71.36,1.66-1,1-1.52,1.21-1.7.62-1.7-1.14-2-2C191.12,286.27,192.08,285.86,192.85,285.91Z"/><path class="cls-2" d="M199.62,287.72c.38,1-1,1.29-1.57,1.2s-2-.09-1.93-1.39c0-1.14.67-1.62,1.77-1.62C198.83,285.91,199.66,286,199.62,287.72Z"/><path class="cls-2" d="M205,287.11a5.7,5.7,0,0,1-2.34,2.4c.15-1.14-1.52-.83-1.5-2,0-1.42,1-1.14,1.91-1.44C204.22,285.7,204.46,286.44,205,287.11Z"/><path class="cls-2" d="M214.89,147.23c-.66.47-.36,1.65-1.63,1.57s-1.94-.56-2.11-2c-.2-1.62,1-.67,1.46-.92C214,145.16,214.2,146.61,214.89,147.23Z"/><path class="cls-2" d="M255.25,172c.06,1.07-.32,1.83-1.5,1.93-1.33.12-1.46-1.21-1.53-1.83a1.88,1.88,0,0,1,1.74-1.84C254.88,170.17,255.3,171,255.25,172Z"/><path class="cls-2" d="M253.35,104.66c1.46.15,1.9.81,1.91,1.92,0,.93-.29,1.8-1.22,1.82a1.92,1.92,0,0,1-1.83-1.78A2.11,2.11,0,0,1,253.35,104.66Z"/><path class="cls-2" d="M179.77,45.88c0,1.23-1.26,1.42-1.91,1.46a1.92,1.92,0,0,1-1.79-1.8c0-.93.86-1.23,1.78-1.24A1.64,1.64,0,0,1,179.77,45.88Z"/><path class="cls-2" d="M172.76,280.88c1.08-.06,1.84.33,2,1.49.12,1.32-1.22,1.45-1.84,1.52a1.88,1.88,0,0,1-1.84-1.73C171,281.23,171.82,280.83,172.76,280.88Z"/><path class="cls-2" d="M129.41,31a1.65,1.65,0,0,1-1.77,2c-.93,0-2.07-.38-1.85-1.09a3.46,3.46,0,0,1,2.64-2C129.32,29.67,129.45,30.29,129.41,31Z"/><path class="cls-2" d="M262.16,121.57c0-.3-1-1.4.68-1.12,1,.18,2.32.16,2.45,1.61.15,1.72-1.47,1.18-2.24,1.37C262,123.68,261.5,122.94,262.16,121.57Z"/><path class="cls-2" d="M108.77,116.35c-.46,1.16-1,2-2,2.11s-1.31-.77-1.32-1.72.33-1.79,1.49-2C108.48,114.55,107.71,116.32,108.77,116.35Z"/><path class="cls-2" d="M243,205.25a3.83,3.83,0,0,1,2.19,2.39,1.16,1.16,0,0,1-1.23,1.43c-1.36-.25-1.92-1.54-2.27-2.7C241.47,205.81,242.29,205.5,243,205.25Z"/><path class="cls-2" d="M122.69,128.62c-1,0-1.92-.09-1.81-1.13s.73-2.41,2.06-2.47c.34,0,.92,1.49,1.08,2.35S123.47,128.71,122.69,128.62Z"/><path class="cls-2" d="M202,173.82c-.57-.12-.92-.85-.87-1.92s.46-1.8,1.37-1.66,1.85.95,1.66,1.91C204,172.78,204,174.14,202,173.82Z"/><path class="cls-2" d="M208.24,134.91c.87-.12,1.1.38,1.09,1.26,0,1.48-.8,1.91-2.14,1.92-1.13,0-1-.72-1-1.43C206.18,135.35,206.93,134.87,208.24,134.91Z"/><path class="cls-2" d="M124.42,130.58c-.7.78-.63,2.22-1.81,2.35a1.93,1.93,0,0,1-1.91-1.71c-.15-1.33,1.46-1.19,2.15-1.88C123.14,130,124.34,129.6,124.42,130.58Z"/><path class="cls-2" d="M199.9,172.17c.07.61-.09,1.15-1.12,1.14-1.19,0-2-.35-2.05-1.68,0-.91,0-1.58,1.26-1.51S199.88,170.7,199.9,172.17Z"/><path class="cls-2" d="M204.93,258.49c0,.31-.5.86-1.43,1a1.41,1.41,0,0,1-1.71-1.33c-.15-.95.56-1.54,1-2.22C203.6,256.46,204.87,256.47,204.93,258.49Z"/><path class="cls-2" d="M199.88,218a1.77,1.77,0,0,1-1.92,1.23c-.93,0-1.82-.34-1.75-1.27a2,2,0,0,1,1.81-1.79C198.92,216.2,199.52,217.12,199.88,218Z"/><path class="cls-2" d="M203.15,219.24c-1,.09-1.84-.24-1.91-1.14a1.94,1.94,0,0,1,1.69-1.92c1-.13,1.75.87,1.88,1.73S204,219.19,203.15,219.24Z"/><path class="cls-2" d="M220.07,146.32c-.77.9-1.38,2-2.65,2.35-.25.06-.7-.61-1-.95.83-.8.54-2.5,2.07-2.72C219.27,144.89,219.74,145.46,220.07,146.32Z"/><path class="cls-2" d="M207.79,219.22c-.53,0-1.47-.11-1.27-1.14.15-.79.46-2.07,1.58-1.89.63.11,1.92.16,1.83,1.49C209.85,218.84,209.15,219.25,207.79,219.22Z"/><path class="cls-2" d="M132.57,221.09c.86-.44,1.45-.5,1.26.81s-.88,2.22-2.07,2.26c-1.34.06-.67-1.35-.86-2C130.42,220.54,131.47,220.62,132.57,221.09Z"/><path class="cls-2" d="M124.32,226.5c-1.09.72-.42,3.27-2.63,2.64-.64-.18-1.53-1.63-1-2.26A2.53,2.53,0,0,1,124.32,226.5Z"/><path class="cls-2" d="M162.56,17.88c-.9,0-1.75-.43-1.59-1.34.29-1.7,2-1,3-1.38s.61.68.61,1C164.62,17.49,163.83,18,162.56,17.88Z"/><path class="cls-2" d="M137.53,28c-.94.05-1.76-.35-1.74-1.27,0-1.26,1.44-1.19,2.21-1.75.4.62,1.73.31,1.49,1.57A1.65,1.65,0,0,1,137.53,28Z"/><path class="cls-2" d="M224.85,26.92c-.22.94-.95,1-1.78,1s-1.84-.42-1.67-1.29c.13-.64.15-1.93,1.5-1.87S224.3,26.09,224.85,26.92Z"/><path class="cls-2" d="M199.9,46c-.08,1.19-1.28,1.31-2,1.38-1.09.1-1.41-1.19-1.53-2-.17-1,.85-1.07,1.66-1.08A1.61,1.61,0,0,1,199.9,46Z"/><path class="cls-2" d="M139.36,50.23c-.66,1.06-.73,2.51-2.09,2.12-.48-.14-1.73-.23-1.57-1.47s1.05-1.56,2.19-1.54C138.72,49.35,139,49.86,139.36,50.23Z"/><path class="cls-2" d="M228.59,52.44c-1.3,0-1.62-.75-1.66-1.81,0-.9.19-1.34,1.2-1.3,1.24.05,1.79.49,2,1.82C230.4,52.89,228.77,51.65,228.59,52.44Z"/><path class="cls-2" d="M254,109.74a1.77,1.77,0,0,1,1.22,1.92c0,.94-.33,1.83-1.25,1.76a2,2,0,0,1-1.79-1.81C252.23,110.71,253.14,110.1,254,109.74Z"/><path class="cls-2" d="M108.68,121.67c-.42.88-1,1.77-1.92,1.82s-1.25-.83-1.26-1.76.26-1.81,1.2-1.83S108.18,120.85,108.68,121.67Z"/><path class="cls-2" d="M203.13,120.43c.55.63,1.92.34,1.77,1.68-.13,1.14-.85,1.47-1.91,1.49-.8,0-1.75-.37-1.61-.92C201.59,121.83,201.84,120.64,203.13,120.43Z"/><path class="cls-2" d="M140.07,143c-1.51.08-3,.65-3.61-1a1.65,1.65,0,0,1,1.29-2C139.83,139.78,139.19,141.79,140.07,143Z"/><path class="cls-2" d="M157.57,145.26c1.46-.57,1.4.25,1.42,1,0,1.33-.65,1.84-1.93,1.87-1,0-1.21-.31-1.25-1.26C155.74,145.29,156.7,145.18,157.57,145.26Z"/><path class="cls-2" d="M239.51,36.76c.13.88-.2,1.31-1.18,1.28-1.26,0-2-.51-2-1.84,0-.85.17-1.62,1.14-1.27S239.69,35.21,239.51,36.76Z"/><path class="cls-2" d="M259.63,161.73c0,1.4-1.27,1.62-2.12,1.85s-1-.7-1-1.46c0-1,.24-1.81,1.38-2C259.27,159.8,259,161.29,259.63,161.73Z"/><path class="cls-2" d="M242.1,164.15c1-.93-1.09-3.36,1.5-3.28.44,0,2,.12,2,.83C245.44,163.51,243.77,163.87,242.1,164.15Z"/><path class="cls-2" d="M238.61,210.37a1.73,1.73,0,0,1,1.56,1.8c.05.94-.24,1.81-1.12,1.92a2,2,0,0,1-2-1.67C236.88,211.37,238.19,211.1,238.61,210.37Z"/><path class="cls-2" d="M180.22,133.52c-1.92.1-3.35.65-4-.71-.22-.46.34-2,1.29-2.12C179.35,130.45,179,132.36,180.22,133.52Z"/><path class="cls-2" d="M198.2,185.89c.62.61,1.76,1,1.59,2s-1.21,1.23-2.19,1.1c-.72-.09-1.47-.31-1.13-1.23S197,186,198.2,185.89Z"/><path class="cls-2" d="M197.26,260.73c.72,1.1,3,.73,2.53,2.78a1.31,1.31,0,0,1-1.7,1C196.31,263.78,197.15,262.16,197.26,260.73Z"/><path class="cls-2" d="M154.65,218c-1.41,0-3,1.37-3.8-.42a1.36,1.36,0,0,1,.7-1.87C153.52,215.11,153.45,217.39,154.65,218Z"/><path class="cls-2" d="M262.4,133.43c-.79-.26-.9-1-.87-1.84s.48-1.78,1.37-1.62a2,2,0,0,1,1.69,1.88C264.53,132.91,263.35,133,262.4,133.43Z"/><path class="cls-2" d="M197.23,149.92c1,.48,1.86,1.06,1.93,2,.08,1.14-1.16,1.44-1.94,1.59-1.06.19-1.07-.8-1.13-1.61C196,150.85,196.62,150.42,197.23,149.92Z"/><path class="cls-2" d="M252.6,205.37a2.24,2.24,0,0,1,1.75,2.13,1.64,1.64,0,0,1-1.83,1.55c-.87-.16-1.09-1-1.08-2A1.92,1.92,0,0,1,252.6,205.37Z"/><path class="cls-2" d="M248,236.28c1.19-.06,1.55.66,1.56,1.72,0,.72.19,1.6-1.08,1.22-.92-.27-2,0-2.13-1.65S247.59,236.9,248,236.28Z"/><path class="cls-2" d="M194.85,218a1.88,1.88,0,0,1-2.24,1.19c-.72-.09-1.5-.29-1.18-1.2s.5-2.05,1.65-1.85A2.45,2.45,0,0,1,194.85,218Z"/><path class="cls-2" d="M137.35,241.18c1,.33,1.86.95,1.85,1.65s-.28,1.79-1.65,1.59c-.89-.13-1.74-.32-1.76-1.25S136.89,241.86,137.35,241.18Z"/><path class="cls-2" d="M243.78,64.42a1.63,1.63,0,0,1,1.41,1.73c0,.83-.05,1.87-1,1.79-.76-.07-2-.42-2.05-1.51S243.09,65,243.78,64.42Z"/><path class="cls-2" d="M204.29,16.46c0,.75.11,1.47-1,1.45s-2-.32-2.12-1.69c-.1-1.12.22-1,1.25-1C203.58,15.18,204.29,15,204.29,16.46Z"/><path class="cls-2" d="M129.4,222.19c0,1.12-.33,2.05-1.21,2a2,2,0,0,1-1.81-2c0-.11,0-1.87,1.34-1.15C128.41,221.32,129.9,220.68,129.4,222.19Z"/><path class="cls-2" d="M255.25,116.73c.06.79-.29,1.71-1,1.56s-2-.4-2.09-1.54,1.17-1.48,1.94-1.64C255.17,114.9,255.26,115.91,255.25,116.73Z"/><path class="cls-2" d="M244.6,141.62a1.77,1.77,0,0,1-1.88,1.49c-.87,0-1.36-.14-1.34-1.18s.22-1.81,1.17-1.88S243.93,141.11,244.6,141.62Z"/><path class="cls-2" d="M206.3,252.87c1.16-.49,1.2-2.88,3.06-1.82s-1.17,1.85-.28,2.93C207.69,255,207.51,252.69,206.3,252.87Z"/><path class="cls-2" d="M159.84,257.48c-1.5.47-1.66,2.46-3.28,1.71-1-.47-1.05-2.08-.58-2.36C157,256.18,158.41,256.43,159.84,257.48Z"/><path class="cls-2" d="M149.34,151.07c-.57.73-.51,2.06-1.69,2a1.77,1.77,0,0,1-1.64-1.61,1.52,1.52,0,0,1,1.87-1.49C148.62,150.14,149.21,150.26,149.34,151.07Z"/><path class="cls-2" d="M145.5,146.09c1.68-.24,3.26-1.23,3.95,1a1.1,1.1,0,0,1-.75,1.46C146.94,148.76,146.64,147.06,145.5,146.09Z"/><path class="cls-2" d="M249.13,92.74c-1.11.08-2-.24-2-1.22A2,2,0,0,1,249,89.71c1,0,1.22.91,1.22,1.83S250,93,249.13,92.74Z"/><path class="cls-2" d="M223.92,235.12a15.93,15.93,0,0,1,1,3.07c.06.52-.54,1.28-1.2,1.08-.88-.25-1.87-1-1.73-1.86C222.14,236.68,223.08,236.07,223.92,235.12Z"/><path class="cls-2" d="M198.62,15.08c1-.17,1.06,1,1.15,1.37.2,1-.64,1.49-1.5,1.4s-2.05-.29-2.06-1.25C196.19,15.28,197.59,15.44,198.62,15.08Z"/><path class="cls-2" d="M203.47,191c.24.75,1.67-.51,1.46,1s-1.53,1.47-2.41,2c-.52.28-1.35-.53-1.15-.92C201.82,192.22,201.84,190.69,203.47,191Z"/><path class="cls-2" d="M242.26,200.31c.63,1.38,3.42-.07,2.88,2.58-.11.5-.3,1.19-1.18.93C242.24,203.32,241.65,202.24,242.26,200.31Z"/><path class="cls-2" d="M162.58,128.63c-1.17.33-1.42-1-1.45-1.46a1.76,1.76,0,0,1,1.6-1.61c1.2-.09,1.43,1.19,1.59,2C164.55,128.61,163.49,128.6,162.58,128.63Z"/><path class="cls-2" d="M259.73,151.81c-.54.94-1.05,1.9-2.05,1.88s-1.17-.94-1.2-1.86.41-1.19,1.32-1.21A2.06,2.06,0,0,1,259.73,151.81Z"/><path class="cls-2" d="M255.25,167.08c.06.79-.29,1.7-1,1.55s-2-.4-2.09-1.55,1.18-1.48,1.95-1.63C255.19,165.23,255.26,166.25,255.25,167.08Z"/><path class="cls-2" d="M177.43,194.07c-1.06-.18-1.37-.85-1.5-1.93-.19-1.67,1.19-.72,1.74-1.08s1.5.48,1.33,1.11S178.77,194.08,177.43,194.07Z"/><path class="cls-2" d="M248.43,143.11c-.76-.35-1.74-.67-1.13-1.7.28-.47-.53-1.63.91-1.5,1,.1,1.81.3,2,1.46C250.41,142.79,249,142.45,248.43,143.11Z"/><path class="cls-2" d="M137.76,148.15a2.63,2.63,0,0,1-2-1.8,1.09,1.09,0,0,1,1.3-1.29c.85.22,2,.7,2.28,1.38C139.93,147.71,138.2,147.42,137.76,148.15Z"/><path class="cls-2" d="M193.85,160.23a1.33,1.33,0,0,1,1,1.59c-.15.69-.42,1.74-1.12,1.66s-2-.39-1.94-1.59S193.14,160.83,193.85,160.23Z"/><path class="cls-2" d="M119.29,142.14c-1.1-.09-1,1.8-2.13,1.42-.5-.17-1.76-.29-1.49-1.16s.91-2.08,2.17-1.62C118.31,140.94,119.41,141,119.29,142.14Z"/><path class="cls-2" d="M262.47,143.54a1.28,1.28,0,0,1-.9-1.55c.15-.69.41-1.74,1.11-1.66s2,.38,1.94,1.58S263.28,143,262.47,143.54Z"/><path class="cls-2" d="M143.76,122.07c-.49.55.25,1.93-1.34,1.56-.94-.21-1.79-.61-1.59-1.47a2,2,0,0,1,2-1.63A1.1,1.1,0,0,1,143.76,122.07Z"/><path class="cls-2" d="M189.86,192.16c-.12,1.29-.64,1.84-1.6,1.88-1.31.06-1.21-1.2-1.49-1.91-.21-.5.55-1.26,1.13-1.14C188.68,191.15,189.61,191.44,189.86,192.16Z"/><path class="cls-2" d="M264.54,154.78c0,1.49.76,2.67-.39,3.74-.53-.9-1.64.63-1.92-.34C261.78,156.66,262.74,155.72,264.54,154.78Z"/><path class="cls-2" d="M164.63,277.12c.1,1.54-1.14,1.48-1.84,1.78-.55.24-1.35-.61-1.19-1.06.26-.72.12-2,1.42-2A1.45,1.45,0,0,1,164.63,277.12Z"/><path class="cls-2" d="M106.44,165.17c.72.64,2,.62,2.13,1.64.19,1.35-1.23,1.68-2,1.84-1,.2-.46-1.08-.75-1.54C105.11,166,106,165.71,106.44,165.17Z"/><path class="cls-2" d="M129.41,242.6c.24,1.67-1.24.48-1.8,1.05-.37.37-1.46-.53-1.24-1.26s.9-1.83,1.94-1.69C129.2,240.82,129.55,241.69,129.41,242.6Z"/><path class="cls-2" d="M232.89,30.05c1.06.54,2.39.67,2.07,1.8A2.2,2.2,0,0,1,232.74,33c-.8-.07-1.47-.59-1.31-1.34S232.84,31,232.89,30.05Z"/><path class="cls-2" d="M189.2,268.35c.05.64,0,1.29-1.11,1.22-.81-.05-1.86,0-1.75-1,.08-.78.43-2,1.54-2C188.83,266.44,189.21,267.27,189.2,268.35Z"/><path class="cls-2" d="M218.12,115.38c.83.44,1.78,1,1.81,1.91s-.85,1.15-1.77,1.3c-1.67.27-.82-1.12-1.13-1.66C216.55,116.12,217.45,115.75,218.12,115.38Z"/><path class="cls-2" d="M187.93,195.31c1.64-.48.78,1.07,1.09,1.6.49.82-.4,1.49-1,1.46a2,2,0,0,1-1.86-1.76C186.05,195.7,186.9,195.25,187.93,195.31Z"/><path class="cls-2" d="M122.51,221.13c1.16.26,1.37,1.31,1.54,2.12.06.27-1,1-1.86,1s-1.52-.35-1.26-1.12S121.36,221.24,122.51,221.13Z"/><path class="cls-2" d="M199.25,192.85c.17.92-.26,1.19-1.18,1.23-1.11,0-1.41-.4-1.35-1.43s.41-1.72,1.35-1.65S199.33,191.9,199.25,192.85Z"/><path class="cls-2" d="M264.68,136.54c-.13,1.41-1.23,1.65-2,1.82-1,.23-1-.77-1.16-1.56-.28-1.6,1.08-.83,1.62-1.12C264.07,135.16,264.17,136.33,264.68,136.54Z"/><path class="cls-2" d="M210,142.52c-1.33-.34-2.8,1.73-3.82-.2-.36-.69.36-.92.91-1.27C209.12,139.8,209,142.07,210,142.52Z"/><path class="cls-2" d="M136.87,239.44c-.57-1.45-1-2.82.35-3.73.82-.53.88.45,1.18.92C139.73,238.78,137.21,238.37,136.87,239.44Z"/><path class="cls-2" d="M174.94,132.76c-1.61.32-3,.76-3.88-.64-.53-.83.45-.91.94-1.15C173.89,130,174.09,131.62,174.94,132.76Z"/><path class="cls-2" d="M94.24,127.21c-.29.89-.74,1.36-1.57,1.41-1.34.07-1.24-1.18-1.54-1.89-.22-.52.49-1.21,1.11-1.18C93.27,125.6,93.62,126.62,94.24,127.21Z"/><path class="cls-2" d="M238.25,115.4c.68.21,1.38.72,1.17,1.24-.28.71-.19,2-1.51,1.91-.85,0-1.52-.53-1.45-1.24C236.54,116.36,237.41,115.81,238.25,115.4Z"/><path class="cls-2" d="M245,122c-1.28-.14-1.72,2.78-3.3.94-.75-.87.12-1.25.53-1.75C243.73,119.36,244.14,121.49,245,122Z"/><path class="cls-2" d="M233.26,170.15c1.65-.46.72,1.09,1.07,1.61.51.77-.36,1.41-1,1.46-1.22.08-1.44-1.17-1.62-1.93C231.43,170.29,232.38,170.12,233.26,170.15Z"/><path class="cls-2" d="M128.77,122.47c.16,1.1-.54,1.07-1.31,1.13-1.28.09-1.25-.69-1.19-1.56s.54-1.7,1.47-1.51A1.54,1.54,0,0,1,128.77,122.47Z"/><path class="cls-2" d="M123.51,234.19a2.91,2.91,0,0,1-1.6-1.72,1.4,1.4,0,0,1,1.15-1.86c.78-.09,1.23.61,1.32,1.41A2,2,0,0,1,123.51,234.19Z"/><path class="cls-2" d="M174.84,45.37c-.54,1.06-1.08,1.88-2,2-.63.09-1.33-.65-1.13-1.15.28-.71.17-1.91,1.51-1.93C174.1,44.29,174.29,45,174.84,45.37Z"/><path class="cls-2" d="M218.05,211c.77.2,1.53.74,1.24,1.42s-.27,2-1.65,1.72c-.87-.17-.91-.57-1-1.57C216.48,211.06,217.85,211.75,218.05,211Z"/><path class="cls-2" d="M116.31,215.61c1.12.53,2.5.68,2.72,2.25-1.28-.38,0,1.94-1.37,1.33C116.16,218.49,116.05,217.11,116.31,215.61Z"/><path class="cls-2" d="M111.32,42.88c.77-1,0-3,2-2.88a1.35,1.35,0,0,1,1,1.69C113.87,43.37,112.64,43.16,111.32,42.88Z"/><path class="cls-2" d="M247.49,228.23c-.9.46-1.57.27-1.3-.82.2-.8.47-2,1.67-1.81.91.14,1.14,1,1.11,1.92C248.94,228.79,248.44,228.94,247.49,228.23Z"/><path class="cls-2" d="M254.15,66.4c-.84.48-.47,1.91-1.57,1.73-.89-.14-1.17-1-1.12-1.92s.44-1.81,1.34-1.64C253.33,64.68,253.68,65.73,254.15,66.4Z"/><path class="cls-2" d="M103.28,93.24c-.67-.61-1.63-1-1.53-2.15.07-.78.48-1.52,1.31-1.41s1.22.92,1.21,1.86A1.69,1.69,0,0,1,103.28,93.24Z"/><path class="cls-2" d="M158.92,217.64c-.71.31.46,1.93-1.21,1.61-.8-.15-1.78-.17-1.54-1.18.18-.76.4-2,1.62-1.92A1.18,1.18,0,0,1,158.92,217.64Z"/><path class="cls-2" d="M172.89,216.1c.64.31,1.5.68,1.06,1.5-.29.54.49,1.91-1.11,1.65-.8-.13-1.8-.14-1.58-1.16C171.43,217.34,171.67,216.22,172.89,216.1Z"/><path class="cls-2" d="M238.13,208.55c-.45-.72-2.18-.42-1.66-1.69.28-.68,1.46-1.19,2.33-1.39s.66.76.7,1.3A1.56,1.56,0,0,1,238.13,208.55Z"/><path class="cls-2" d="M144.42,146c.35,1.79-1,1.61-1.67,2-.29.18-1.16-.61-1.77-1,.82-.45.48-1.86.92-1.94C142.9,144.92,143.29,146.58,144.42,146Z"/><path class="cls-2" d="M113.66,76.37c-.15.68-.83,1.57-1.31,1.17s-2,.66-1.83-1c.07-.84.1-1.9,1-1.79A2.21,2.21,0,0,1,113.66,76.37Z"/><path class="cls-2" d="M194.21,196.41c0,1.22-.39,2-1.32,2-.76,0-1.28-.83-1.67-1.55,1,0,.55-1.77,2-1.57C194.25,195.42,194.33,195.88,194.21,196.41Z"/><path class="cls-2" d="M235.49,223.4c-1.51.21-2.79.72-3.4-.16s.45-1.83,1-3C233.85,221.25,234.53,222.13,235.49,223.4Z"/><path class="cls-2" d="M207.78,52.49c-.5-.67-2-.5-1.6-1.88.17-.63.58-1.27,1.2-1.19a2.16,2.16,0,0,1,1.85,1.82C209.34,52,208.58,52.43,207.78,52.49Z"/><path class="cls-2" d="M215,242.44c0,.87-.09,1.84-1.13,1.61-.77-.17-2-.4-1.93-1.6.05-.68.67-1.55,1.44-1C213.88,241.74,215.41,240.8,215,242.44Z"/><path class="cls-2" d="M182.88,47.46a1.83,1.83,0,0,1-1.27-1.87c-.06-1.19.54-1.27,1.48-1.29,1.12,0,1,.65,1.06,1.38A1.62,1.62,0,0,1,182.88,47.46Z"/><path class="cls-2" d="M130,136.69l-3.35,2.15c-.45-1.2-.71-2.2.31-3S128.6,136.32,130,136.69Z"/><path class="cls-2" d="M174.08,191.45c.07,1-.24,1.81-1.21,1.9-.74.06-1.57-.67-1.15-1.37.34-.55-.56-2,1.12-1.75C173.76,190.34,174.22,190.53,174.08,191.45Z"/><path class="cls-2" d="M253.74,160.77c.33.71,1.64-.32,1.56,1.14-.07,1.17-.49,1.41-1.5,1.32s-1.73-.43-1.61-1.41A1.22,1.22,0,0,1,253.74,160.77Z"/><path class="cls-2" d="M98.3,160.25a9,9,0,0,1,.89,1.78c.43,1.64-1.1.65-1.63,1-.73.53-1.38-.39-1.42-1C96.08,160.87,97.29,160.82,98.3,160.25Z"/><path class="cls-2" d="M247.38,165.24c.72.56,1.93.55,2.14,1.57.17.78-.55,1.56-1.23,1.34s-1.92-.2-1.86-1.53A1.65,1.65,0,0,1,247.38,165.24Z"/><path class="cls-2" d="M203.38,145c.93.11,1.5.57,1.46,1.18a2.26,2.26,0,0,1-1.76,1.9c-.63.19-1.23-.51-1.24-1.09C201.82,145.88,203,145.64,203.38,145Z"/><path class="cls-2" d="M199.27,146.62c-.22,1.39-1.28,1.6-2.06,1.83s-1.1-.59-1.09-1.31c0-1.28,1.25-1.1,2-1.44C198.3,145.59,198.94,146.35,199.27,146.62Z"/><path class="cls-2" d="M112.72,190.42c.49,1.23,2.13,2,.92,3.31-.8.86-1.26-.12-1.76-.54C110,191.59,112.42,191.29,112.72,190.42Z"/><path class="cls-2" d="M104.25,86.37c0,.83-.1,1.75-1.08,1.72-.34,0-1.48-.07-1.45-1.2a2.13,2.13,0,0,1,1.56-2C103.92,84.67,104.31,85.59,104.25,86.37Z"/><path class="cls-2" d="M229.8,228.37c-.63.3-1.18,1-2.12.9-1.12-.18-.11-1.19-.65-1.79-.37-.42.48-1.35,1.23-1.27C229.33,226.32,229.46,227.44,229.8,228.37Z"/><path class="cls-2" d="M167.71,261.38c1.31.26,1.34,1.42,1.74,2.27a.8.8,0,0,1-1.09.55c-1.11-.31-2.08-.69-2.28-1.86C166,262.11,167.18,261.69,167.71,261.38Z"/><path class="cls-2" d="M149,247.3c-.51.79-.31,2-1.67,2.12s-.44-1.15-.7-1.68c-.49-1,.76-1.88,1.7-2S147.82,247,149,247.3Z"/><path class="cls-2" d="M161.77,220.47c.79.58,2.33,0,2.34,1.49,0,.76-.54,1.84-1.45,1.56C161.12,223.07,161.33,221.77,161.77,220.47Z"/><path class="cls-2" d="M188,289.08a1.66,1.66,0,0,1-1.29-1.52c-.15-1.6,1.34-.83,2-1.3s1.17.41,1.09.91A3,3,0,0,1,188,289.08Z"/><path class="cls-2" d="M127.86,54.37c.77.05,1.51.56,1.32,1-.36.83-.45,2.2-1.82,2.09-.54,0-1.28-.73-1-1.29S126.58,54.17,127.86,54.37Z"/><path class="cls-2" d="M265.29,151.82c.16,1-.15,1.39-1.15,1.36s-1.75-.23-1.89-1.18c-.11-.79.82-1.62,1.29-1.23S265.66,150.19,265.29,151.82Z"/><path class="cls-2" d="M103.35,79.65a2,2,0,0,1,.89,2.16c-.09.72-.38,1.42-1.18,1.17-.52-.16-1.5-.15-1.34-1.29S102.69,80.21,103.35,79.65Z"/><path class="cls-2" d="M202.08,290.73c.71.86,2.27.21,2.3,1.69,0,.74-.53,1.83-1.44,1.58C201.38,293.56,201.62,292.25,202.08,290.73Z"/><path class="cls-2" d="M91.92,133.48c-.87-1.17-1.15-2.42.2-3.51.33-.26,1.16-.29,1.33.28A2.5,2.5,0,0,1,91.92,133.48Z"/><path class="cls-2" d="M142.52,49.38c1.19-.2,1.4.35,1.38,1.24s-.32,1.81-1.28,1.78-1.69-.72-1-1.69C142,50.27,140.72,48.48,142.52,49.38Z"/><path class="cls-2" d="M189.78,45.9c-.63.55-1,1.58-1.89,1.48a1.2,1.2,0,0,1-1-1.77c.26-.79.12-1.44,1.37-1.36S188.42,46.16,189.78,45.9Z"/><path class="cls-2" d="M143.87,298.07c-.57.64-1,1.73-2,1.56-.44-.07-1-1.07-1-1.64,0-1.13,1.24-1.14,2-1.29C143.25,296.62,143.88,297.28,143.87,298.07Z"/><path class="cls-2" d="M269.18,124.06c-.95-1.6-3-1.31-2.55-3.19.13-.57.7-1.24,1.35-1C269.7,120.56,268.92,122.09,269.18,124.06Z"/><path class="cls-2" d="M106.08,177.35c.22-1,.72-1.46,1.51-1.52s1.78.48,1.36,1c-.55.69-.31,1.91-.86,2C107.08,179,106.81,177.74,106.08,177.35Z"/><path class="cls-2" d="M254.35,61.23c-1,.62-.68,2-1.7,1.88s-1.18-.9-1.2-1.82a2,2,0,0,1,.93-1.79A3.7,3.7,0,0,0,254.35,61.23Z"/><path class="cls-2" d="M108.6,180.3v3.44c-1-.24-2.23-.43-2.37-1.49C106.05,180.92,107.5,180.92,108.6,180.3Z"/><path class="cls-2" d="M162.55,216c.89.38,1.78.84,1.32,1.57-.34.54.55,1.74-1.11,1.75s-.77-1.19-1.11-1.73C161.08,216.68,162.33,216.58,162.55,216Z"/><path class="cls-2" d="M166.63,217.67a1.13,1.13,0,0,1,1.25-1.5c.65,0,1.57.75,1,1.46-.44.52.64,1.52-.84,1.67S167.07,218.35,166.63,217.67Z"/><path class="cls-2" d="M249.58,182.25c-.68.45-.29,1.84-1.67,1.76-1-.07,0-1.78-1.28-1.49.37-.83.9-1.62,1.85-1.6A1.33,1.33,0,0,1,249.58,182.25Z"/><path class="cls-2" d="M180.2,196.1c2.2.2,3.68-.44,4.51.93.34.55-.45.66-.86.92C182,199.16,181.78,197.32,180.2,196.1Z"/><path class="cls-2" d="M103.25,113.32c-.54-.33-1.37-.81-1.44-1.62s.78-1.49,1.49-1.7c.46-.14,1,.56.94,1.25S104.46,113,103.25,113.32Z"/><path class="cls-2" d="M113.68,101.7c-.47.68-.76,1.41-1.93.88-.62-.28-1.3.08-1.27-1.15,0-1.63,1.29-.52,1.87-1S113.52,100.91,113.68,101.7Z"/><path class="cls-2" d="M112.12,95.35a1.13,1.13,0,0,1,1.46,1.14c0,.85-.62,1.68-1.64,1.06-.46-.29-1.49.59-1.5-1S111.76,96,112.12,95.35Z"/><path class="cls-2" d="M104.23,96.57c.1.82-.24,1.68-.93,1.59a1.75,1.75,0,0,1-1.49-1.69,1.87,1.87,0,0,1,1.61-1.61C104,94.86,104.41,95.79,104.23,96.57Z"/><path class="cls-2" d="M153.93,151.65a1.32,1.32,0,0,1-1,1.43c-1,.11-1.44-.63-1.47-1.58,0-.71-.2-1.49,1-1.49S153.23,151.31,153.93,151.65Z"/><path class="cls-2" d="M133.82,282.72c-.23.9-1,1.29-1.58,1.85-.51-.73-1.3-1.4-1.48-2.2-.34-1.56,1.14.21,1.65-.71C132.71,281.11,133.49,282.1,133.82,282.72Z"/><path class="cls-2" d="M229.92,212.11c-.62.51-1,1.58-1.89,1.36-.66-.16-1.59-.76-1.43-1.6a1.93,1.93,0,0,1,1.57-1A1.69,1.69,0,0,1,229.92,212.11Z"/><path class="cls-2" d="M179.05,222a1.22,1.22,0,0,1-1.18,1.55c-.73,0-1.56-.69-1.12-1.4.34-.54-.55-1.72,1.1-1.76S178.22,221.86,179.05,222Z"/><path class="cls-2" d="M184.1,222.11a1.19,1.19,0,0,1-1.21,1.43c-.83-.08-1.61-.65-1-1.73.27-.48-.45-1.42,1-1.42C184.56,220.39,183.34,221.81,184.1,222.11Z"/><path class="cls-2" d="M154,142.41c0,.64.1,1.27-.86,1.31-1.34.06-1.29-1.16-1.58-1.87-.23-.55.5-1.23,1.12-1.2C153.64,140.69,154,141.48,154,142.41Z"/><path class="cls-2" d="M224.37,151.64c.07.89-.49,1.5-1.22,1.43s-1.6-.65-1-1.72c.27-.48-.44-1.42,1-1.43C224.83,149.92,223.61,151.35,224.37,151.64Z"/><path class="cls-2" d="M96.92,150.79a1.11,1.11,0,0,1,1.58.91c.17,1.15-.93,1.6-1.75,1.65-1.26.07-1-1.41-1.16-2C95.22,150,96.85,152.05,96.92,150.79Z"/><path class="cls-2" d="M153.88,50.86a1.22,1.22,0,0,1-1.17,1.55c-.74,0-1.57-.68-1.12-1.39.33-.54-.55-1.72,1.1-1.76S153.06,50.72,153.88,50.86Z"/><path class="cls-2" d="M255.23,157c.36,1.71-1.17.62-1.73,1.1s-1.37-.42-1.31-1.18.64-1.54,1.46-1C254.18,156.16,255.75,155.26,255.23,157Z"/><path class="cls-2" d="M249.46,123.84c-1.33-.63-2.12-1.19-2.33-2.1-.15-.64.52-1.2,1.11-1.23,1.36-.05,1.2,1.45,1.85,2.15C250.2,122.77,249.64,123.5,249.46,123.84Z"/><path class="cls-2" d="M168.09,148.74c-.59-.76-1.65-1.09-1.48-2,.11-.64.72-1.47,1.54-.9.51.36,1.76.17,1.47,1.18C169.43,147.65,168.64,148.14,168.09,148.74Z"/><path class="cls-2" d="M148.82,122.05c-.58.4.42,1.74-1.27,1.63-1.48-.1-.64-1.08-.91-1.56-.58-1,.27-1.61,1.12-1.59A1.14,1.14,0,0,1,148.82,122.05Z"/><path class="cls-2" d="M249,47.22c0,.68-.37.9-1,.86-1.33-.09-1.65-1-1.58-2.11,0-.51.1-1.24.74-1A2.58,2.58,0,0,1,249,47.22Z"/><path class="cls-2" d="M226.47,294.1c-.26-1.67-.39-2.91,1.4-3.14.65-.09.84.24,1,.84C229.36,293.88,227.35,293.24,226.47,294.1Z"/><path class="cls-2" d="M194.69,45.3c-.62.91-.62,2.15-1.82,2.09-.58,0-1.27-.6-1.1-1.23a2.37,2.37,0,0,1,1.87-1.78C194.21,44.3,194.6,44.85,194.69,45.3Z"/><path class="cls-2" d="M244,70.1c.67,0,1.24,0,1.21,1,0,1.33-1.25,1.22-2,1.47-.48.17-1.2-.55-1.1-1.22C242.25,70.35,243,70,244,70.1Z"/><path class="cls-2" d="M224.28,296.18c-.72.79.05,2.69-2,2.34-.8-.14-1.14-.43-1-1.16C221.72,295.67,222.94,295.84,224.28,296.18Z"/><path class="cls-2" d="M142.76,264c-.79-.42-1.41-.72-1.34-1.43.11-1.14,1.27-1.25,2-1.58.53-.23,1.22.57,1,1.07A9.41,9.41,0,0,1,142.76,264Z"/><path class="cls-2" d="M137.58,120.43c.7.3,1.58.75,1.12,1.48-.34.54.56,1.75-1.1,1.76s-.78-1.2-1.11-1.73C136,121.16,136.92,120.76,137.58,120.43Z"/><path class="cls-2" d="M179.12,262.7c-.58.49-.31,1.76-1.34,1.74-.76,0-1.21-.7-1.17-1.56a1.33,1.33,0,0,1,1.29-1.44C178.53,261.43,179,262,179.12,262.7Z"/><path class="cls-2" d="M257.73,180.24c.87-.09,1.35.08,1.31,1s0,1.84-1,1.86c-.5,0-1.26-.85-1.44-1.45C256.37,180.83,257.13,180.41,257.73,180.24Z"/><path class="cls-2" d="M200.68,188.14c1.09-1.15,1.35-2.49,2.79-2a1,1,0,0,1,.67,1.43C203.41,188.71,202.31,188.46,200.68,188.14Z"/><path class="cls-2" d="M122.45,140.57a2.8,2.8,0,0,1,1.87,1.78c.22.64-.44.73-1,.75-1,0-1.89-.13-2-1.26C121.21,141.2,121.83,140.84,122.45,140.57Z"/><path class="cls-2" d="M217.94,149.86c1.81.33.8,1.37,1.33,2,.34.39-.48,1.4-1.28,1.25-.63-.11-1.49-.72-1-1.53C217.41,151,217.28,149.68,217.94,149.86Z"/><path class="cls-2" d="M143.55,149.6c.45,1.7.7,2.92-.82,3.5-.55.21-1.07-.37-1.15-.78C141.23,150.7,142.69,150.61,143.55,149.6Z"/><path class="cls-2" d="M133.84,232.79c-.14.81-.58,1.67-1.31,1.4a2.62,2.62,0,0,1-1.13-1.89,1.09,1.09,0,0,1,1.25-1.06A1.45,1.45,0,0,1,133.84,232.79Z"/><path class="cls-2" d="M103.18,99.86a1.28,1.28,0,0,1,1,1.19c0,.81.19,1.89-.75,2-.48.09-1.45-.77-1.65-1.38C101.56,100.85,102.64,100.46,103.18,99.86Z"/><path class="cls-2" d="M137.13,230.55c.59.94,2.47,1.07,1.26,2.72-.81,1.1-1.7-.63-2.38.27C135.07,232,137.76,232,137.13,230.55Z"/><path class="cls-2" d="M207.19,189.35c-.56-1.52-.67-2.61.47-3.34.68-.43,1.28.18,1.44.68C209.54,188.13,208.2,188.39,207.19,189.35Z"/><path class="cls-2" d="M264,169.77c-.07,1.83.63,3.39-.87,3.92-.82.29-1.27-1.21-1.33-1.81C261.68,170.53,263.41,171.22,264,169.77Z"/><path class="cls-2" d="M102.8,65.12c1-.11,1.47.1,1.46,1s0,1.84-1,1.86c-.49,0-1.24-.85-1.44-1.45C101.54,65.62,102.49,65.41,102.8,65.12Z"/><path class="cls-2" d="M108.72,171.76c-.24.92-.67,1.5-1.27,1.46-1.12-.09-1.39-1-1.32-2,0-.49,0-1.27.66-1A8.11,8.11,0,0,1,108.72,171.76Z"/><path class="cls-2" d="M218.76,302.27c.12.9-.22,1.33-1.18,1.26-.73,0-1.49.05-1.33-1.07A1.54,1.54,0,0,1,217.9,301C218.87,301,218.71,301.69,218.76,302.27Z"/><path class="cls-2" d="M103.33,114.93a1.68,1.68,0,0,1,.92,1.77c0,.65,0,1.25-.94,1.23s-1.48-.48-1.5-1.22S102.69,115.4,103.33,114.93Z"/><path class="cls-2" d="M112.38,180.82c.69.26,1.35.62,1.23,1.28-.15.83-.76,1.71-1.69,1-.46-.36-1.5.78-1.41-.68S112,181.59,112.38,180.82Z"/><path class="cls-2" d="M157.5,49.29c1,.28,1.45.73,1.48,1.58a1.39,1.39,0,0,1-1.19,1.56,1.13,1.13,0,0,1-1.24-1.11A6.81,6.81,0,0,1,157.5,49.29Z"/><path class="cls-2" d="M150.63,253.56c.64-1.13,1-2.31,2.42-2.08a1,1,0,0,1,.76,1.45C153.09,254.13,152,254,150.63,253.56Z"/><path class="cls-2" d="M138.61,294.76c-.92-1.19-2.67-1.6-2.15-3.49a.85.85,0,0,1,.74-.24C138.47,291.84,139.28,292.89,138.61,294.76Z"/><path class="cls-2" d="M264.47,165.32c.61,1.49-.25,2.4-.65,3.42C261.05,167,262.21,166.07,264.47,165.32Z"/><path class="cls-2" d="M104.06,77.82c-.61-1.19-2.78-.13-2.29-2.12.15-.59.61-1.29,1.26-1.11C104.47,75,104.36,76.17,104.06,77.82Z"/><path class="cls-2" d="M108.63,161.92c-.19,1.26-1.36,1.24-2.09,1.73-.24.16-1-.39-.75-.93.39-.77.46-2,1.68-1.95A1.29,1.29,0,0,1,108.63,161.92Z"/><path class="cls-2" d="M104.23,106.53c0,1-.19,1.8-1,1.65-.51-.1-1.47-.65-1.15-1.47s.41-1.89,1.4-1.78A1.16,1.16,0,0,1,104.23,106.53Z"/><path class="cls-2" d="M135.69,227.09c1.11-.41,2-1.69,3-.15.43.71.37,1.66-.39,1.87C136.94,229.19,136.65,227.69,135.69,227.09Z"/><path class="cls-2" d="M118.24,245.66c.17,1.2,1.41,2.32.33,3.54-.3.34-.72.29-1-.14C116.57,247.77,117,246.68,118.24,245.66Z"/><path class="cls-2" d="M229.45,151.72a1.31,1.31,0,0,1-1.1,1.35c-.88,0-1.81-.81-1.16-1.51s-.82-1.45.53-1.56S228.75,151.3,229.45,151.72Z"/><path class="cls-2" d="M129.26,219.19c-1.59-.59-3-.58-2.9-2.06a1.27,1.27,0,0,1,1.62-1C129.74,216.61,128.21,218,129.26,219.19Z"/><path class="cls-2" d="M167.63,185.88c.82.13,1.65.92,1.3,1.32-.52.61.52,1.59-.67,1.82s-1.19-1-1.55-1.52C166.16,186.67,167.09,186.32,167.63,185.88Z"/><path class="cls-2" d="M107.77,55.15c.64.36,1.93,0,1.54,1.51-.16.64-.5,1.4-1,1.22-.85-.32-1.79-1-1-2.2Z"/><path class="cls-2" d="M107.34,55.68c-.59-.2-.68-.59-.42-1.12l.85.59Z"/><path class="cls-2" d="M171,37.4l.52.51C171.13,38,170.93,37.86,171,37.4Z"/><path class="cls-2" d="M188.31,132.75c2.35-2.37,3.28,1.39,5.16,1a1.93,1.93,0,0,1-1.67,1.34c-.87.24-.48,2.4-1.7,1.34-.4-.36-2.77-1.34-.95-2.93l-.87-.81Z"/><path class="cls-2" d="M154.85,36.33c1.55,1.47,1.78,3,.72,4.69C153.68,39.69,153.67,38.13,154.85,36.33Z"/><path class="cls-2" d="M151.48,38.33c-.2,1-.67,1.44-1.46,1.56-1.1.18-1-.53-1.13-1.29-.18-1.22.88-1.46,1.45-1.56C151.18,36.89,150.56,38.35,151.48,38.33Z"/><path class="cls-2" d="M215.4,137.51c.2-1.51-2.1-3-.34-4a1.83,1.83,0,0,1,2.67,2C217.7,135.8,216.2,136.66,215.4,137.51Z"/><path class="cls-2" d="M220.9,137.58a1.46,1.46,0,0,1,1,1.3c.06,1.13-.87,1.52-1.49,2.14-.34-.54-.9-1.05-1-1.61C219.37,138.49,220.35,138.16,220.9,137.58Z"/><circle class="cls-2" cx="122.83" cy="51.5" r="1.69"/><circle class="cls-2" cx="122.83" cy="46.15" r="1.69"/><circle class="cls-2" cx="127.75" cy="46.15" r="1.69"/><circle class="cls-2" cx="132.5" cy="46.2" r="1.69"/><circle class="cls-2" cx="132.24" cy="41.02" r="1.69"/><circle class="cls-2" cx="137.66" cy="41.17" r="1.69"/><circle class="cls-2" cx="142.64" cy="41.02" r="1.69"/><circle class="cls-2" cx="147.66" cy="46.51" r="1.69"/><circle class="cls-2" cx="147.68" cy="41.53" r="1.69"/><circle class="cls-2" cx="152.72" cy="41.53" r="1.69"/><circle class="cls-2" cx="157.76" cy="41.53" r="1.69"/><circle class="cls-2" cx="157.76" cy="37.02" r="1.69"/><circle class="cls-2" cx="162.6" cy="37.02" r="1.69"/><circle class="cls-2" cx="162.6" cy="31.42" r="1.69"/><circle class="cls-2" cx="157.77" cy="31.65" r="1.69"/><circle class="cls-2" cx="152.73" cy="37.02" r="1.69"/><circle class="cls-2" cx="147.68" cy="37.02" r="1.69"/><circle class="cls-2" cx="142.78" cy="36.52" r="1.69"/><circle class="cls-2" cx="147.18" cy="31.74" r="1.69"/><circle class="cls-2" cx="147.68" cy="51.21" r="1.69"/><circle class="cls-2" cx="127.75" cy="41.02" r="1.69"/><circle class="cls-2" cx="117.73" cy="50.95" r="1.69"/></g></g></svg>